<?xml version="1.0" encoding="utf-8"?>
<!-- Generator: Adobe Illustrator 24.0.1, SVG Export Plug-In . SVG Version: 6.00 Build 0)  -->
<svg version="1.1" id="Layer_1" xmlns="http://www.w3.org/2000/svg" xmlns:xlink="http://www.w3.org/1999/xlink" x="0px" y="0px"
	 viewBox="0 0 83 83" style="enable-background:new 0 0 83 83;" xml:space="preserve">
<style type="text/css">
	.st0{fill:#070606;}
	.st1{fill:#8F8F8F;}
	.st2{fill:#C06301;}
	.st3{fill:#BF6302;}
	.st4{fill:#BF6301;}
	.st5{fill:#BE6302;}
	.st6{fill:#151412;}
</style>
<g id="OybzkT.tif">
	<g id="QXrMg2.tif">
		<g>
			<path class="st0" d="M40.5,0.5c0.7,0,1.4,0,2.1,0c0.6-0.1,3.7,0.1,4.1,0.1c19.5,2.6,33,18,35.2,34.1c0.1,0.9,0.9,4.3,0.9,5.1
				c0,1,0,2,0,3c0,1-0.8,5-1,6.1c-1.2,5.8-3.2,11.2-6.9,15.9c-0.6-1-1.2-0.6-1.9,0c-0.3,0.2-0.8,0.2-1.1,0.3c0.6-1,1.2-2.1,1.9-3.1
				c2-2.8,3.2-5.9,4.4-9.1c-6.8-0.7-9.6-6-12.8-10.8c-1.9,1.5-3.8,3-5.7,4.5c0.5,1.3,0.8,2.3,1.3,3.4c2.1,5.4,3.7,10.8,3.9,16.6
				c0.1,1.9,0.2,3.7,0.3,5.6c0,0.7-1.7,1.2-0.2,2.4c-0.4,0.3-0.7,0.7-1.1,0.9c-9.6,6.2-20,8.2-31.1,5.8c-23-5-35.5-27-31.8-47.2
				C4.2,17.3,17.4,3.8,34.2,1C34.9,0.9,39.9,0.4,40.5,0.5z M47.1,52.3c-0.2-0.4-0.3-0.9-0.6-1.3c-2.9-3.7-5.9-7.4-10.3-9.5
				c-3.9-1.9-7.7-4-11.7-5.6c-2.9-1.2-6.1-1.7-9.2-2.5c-2.6-0.7-5.1-1.3-7.7-1.9c-1-0.2-2.1-0.2-3.3-0.2c-0.8,4.9-1.6,9.5-0.9,14.3
				c0.8,5.7,2.5,10.9,5.5,15.9c0.8,1.3,1.8,1.8,3.1,2.2c2.7,0.9,5.4,0.3,8,0c2.9-0.4,5.8-0.9,8.6-1.8C34.9,59.6,41.2,56.3,47.1,52.3
				z M5.2,28.5c1.1,0.3,2.1,0.7,3.2,0.9c1.4,0.3,2.9,0.4,4.4,0.7c6.8,1.6,13.5,3.4,19.9,6.4c6.9,3.2,13.2,7.2,17.1,14.3
				c2.3-1.7,4.6-3.3,6.8-5C48.8,30.3,38,17.6,25.4,6.4C16.5,10,7.7,19.8,5.2,28.5z M28,5.1c12.5,11.4,22.9,23.9,30.6,39.1
				c2.1-1.5,4.1-3,5.7-4.2c-1.5-5.8-3.1-11.1-4.2-16.5c-1.1-5.5-1.6-11.1-2.5-17C48.2,2.4,38.4,1.7,28,5.1z M48.2,54.9
				c-0.7,0.3-1.1,0.5-1.5,0.7C41.4,59,35.9,61.9,30,63.9c-5.2,1.7-10.6,3.4-16.3,2.3c-0.3-0.1-0.6,0.1-0.8,0.2
				c0,0.2-0.1,0.3-0.1,0.4c0.1,0.2,0.1,0.3,0.2,0.4c7,7.6,15.5,12,25.9,12.5c0.7,0,1.8-0.5,2.2-1.1c1.8-2.7,3.5-5.4,5-8.2
				C48.5,65.6,49.7,60.6,48.2,54.9z M50.8,53.1c2.6,10.1-1.5,18.5-7.4,26.7c6.7-0.4,12.5-2.2,17.9-5.6c1.3-0.9,1.8-1.7,1.6-3.2
				c-0.2-1.2-0.4-2.5-0.5-3.7c-0.1-6.6-2.3-12.7-4.8-19C55.4,49.9,53.3,51.4,50.8,53.1z M66.3,37.7c4.4-3,7.9-6.5,11.2-10.4
				c-0.4-0.9-0.8-1.8-1.2-2.6C73,18.2,67.9,13.1,62.1,8.7c-0.3-0.2-1,0-1.7,0C61.5,18.5,62.7,28.1,66.3,37.7z M79,50.1
				c1.4-6.3,1.5-12.5-0.5-19.2c-4.2,2.9-7.2,6.6-10.9,9.4C70,46.6,74.5,50.5,79,50.1z"/>
			<path class="st1" d="M82.8,42.8c0-1,0-2,0-3C82.8,40.8,82.8,41.8,82.8,42.8z"/>
			<path class="st2" d="M47.1,52.3c-5.9,4-12.1,7.2-18.8,9.5c-2.7,0.9-5.7,1.5-8.6,1.8c-2.6,0.3-5.4,0.9-8,0
				c-1.3-0.4-2.3-0.9-3.1-2.2c-2.9-4.9-4.7-10.2-5.5-15.9c-0.7-4.9,0.1-9.4,0.9-14.3c1.3,0.1,2.3,0,3.3,0.2c2.6,0.6,5.2,1.2,7.7,1.9
				c3.1,0.8,6.3,1.3,9.2,2.5c4,1.6,7.8,3.8,11.7,5.6c4.4,2.1,7.4,5.8,10.3,9.5C46.7,51.4,46.8,51.9,47.1,52.3z"/>
			<path class="st2" d="M5.2,28.5C7.7,19.8,16.5,10,25.4,6.4C38,17.6,48.8,30.3,56.6,45.8c-2.3,1.6-4.5,3.3-6.8,5
				c-3.9-7.1-10.2-11.1-17.1-14.3c-6.3-3-13.1-4.8-19.9-6.4c-1.4-0.3-2.9-0.4-4.4-0.7C7.3,29.2,6.3,28.8,5.2,28.5z"/>
			<path class="st2" d="M28,5.1c10.4-3.3,20.2-2.6,29.6,1.4c0.8,5.9,1.4,11.5,2.5,17c1.1,5.4,2.7,10.7,4.2,16.5
				c-1.6,1.2-3.6,2.7-5.7,4.2C50.9,28.9,40.5,16.4,28,5.1z"/>
			<path class="st2" d="M48.2,54.9c1.5,5.7,0.4,10.7-2.1,15.4c-1.5,2.8-3.2,5.5-5,8.2c-0.4,0.6-1.5,1.1-2.2,1.1
				C28.5,79.2,20,74.8,13,67.2c-0.1-0.1-0.2-0.3-0.2-0.4c0-0.1,0-0.2,0.1-0.4c0.2,0,0.6-0.2,0.8-0.2c5.7,1.1,11-0.6,16.3-2.3
				c5.9-2,11.5-4.8,16.7-8.2C47.1,55.4,47.5,55.2,48.2,54.9z"/>
			<path class="st2" d="M50.8,53.1c2.5-1.7,4.6-3.3,6.9-4.9c2.4,6.3,4.6,12.4,4.8,19c0,1.2,0.3,2.5,0.5,3.7c0.2,1.4-0.3,2.3-1.6,3.2
				c-5.3,3.5-11.2,5.2-17.9,5.6C49.3,71.6,53.4,63.2,50.8,53.1z"/>
			<path class="st3" d="M66.3,37.7c-3.6-9.7-4.8-19.2-5.9-29c0.2,0,1.5-0.1,1.7,0c5.8,4.4,10.9,9.4,14.2,16.1
				c0.4,0.8,0.7,1.6,1.2,2.6C74.2,31.2,70.7,34.7,66.3,37.7z"/>
			<path class="st4" d="M64.9,66.7C64.7,60.9,63,55.4,61,50c-0.4-1.1-0.8-2.1-1.3-3.4c1.9-1.5,3.7-3,5.7-4.5
				c3.2,4.8,6,10.1,12.8,10.8c-1.2,3.2-2.4,6.3-4.4,9.1c-0.7,1-1.3,2.1-1.9,3.1c-1.9,2-3.5,4.3-6.2,5.6
				C65.4,69.2,65.1,67.9,64.9,66.7z"/>
			<path class="st5" d="M79,50.1c-4.5,0.5-9-3.5-11.4-9.8c3.7-2.8,6.7-6.5,10.9-9.4C80.4,37.6,80.4,43.7,79,50.1z"/>
			<path class="st6" d="M64.9,66.7c0.2,1.3,0.5,2.5,0.8,4.1c2.7-1.3,4.3-3.6,6.2-5.6c0.4-0.1,0.9-0.1,1.1-0.3c0.7-0.6,1.3-1,1.9,0
				c-2.5,4-5.8,7.3-9.9,9.9c-1.5-1.2,0.1-1.7,0.2-2.4C65.1,70.4,65,68.5,64.9,66.7z"/>
		</g>
	</g>
</g>
</svg>
