<?xml version="1.0" encoding="utf-8"?>
<!-- Generator: Adobe Illustrator 24.0.1, SVG Export Plug-In . SVG Version: 6.00 Build 0)  -->
<svg version="1.1" id="Layer_1" xmlns="http://www.w3.org/2000/svg" xmlns:xlink="http://www.w3.org/1999/xlink" x="0px" y="0px"
	 viewBox="0 0 109.5 416.5" style="enable-background:new 0 0 109.5 416.5;" xml:space="preserve">
<style type="text/css">
	.st0{fill:#17A0E3;}
	.st1{fill:#FEFEFE;}
	.st2{fill:#25A5E5;}
	.st3{fill:#65C0EC;}
	.st4{fill:#26A6E5;}
	.st5{fill:#18A0E3;}
	.st6{fill:#F9FBFD;}
	.st7{fill:#F8FBFD;}
	.st8{fill:#F7FBFD;}
</style>
<g id="Wq5LLZ.tif">
	<g>
		<g>
			<path class="st0" d="M-1,3c0-0.3,0-0.7,0-1c1-1.3,2.4-1.5,4-1.5c34.3,0,68.7,0,103,0c3.1,0,3.9,0.7,3.9,3.7c0,9,0,18,0,27
				c0,0.5-0.1,1.1-0.2,1.8c-0.9,0-1.6,0-2.4,0c-35.2,0-70.4,0-105.5,0c-0.7,0-1.5,0-2.2-0.1c0-9,0-18,0-27C-0.5,4.9-0.8,3.9-1,3z"/>
			<path class="st1" d="M-0.5,32.9c0.7,0,1.5,0.1,2.2,0.1c35.2,0,70.4,0,105.5,0c0.7,0,1.5,0,2.4,0c0.1-0.7,0.2-1.2,0.2-1.8
				c0-9,0-18,0-27c0-3.1-0.7-3.7-3.9-3.7c-34.3,0-68.7,0-103,0C1.4,0.5,0,0.7-1,2c0-0.8,0-1.7,0-2.5c37.2,0,74.3,0,111.5,0
				c0,139.1,0,278.3,0,417.4c-0.7,0-1.3,0-2,0c0-0.2,0-0.3,0-0.5c1.5-0.8,1.4-2.1,1.4-3.5c0-5.3,0-10.6,0-15.9c0-0.6-0.1-1.3-0.2-2
				c-37,0-73.8,0-110.7,0c0-4.3,0-8.7,0-13c0.2,0,0.3-0.1,0.5-0.1c0.3,0,0.7,0.1,1,0.1c35.9,0,71.8,0,107.8,0c0.5,0,0.9-0.1,1.4-0.1
				c0-111.9,0-223.5,0-335.4c-0.9,0-1.7,0-2.4,0c-35.2,0-70.3,0-105.5,0c-0.7,0-1.5,0-2.2,0.1c-0.2,0-0.3-0.1-0.5-0.1
				c0-4.5,0-9,0-13.5C-0.8,32.9-0.7,32.9-0.5,32.9z"/>
			<path class="st0" d="M-1,394.9c36.8,0,73.7,0,110.7,0c0.1,0.8,0.2,1.4,0.2,2c0,5.3,0,10.6,0,15.9c0,1.3,0.1,2.7-1.4,3.5
				c-0.9,0-1.8,0-2.7,0c-34.2,0-68.3,0-102.5,0c-1.4,0-2.8,0-4.2,0C-1,409.2-1,402.1-1,394.9z"/>
			<path class="st2" d="M-1,46.4c0.2,0,0.3,0.1,0.5,0.1c0,111.8,0,223.6,0,335.4c-0.2,0-0.3,0.1-0.5,0.1C-1,270.1-1,158.3-1,46.4z"
				/>
			<path class="st3" d="M-1,416.4c1.4,0,2.8,0,4.2,0c34.2,0,68.3,0,102.5,0c0.9,0,1.8,0,2.7,0c0,0.2,0,0.3,0,0.5
				c-35.8,0-71.7,0-107.5,0C0.3,416.9-0.5,417.4-1,416.4z"/>
			<path class="st4" d="M-0.5,32.9c-0.2,0-0.3,0.1-0.5,0.1c0-10,0-20,0-30c0.2,0.9,0.5,1.9,0.5,2.8C-0.5,14.8-0.5,23.9-0.5,32.9z"/>
			<path class="st5" d="M-0.5,381.9c0-111.8,0-223.6,0-335.4c0.7,0,1.5-0.1,2.2-0.1c35.2,0,70.3,0,105.5,0c0.7,0,1.5,0,2.4,0
				c0,111.8,0,223.5,0,335.4c-0.5,0-1,0.1-1.4,0.1c-35.9,0-71.8,0-107.8,0C0.2,381.9-0.2,381.9-0.5,381.9z M66.3,212.4
				c5-4.5,6.8-14.6,3.7-21c-1.3-2.7-3.5-4.4-6.5-5c-7-1.4-12.3,2.2-13.4,8.5c-0.1,0.7-0.2,1.3-0.3,2c-0.3,1.7-0.5,3.5-1.1,5.1
				c-0.7,2.1-2.4,3.1-4.4,3c-2.2-0.1-3.9-1.2-4.4-3.3c-0.4-1.3-0.6-2.8-0.3-4.2c0.5-2.5,1.4-4.9,2.3-7.5c-1.3-0.8-2.7-1.8-4.2-2.7
				c-3.6,4.2-4.6,10.7-3.6,15.3c0.7,3.3,2.6,5.8,5.6,7.2c6.4,3,13.3-0.3,15-7.2c0.2-1,0.3-2,0.5-2.9c0.3-1.6,0.5-3.3,1-4.9
				c0.6-1.9,2-2.8,3.9-3c2.5-0.2,4.4,1,5.1,3.5c1.2,4.2,0.4,8.1-1.8,11.7c-0.4,0.7-0.8,1.4-1.3,2.1C63.6,210.2,65,211.3,66.3,212.4z
				 M66.2,242.9c5-4.7,6.8-14.3,3.9-20.6c-0.7-1.4-1.8-2.9-3.1-3.8c-6.2-4.5-14.9-1.2-16.8,6.2c-0.2,0.9-0.3,1.8-0.5,2.7
				c-0.3,1.7-0.6,3.5-1.1,5.1c-0.6,1.9-2.1,2.9-4.2,3c-2.1,0-4-1.1-4.6-3.2c-0.4-1.4-0.6-3-0.3-4.4c0.5-2.5,1.5-4.9,2.3-7.5
				c-1.3-0.8-2.7-1.8-4.3-2.8c-3.1,4.2-4.2,8.7-3.7,13.7c0.5,5.6,4.4,9.4,9.8,9.8c5.6,0.4,9.7-2.7,11.1-8.2c0.2-0.9,0.3-1.8,0.5-2.7
				c0.3-1.5,0.4-3.1,0.9-4.6c0.7-2.3,2.1-3.3,4.4-3.4c2.3,0,4.2,1,4.6,3.3c0.4,2.1,0.7,4.3,0.3,6.4c-0.5,2.6-1.8,5.1-2.9,7.9
				C63.5,240.6,64.8,241.7,66.2,242.9z M60.7,250.1c0.7,0.4,1.3,0.8,1.8,1.2c2.6,1.8,3.7,4.5,3.1,7.3c-0.6,2.8-2.9,5.2-5.8,5.4
				c-4.8,0.2-9.6,0.3-14.4,0c-3.1-0.2-5.4-2.7-5.9-5.9c-0.5-2.8,0.8-5.5,3.5-7.1c0.6-0.3,1.1-0.6,1.7-0.9c0-1.9,0-3.7,0-5.5
				c-6.1,0.5-10.6,5.5-11,11.9c-0.3,6.3,4,12.2,9.9,13.1c5.6,0.9,11.2,0.6,16.9,0.2c8.5-0.7,14.2-11,9.2-19.5c-2-3.3-5-5-8.9-5.8
				c0,0.8,0,1.2,0,1.6C60.7,247.3,60.7,248.6,60.7,250.1z M43.5,176.7c-0.9-0.4-1.6-0.7-2.2-1.1c-1.2-0.8-2-1.9-2.1-3.5
				c-0.2-3,1.5-5.2,4.4-5.6c3.2-0.4,5.3,1.2,5.8,4.4c0.1,0.9,0.3,1.9,0.4,2.8c0.9,0,1.6,0,2.3,0c0.7,0,1.4-0.1,2.1-0.1
				c0.7-5.5,1.7-7,4.8-7.5c3-0.4,5.6,0.7,6.4,3.1c0.4,1.1,0.4,2.4,0.3,3.6c-0.3,2.3-2.4,3-3.8,4.1c0,1.7,0,3.3,0,4.8
				c4.5-0.3,8.2-3.3,9.3-7.4c1.1-4.5-0.7-9.3-4.5-11.8c-2.2-1.4-4.6-1.9-7.1-1.8c-3.1,0.1-5.6,1.6-7.6,4c-4.2-4.1-9.2-4.7-13.6-1.9
				c-3.9,2.5-5.6,7.4-4.2,11.8c1.3,4,5.5,7.1,9.4,6.7C43.5,180,43.5,178.4,43.5,176.7z"/>
			<path class="st6" d="M66.3,212.4c-1.3-1.1-2.6-2.2-4.1-3.4c0.5-0.8,0.9-1.4,1.3-2.1c2.1-3.7,2.9-7.6,1.8-11.7
				c-0.7-2.5-2.5-3.6-5.1-3.5c-1.9,0.1-3.3,1.1-3.9,3c-0.5,1.6-0.7,3.2-1,4.9c-0.2,1-0.3,2-0.5,2.9c-1.7,6.9-8.6,10.1-15,7.2
				c-3.1-1.4-4.9-3.9-5.6-7.2c-1-4.6,0-11.1,3.6-15.3c1.4,0.9,2.9,1.9,4.2,2.7c-0.8,2.7-1.8,5.1-2.3,7.5c-0.3,1.3-0.1,2.8,0.3,4.2
				c0.6,2.1,2.3,3.3,4.4,3.3c2,0.1,3.7-1,4.4-3c0.5-1.6,0.7-3.4,1.1-5.1c0.1-0.7,0.2-1.3,0.3-2c1.1-6.3,6.5-9.9,13.4-8.5
				c2.9,0.6,5.2,2.2,6.5,5C73.1,197.8,71.3,207.9,66.3,212.4z"/>
			<path class="st6" d="M66.2,242.9c-1.4-1.2-2.7-2.3-3.7-3.2c1.1-2.8,2.4-5.3,2.9-7.9c0.4-2,0.1-4.3-0.3-6.4
				c-0.5-2.3-2.3-3.4-4.6-3.3c-2.3,0-3.7,1-4.4,3.4c-0.4,1.5-0.6,3.1-0.9,4.6c-0.2,0.9-0.3,1.8-0.5,2.7c-1.4,5.5-5.6,8.6-11.1,8.2
				c-5.4-0.4-9.3-4.2-9.8-9.8c-0.5-5,0.6-9.5,3.7-13.7c1.6,1,3,2,4.3,2.8c-0.8,2.6-1.8,5-2.3,7.5c-0.3,1.4-0.1,3,0.3,4.4
				c0.6,2.1,2.4,3.2,4.6,3.2c2.1,0,3.5-1.1,4.2-3c0.5-1.6,0.8-3.4,1.1-5.1c0.2-0.9,0.3-1.8,0.5-2.7c1.9-7.4,10.6-10.7,16.8-6.2
				c1.3,0.9,2.4,2.4,3.1,3.8C73,228.6,71.2,238.2,66.2,242.9z"/>
			<path class="st7" d="M60.7,250.1c0-1.5,0-2.8,0-4.2c0-0.4,0-0.8,0-1.6c3.9,0.8,6.9,2.5,8.9,5.8c5.1,8.5-0.7,18.8-9.2,19.5
				c-5.6,0.5-11.3,0.7-16.9-0.2c-5.9-0.9-10.2-6.8-9.9-13.1c0.3-6.4,4.9-11.4,11-11.9c0,1.8,0,3.6,0,5.5c-0.5,0.3-1.1,0.6-1.7,0.9
				c-2.7,1.6-4,4.3-3.5,7.1c0.6,3.2,2.8,5.7,5.9,5.9c4.8,0.3,9.6,0.2,14.4,0c2.9-0.1,5.2-2.6,5.8-5.4c0.6-2.8-0.5-5.6-3.1-7.3
				C62,250.9,61.4,250.6,60.7,250.1z"/>
			<path class="st8" d="M43.5,176.7c0,1.7,0,3.2,0,4.8c-3.9,0.3-8.1-2.7-9.4-6.7c-1.4-4.4,0.4-9.3,4.2-11.8
				c4.4-2.8,9.5-2.2,13.6,1.9c1.9-2.4,4.4-3.9,7.6-4c2.5-0.1,5,0.4,7.1,1.8c3.9,2.5,5.7,7.2,4.5,11.8c-1.1,4.2-4.7,7.2-9.3,7.4
				c0-1.6,0-3.1,0-4.8c1.4-1.1,3.6-1.8,3.8-4.1c0.1-1.2,0.1-2.5-0.3-3.6c-0.8-2.4-3.4-3.5-6.4-3.1c-3.1,0.4-4.1,2-4.8,7.5
				c-0.7,0-1.4,0.1-2.1,0.1c-0.7,0-1.3,0-2.3,0c-0.1-1-0.2-1.9-0.4-2.8c-0.5-3.1-2.6-4.7-5.8-4.4c-2.9,0.3-4.7,2.6-4.4,5.6
				c0.1,1.5,0.9,2.7,2.1,3.5C42,176.1,42.7,176.3,43.5,176.7z"/>
		</g>
	</g>
</g>
</svg>
