<?xml version="1.0" encoding="utf-8"?>
<!-- Generator: Adobe Illustrator 24.0.1, SVG Export Plug-In . SVG Version: 6.00 Build 0)  -->
<svg version="1.1" id="Layer_1" xmlns="http://www.w3.org/2000/svg" xmlns:xlink="http://www.w3.org/1999/xlink" x="0px" y="0px"
	 viewBox="0 0 57.5 421.5" style="enable-background:new 0 0 57.5 421.5;" xml:space="preserve">
<style type="text/css">
	.st0{fill:#BE0000;}
	.st1{fill:#E7A4A4;}
	.st2{fill:#F6E0E0;}
	.st3{fill:#CC3535;}
	.st4{fill:#D45858;}
	.st5{fill:#C1C1C1;}
	.st6{fill:#BE0101;}
	.st7{fill:#C1B4B4;}
	.st8{fill:#C1B3B3;}
	.st9{fill:#C1BBBB;}
	.st10{fill:#C1BEBE;}
	.st11{fill:#C1BCBC;}
	.st12{fill:#C1BFBF;}
	.st13{fill:#BE0303;}
	.st14{fill:#BE0403;}
</style>
<g id="W8kGgR.tif">
	<g>
		<g>
			<path class="st0" d="M57.5,419.3c0,0.7,0,1.3,0,2c-0.5,0-1,0-1.5,0c-0.6-0.2-1.1-0.5-1.7-0.5c-5.1,0-10.1,0-15.2,0
				c-13,0-26.1,0-39.1,0c0-0.3,0-0.7,0-1c0.2-0.7,0.5-1.5,0.5-2.2c0-8.9,0-17.8,0-26.7c18.8,0,37.6,0,56.4,0c0,8.7,0,17.5,0.1,26.2
				C57,417.8,57.3,418.6,57.5,419.3z"/>
			<path class="st0" d="M56,0c0.5,0,1,0,1.5,0c0,0.7,0,1.3,0,2C57.3,2.7,57,3.5,57,4.2c0,8.1,0,16.2-0.1,24.2c-18.8,0-37.6,0-56.4,0
				c0-8.2,0-16.5,0-24.7C0.5,3,0.2,2.2,0,1.5C0,1.3,0,1.2,0,1c1.9-0.2,3.8-0.5,5.7-0.5c16.1,0,32.2,0,48.3,0C54.7,0.5,55.3,0.2,56,0
				z"/>
			<path class="st1" d="M0,1.5C0.2,2.2,0.5,3,0.5,3.7c0,8.2,0,16.5,0,24.7c0,4.4,0,8.7,0,13.1c0,3.6,0,7.3,0,10.9
				c0,4.4,0,8.7,0,13.1c0,0.7,0,1.5,0,2.2c0,94.4,0,188.9,0,283.3c0,0.7,0,1.5,0,2.2c0,4.5,0,9,0,13.6c0,3.5,0,7,0,10.4
				c0,4.5,0,9,0,13.6c0,8.9,0,17.8,0,26.7c0,0.7-0.3,1.5-0.5,2.2C0,280.4,0,140.9,0,1.5z"/>
			<path class="st2" d="M57,28.4c0-8.1,0-16.2,0.1-24.2c0-0.7,0.3-1.5,0.5-2.2c0,139.1,0,278.2,0,417.3c-0.2-0.7-0.5-1.5-0.5-2.2
				c0-8.7,0-17.5-0.1-26.2c0-1,0-2,0-3c0-2.5,0-5,0-7.5c0-1,0-2,0-3c0-3.5,0-6.9,0-10.4c0-1,0-2,0-3c0-2.5,0-5,0-7.5c0-1,0-2,0-3
				c0-0.7,0-1.5,0-2.2c0-94.4,0-188.9,0-283.3c0-0.7,0-1.5,0-2.2c0-0.8,0-1.7,0-2.5c0-2.7,0-5.3,0-8c0-0.9,0-1.7,0-2.6
				c0-3.6,0-7.3,0-10.9c0-0.9,0-1.7,0-2.6c0-2.7,0-5.3,0-8C57,30.2,57,29.3,57,28.4z"/>
			<path class="st3" d="M56,0c-0.7,0.2-1.3,0.5-2,0.5c-16.1,0-32.2,0-48.3,0C3.8,0.5,1.9,0.8,0,1c0-0.2,0-0.5,0-1
				C18.7,0,37.3,0,56,0z"/>
			<path class="st4" d="M0,420.8c13,0,26.1,0,39.1,0c5.1,0,10.1,0,15.2,0c0.6,0,1.2,0.3,1.7,0.5c-18.1,0-36.2,0-54.2-0.1
				C1.2,421.2,0.3,422,0,420.8z"/>
			<path class="st5" d="M57,387.8c0,1,0,2,0,3c-18.8,0-37.6,0-56.4,0c0-4.5,0-9,0-13.6c18.8,0,37.6,0,56.4,0c0,1,0,2,0,3
				c-0.3,0.2-0.8,0.5-0.9,0.7c-0.1,2-0.1,4.1,0,6.1C56.1,387.4,56.7,387.6,57,387.8z"/>
			<path class="st5" d="M57,28.4c0,0.9,0,1.7,0,2.6c-0.3,0.3-0.9,0.6-0.9,0.9C56,34,56,36,56.1,38c0,0.3,0.6,0.6,0.9,0.9
				c0,0.9,0,1.7,0,2.6c-18.8,0-37.6,0-56.4,0c0-4.4,0-8.7,0-13.1C19.3,28.5,38.1,28.4,57,28.4z"/>
			<path class="st6" d="M57,65.5c0,0.7,0,1.5,0,2.2c0,94.4,0,188.9,0,283.3c0,0.7,0,1.5,0,2.2c-18.8,0-37.6,0-56.4,0
				c0-0.7,0-1.5,0-2.2c0-94.4,0-188.9,0-283.3c0-0.7,0-1.5,0-2.2C19.3,65.5,38.1,65.5,57,65.5z M7,303c0.1,7.9-0.1,15.5,0.1,23.1
				c12.6,0,24.9,0,37.3,0c0-7.8,0-15.4,0-23c-1.8,0-3.5,0-5.5,0c0,5.9,0,11.6,0,17.2c-3.7,0-7.2,0-10.9,0c0-5,0-9.8,0-14.7
				c-1.8,0-3.3,0-5,0c0,5,0,9.8,0,14.7c-3.5,0-6.9,0-10.5,0c0-5.8,0-11.5,0-17.3C10.5,303,8.9,303,7,303z M55.1,266.7
				c-4.4,0-8.7,0-13.1,0c0.7-1,1.2-1.8,1.6-2.6c2.8-5.1,0-11.5-5.8-12.2c-4.3-0.5-8.6-0.5-12.9-0.1c-5.2,0.5-8.1,4.6-7.2,9.7
				c0.2,1.6,1.3,3,2,4.5c0.1,0.2,0.2,0.4,0.3,0.7c-0.8,0.1-1.5,0.2-2,0.3c0,1.7,0,3.3,0,4.8c12.5,0,24.8,0,37.3,0
				C55.1,270.3,55.1,268.7,55.1,266.7z M33.2,204.7c-2.9-0.4-5.5-0.3-8.1,0.4c-4.1,1.1-7.2,4.9-7.5,9c-0.3,4.9,1.7,8.5,6.1,10.4
				c4.5,1.9,9.1,2,13.6,0.4c4.8-1.6,7.3-5.1,7.4-10.1c0.1-3.8-1.3-7.1-4.4-9.6c-1.2,1.3-2.2,2.5-3.2,3.6c2.7,3.8,3.1,6.5,1.5,9.1
				c-1.2,1.9-3,2.7-5.5,2.2C33.2,215,33.2,209.9,33.2,204.7z M21.2,103.6c-0.4,0.4-0.7,0.6-1,0.9c-2.8,3.6-3.3,7.8-2.5,12.1
				c0.8,4.4,4,6.9,8,6.7c4-0.1,6.6-2.6,7.4-7c0.2-0.9,0.2-1.8,0.3-2.7c0.1-1.1,0.2-2.1,0.4-3.2c0.1-1.1,0.6-1.9,1.8-2
				c1.3-0.2,2.4,0.1,2.9,1.3c0.4,1,0.8,2,0.9,3.1c0.3,3.3-1,6.1-3,8.4c1.2,1.3,2.3,2.4,3.5,3.6c5.3-4.6,5.7-12.8,3.3-17.4
				c-1.8-3.5-5-5-9-4.2c-3.5,0.7-5.4,3.1-5.8,7.1c-0.2,1.8-0.3,3.7-0.6,5.5c-0.2,1.2-0.8,2.2-2.2,2.3c-1.2,0.1-2.4-0.7-2.7-2.1
				c-0.3-1.3-0.5-2.7-0.2-3.9c0.4-1.8,1.3-3.5,2-5.5C23.7,105.6,22.5,104.6,21.2,103.6z M20.9,154.3c-0.3,0.4-0.4,0.8-0.7,1.2
				c-2.8,3.6-3.3,7.8-2.5,12.1c0.8,4.4,4,6.9,8,6.7c4-0.1,6.6-2.6,7.4-7.1c0.2-0.9,0.2-1.8,0.3-2.7c0.1-1.1,0.2-2.1,0.4-3.2
				c0.1-1.1,0.6-1.9,1.8-2c1.2-0.1,2.3,0,2.8,1.1c0.5,1,0.9,2.2,1,3.3c0.3,3.3-1,6.1-3,8.3c1.2,1.3,2.3,2.4,3.5,3.6
				c5.3-4.6,5.7-12.8,3.3-17.4c-1.8-3.5-5-5-9-4.2c-3.5,0.7-5.4,3.1-5.8,7.1c-0.2,1.8-0.3,3.7-0.6,5.5c-0.2,1.1-0.8,2.2-2.2,2.3
				c-1.2,0.1-2.4-0.7-2.7-2.1c-0.3-1.3-0.5-2.7-0.2-3.9c0.4-1.8,1.3-3.5,2-5.5C23.7,156.6,22.5,155.6,20.9,154.3z M39.6,201.3
				c5.5-4.3,6.1-13,3.6-17.6c-1.9-3.5-5.1-5-9-4.1c-3.5,0.8-5.4,3.1-5.7,7.2c-0.1,1.7-0.3,3.3-0.5,5c-0.2,1.7-1.2,2.7-2.4,2.7
				c-1.3,0-2.4-0.8-2.8-2.4c-0.2-1.2-0.4-2.5-0.1-3.7c0.4-1.8,1.3-3.5,2-5.4c-1.1-0.9-2.3-1.9-3.5-2.8c-4.3,3.3-4.8,12.4-2.2,16.2
				c1.7,2.5,4.2,3.5,7.1,3.4c3-0.1,5.3-1.6,6.4-4.4c0.6-1.5,0.7-3.2,1-4.8c0.2-1.3,0.2-2.7,0.5-4c0.3-1.4,1.2-1.9,2.5-1.8
				c1.3,0.1,2.1,0.9,2.5,2.1c1.1,3.3,0.5,6.4-1.4,9.3c-0.4,0.6-0.9,1.2-1.3,1.7C37.5,199,38.6,200.1,39.6,201.3z M30.8,291.2
				c4.5,2.9,9,5.8,13.6,8.8c0-2.3,0-4.3,0-6.3c-2.8-1.8-5.7-3.5-8.7-5.4c3.1-1.9,5.9-3.7,8.6-5.4c0-2.2,0-4,0-6.3
				c-4.7,3.1-9.1,6-13.5,8.9c-4.4-2.9-8.6-5.7-13.1-8.7c0,2.4,0,4.3,0,6.3c2.7,1.7,5.5,3.3,8.4,5.1c-3,1.8-5.7,3.4-8.4,5
				c0,2.2,0,4,0,6.3C22.2,296.7,26.5,293.9,30.8,291.2z M7.1,135.4c1,0,1.9,0,2.7,0c7.1,0,14.1,0,21.2,0c1.2,0,2.3,0.1,3.4,0.4
				c4.3,1.1,5.8,5.7,3.3,9.3c-0.4,0.5-0.8,1-1.2,1.6c1.1,1.5,2.2,2.9,3.3,4.3c4.8-2.9,5.5-9,4.4-12.8c-1.5-5-5.6-8.2-10.9-8.3
				c-8.5-0.1-17,0-25.5,0c-0.2,0-0.4,0.1-0.8,0.2C7.1,131.8,7.1,133.5,7.1,135.4z M17.8,239.5c0,1.8,0,3.2,0,4.7
				c2.6,0.6,24.8,0.5,26.5-0.1c0-1.5,0-3.1,0-4.7c-1.1,0-2,0-2.9,0c-4.2,0-8.5,0.1-12.7,0c-4.9-0.1-6.9-3.5-4.7-8
				c0.1-0.1,0-0.3,0.1-0.7c-1.4-1.1-2.8-2.3-4.5-3.6c-3.1,4.3-2.5,8.3,0.6,12.2C19.2,239.4,18.5,239.4,17.8,239.5z"/>
			<path class="st5" d="M0.5,353.3c18.8,0,37.6,0,56.4,0c0,1,0,2,0,3c-0.3,0.2-0.8,0.5-0.9,0.7c-0.1,2-0.1,4.1,0,6.1
				c0,0.2,0.6,0.5,0.9,0.7c0,1,0,2,0,3c-18.8,0-37.6,0-56.4,0C0.5,362.3,0.5,357.8,0.5,353.3z"/>
			<path class="st5" d="M57,65.5c-18.8,0-37.6,0-56.4,0c0-4.4,0-8.7,0-13.1c18.8,0,37.6,0,56.4,0c0,0.9,0,1.7,0,2.6
				c-0.3,0.3-0.9,0.6-0.9,0.9C56,58,56,60,56.1,62c0,0.3,0.6,0.6,0.9,0.9C57,63.8,57,64.7,57,65.5z"/>
			<path class="st0" d="M57,52.4c-18.8,0-37.6,0-56.4,0c0-3.6,0-7.3,0-10.9c18.8,0,37.6,0,56.4,0C57,45.2,57,48.8,57,52.4z"/>
			<path class="st0" d="M0.5,366.9c18.8,0,37.6,0,56.4,0c0,3.5,0,6.9,0,10.4c-18.8,0-37.6,0-56.4,0C0.5,373.8,0.5,370.3,0.5,366.9z"
				/>
			<path class="st7" d="M57,39c-0.3-0.3-0.9-0.6-0.9-0.9c-0.1-2-0.1-4.1,0-6.1c0-0.3,0.6-0.6,0.9-0.9C57,33.7,57,36.3,57,39z"/>
			<path class="st7" d="M57,63c-0.3-0.3-0.9-0.6-0.9-0.9c-0.1-2-0.1-4.1,0-6.1c0-0.3,0.6-0.6,0.9-0.9C57,57.6,57,60.3,57,63z"/>
			<path class="st8" d="M57,363.8c-0.3-0.2-0.8-0.5-0.9-0.7c-0.1-2-0.1-4.1,0-6.1c0-0.2,0.6-0.5,0.9-0.7C57,358.8,57,361.3,57,363.8
				z"/>
			<path class="st8" d="M57,387.8c-0.3-0.2-0.8-0.5-0.9-0.7c-0.1-2-0.1-4.1,0-6.1c0-0.2,0.6-0.5,0.9-0.7C57,382.8,57,385.3,57,387.8
				z"/>
			<path class="st9" d="M7,303c1.9,0,3.5,0,5.4,0c0,5.8,0,11.5,0,17.3c3.6,0,7,0,10.5,0c0-4.9,0-9.7,0-14.7c1.7,0,3.2,0,5,0
				c0,4.9,0,9.7,0,14.7c3.7,0,7.2,0,10.9,0c0-5.7,0-11.4,0-17.2c1.9,0,3.6,0,5.5,0c0,7.6,0,15.2,0,23c-12.3,0-24.6,0-37.3,0
				C6.9,318.5,7,310.9,7,303z"/>
			<path class="st10" d="M55.1,266.7c0,2,0,3.5,0,5.2c-12.5,0-24.7,0-37.3,0c0-1.6,0-3.1,0-4.8c0.6-0.1,1.3-0.2,2-0.3
				c-0.1-0.2-0.2-0.5-0.3-0.7c-0.7-1.5-1.7-2.9-2-4.5c-0.8-5.1,2.1-9.2,7.2-9.7c4.3-0.4,8.7-0.4,12.9,0.1c5.8,0.7,8.6,7.1,5.8,12.2
				c-0.4,0.8-1,1.5-1.6,2.6C46.4,266.7,50.6,266.7,55.1,266.7z M31.1,256.6c0,0.1,0,0.2,0,0.3c-1.3,0-2.7,0-4,0
				c-0.3,0-0.6,0.2-1,0.3c-2.4,0.8-3.2,2.1-3.2,4.7c0,2.2,1.2,3.9,3.3,4.4c3.1,0.8,6.3,0.8,9.4,0c2.3-0.6,3.4-2.1,3.4-4.6
				c0-2.6-0.9-4-3.3-4.6C34.3,256.8,32.7,256.8,31.1,256.6z"/>
			<path class="st11" d="M33.2,204.7c0,5.2,0,10.3,0,15.4c2.5,0.5,4.3-0.3,5.5-2.2c1.6-2.6,1.2-5.3-1.5-9.1c1-1.1,2-2.3,3.2-3.6
				c3.1,2.5,4.5,5.8,4.4,9.6c-0.1,5-2.6,8.5-7.4,10.1c-4.6,1.5-9.2,1.4-13.6-0.4c-4.4-1.8-6.4-5.5-6.1-10.4c0.3-4.1,3.4-7.9,7.5-9
				C27.6,204.4,30.3,204.3,33.2,204.7z M28.6,220.3c0-3.2,0-6.3,0-9.4c0-0.3-0.1-0.6-0.2-0.9c-3.7,0.1-6,2.1-5.9,5.3
				C22.6,218.4,24.9,220.3,28.6,220.3z"/>
			<path class="st11" d="M21.2,103.6c1.3,1,2.5,2,3.5,2.9c-0.7,1.9-1.6,3.6-2,5.5c-0.3,1.2-0.1,2.6,0.2,3.9c0.3,1.4,1.5,2.2,2.7,2.1
				c1.4-0.1,2-1.2,2.2-2.3c0.3-1.8,0.4-3.6,0.6-5.5c0.3-4,2.3-6.4,5.8-7.1c4-0.8,7.2,0.7,9,4.2c2.4,4.6,1.9,12.8-3.3,17.4
				c-1.1-1.2-2.2-2.3-3.5-3.6c2-2.2,3.3-5,3-8.4c-0.1-1-0.4-2.1-0.9-3.1c-0.5-1.2-1.7-1.5-2.9-1.3c-1.2,0.2-1.7,1-1.8,2
				c-0.1,1.1-0.3,2.1-0.4,3.2c-0.1,0.9-0.1,1.8-0.3,2.7c-0.8,4.5-3.4,6.9-7.4,7c-4,0.1-7.2-2.4-8-6.7c-0.8-4.3-0.3-8.5,2.5-12.1
				C20.5,104.2,20.9,103.9,21.2,103.6z"/>
			<path class="st11" d="M20.9,154.3c1.5,1.3,2.8,2.3,3.8,3.2c-0.7,1.9-1.6,3.6-2,5.5c-0.3,1.2-0.1,2.6,0.2,3.9
				c0.3,1.4,1.5,2.2,2.7,2.1c1.4-0.1,2-1.2,2.2-2.3c0.3-1.8,0.4-3.6,0.6-5.5c0.3-4,2.2-6.4,5.8-7.1c4-0.8,7.2,0.6,9,4.2
				c2.4,4.6,2,12.8-3.3,17.4c-1.1-1.2-2.2-2.3-3.5-3.6c2-2.2,3.3-5,3-8.3c-0.1-1.1-0.5-2.3-1-3.3c-0.5-1.1-1.7-1.3-2.8-1.1
				c-1.2,0.2-1.7,0.9-1.8,2c-0.1,1.1-0.3,2.1-0.4,3.2c-0.1,0.9-0.1,1.8-0.3,2.7c-0.8,4.5-3.4,6.9-7.4,7.1c-4,0.1-7.2-2.4-8-6.7
				c-0.8-4.3-0.3-8.5,2.5-12.1C20.5,155.1,20.7,154.7,20.9,154.3z"/>
			<path class="st11" d="M39.6,201.3c-1-1.1-2.1-2.3-3.3-3.6c0.4-0.5,0.9-1.1,1.3-1.7c1.9-2.9,2.5-5.9,1.4-9.3
				c-0.4-1.2-1.2-2-2.5-2.1c-1.4-0.1-2.2,0.4-2.5,1.8c-0.3,1.3-0.3,2.6-0.5,4c-0.3,1.6-0.4,3.3-1,4.8c-1.1,2.8-3.4,4.3-6.4,4.4
				c-2.9,0.1-5.3-0.9-7.1-3.4c-2.6-3.8-2.1-12.9,2.2-16.2c1.2,1,2.4,1.9,3.5,2.8c-0.7,1.9-1.6,3.6-2,5.4c-0.3,1.2-0.1,2.5,0.1,3.7
				c0.3,1.6,1.4,2.4,2.8,2.4c1.2,0,2.2-1.1,2.4-2.7c0.2-1.6,0.4-3.3,0.5-5c0.3-4.1,2.2-6.4,5.7-7.2c4-0.8,7.1,0.6,9,4.1
				C45.8,188.3,45.1,197,39.6,201.3z"/>
			<path class="st9" d="M30.8,291.2c-4.3,2.8-8.5,5.5-13,8.4c0-2.3,0-4.2,0-6.3c2.6-1.6,5.4-3.2,8.4-5c-2.9-1.8-5.7-3.5-8.4-5.1
				c0-2,0-3.9,0-6.3c4.5,3,8.7,5.8,13.1,8.7c4.4-2.9,8.8-5.8,13.5-8.9c0,2.3,0,4.1,0,6.3c-2.7,1.7-5.5,3.5-8.6,5.4
				c3,1.9,5.8,3.6,8.7,5.4c0,2,0,4,0,6.3C39.7,296.9,35.3,294.1,30.8,291.2z"/>
			<path class="st12" d="M7.1,135.4c0-2,0-3.6,0-5.3c0.3-0.1,0.5-0.2,0.8-0.2c8.5,0,17-0.1,25.5,0c5.3,0,9.4,3.2,10.9,8.3
				c1.1,3.8,0.3,9.8-4.4,12.8c-1.1-1.4-2.1-2.8-3.3-4.3c0.4-0.6,0.8-1.1,1.2-1.6c2.6-3.6,1-8.1-3.3-9.3c-1.1-0.3-2.3-0.4-3.4-0.4
				c-7.1,0-14.1,0-21.2,0C9,135.4,8.1,135.4,7.1,135.4z"/>
			<path class="st10" d="M17.8,239.5c0.7-0.1,1.4-0.2,2.3-0.3c-3.1-3.9-3.7-7.8-0.6-12.2c1.7,1.3,3.1,2.5,4.5,3.6
				c0,0.4,0,0.6-0.1,0.7c-2.2,4.4-0.2,7.9,4.7,8c4.2,0.1,8.5,0,12.7,0c0.9,0,1.8,0,2.9,0c0,1.7,0,3.2,0,4.7
				c-1.7,0.5-23.9,0.6-26.5,0.1C17.8,242.8,17.8,241.3,17.8,239.5z"/>
			<path class="st13" d="M31.1,256.6c1.6,0.2,3.2,0.2,4.7,0.6c2.4,0.6,3.3,2,3.3,4.6c0,2.4-1.1,4-3.4,4.6c-3.1,0.8-6.3,0.8-9.4,0
				c-2.1-0.6-3.3-2.2-3.3-4.4c0-2.6,0.8-3.9,3.2-4.7c0.3-0.1,0.6-0.3,1-0.3c1.3,0,2.7,0,4,0C31.1,256.8,31.1,256.7,31.1,256.6z"/>
			<path class="st14" d="M28.6,220.3c-3.8,0.1-6-1.9-6.1-5c-0.1-3.2,2.2-5.2,5.9-5.3c0.1,0.3,0.2,0.6,0.2,0.9
				C28.6,214,28.6,217.1,28.6,220.3z"/>
		</g>
	</g>
</g>
</svg>
