<?xml version="1.0" encoding="utf-8"?>
<!-- Generator: Adobe Illustrator 24.0.1, SVG Export Plug-In . SVG Version: 6.00 Build 0)  -->
<svg version="1.1" id="Layer_1" xmlns="http://www.w3.org/2000/svg" xmlns:xlink="http://www.w3.org/1999/xlink" x="0px" y="0px"
	 viewBox="0 0 71.5 449.5" style="enable-background:new 0 0 71.5 449.5;" xml:space="preserve">
<style type="text/css">
	.st0{fill:#E54C18;}
	.st1{fill:#E54D19;}
	.st2{fill:#FEFEFE;}
	.st3{fill:#FEF9F7;}
	.st4{fill:#F1A084;}
	.st5{fill:#FDF6F4;}
	.st6{fill:#FDF7F6;}
	.st7{fill:#FDF9F9;}
	.st8{fill:#FDF5F3;}
	.st9{fill:#FEFCFC;}
</style>
<g id="Adzj5y.tif">
	<g>
		<g>
			<path class="st0" d="M-0.5,380.8c0-103.9,0-207.8,0-311.7c12.2,0,24.3,0,36.5,0c11.7,0,23.3,0,35,0c0,0.7,0,1.3,0,2
				c0,102.5,0,205,0,307.6c0,0.7,0,1.3,0,2c-0.9,0-1.8,0-2.7,0C45.4,380.8,22.4,380.8-0.5,380.8z M32.5,213.3c0-0.1,0.1-0.3,0.1-0.4
				c7.1,0,14.3,0,21.5,0c0-2,0-3.8,0-5.6c-12.4,0-24.6,0-36.9,0c0,1.8,0,3.4,0,5.2c7.8,3.3,15.7,6.6,23.9,10.1
				c-8.3,3.6-16.1,7-23.8,10.3c0,2,0,3.6,0,5.3c12.4,0,24.6,0,36.9,0c0-1.9,0-3.7,0-5.7c-7.3,0-14.3,0-21.4,0c0-0.1,0-0.3-0.1-0.4
				c5.4-2.3,10.9-4.7,16.4-7c0-0.8,0-1.5,0-2.1c0-3.1,0.1-2.4-2.2-3.4c-4-1.7-8.1-3.4-12.1-5.1C33.9,214,33.2,213.7,32.5,213.3z
				 M17.1,279.4c5.3,0,10.4,0,15.6,0c0,4.8,0,9.4,0,14.2c-5.3,0-10.4,0-15.6,0c0,2,0,3.7,0,5.5c12.4,0,24.7,0,37,0
				c0-1.9,0-3.6,0-5.6c-5.4,0-10.6,0-16,0c0-4.8,0-9.3,0-14.1c5.4,0,10.6,0,16,0c0-2,0-3.7,0-5.5c-12.3,0-24.6,0-37,0
				C17.1,275.7,17.1,277.4,17.1,279.4z M22.3,165.5c0-4.9,0-9.5,0-14.1c-1.9,0-3.5,0-5.1,0c0,6.5,0,12.8,0,19c6.7,0,13.3,0,20,0
				c0-1.6,0-3.1,0-4.6c-0.5-0.4-0.9-0.7-1.4-1.1c-1.8-1.6-1.8-3.7-1.3-5.7c0.5-2,2.1-2.8,3.9-2.9c2.3-0.1,4.6-0.2,6.9,0
				c2.4,0.3,3.6,1.8,3.8,4.2c0.2,2.8-0.8,4.2-4.1,5.8c0,1.6,0,3.2,0,4.9c5.2-0.1,9-3.8,9.6-9.3c0.5-4.6-2.8-9.5-7.3-10.6
				c-3.7-0.9-7.6-0.9-11.3-0.1c-5.9,1.2-8.8,7.2-6.4,12.8c0.2,0.6,0.5,1.1,0.8,1.7C27.5,165.5,25.1,165.5,22.3,165.5z M48.7,175.7
				c0,5.9,0,11.6,0,17.6c-10.7,0-21.2,0-31.6,0c0,2,0,3.7,0,5.5c12.4,0,24.7,0,36.9,0c0-7.8,0-15.4,0-23.1
				C52.2,175.7,50.7,175.7,48.7,175.7z M54,258.5c0-2,0-3.7,0-5.5c-10.7,0-21.2,0-32.1,0c0-3.4,0-6.6,0-9.7c-1.8,0-3.3,0-4.9,0
				c0,8.4,0,16.7,0,25.1c1.7,0,3.2,0,5,0c0-3.3,0-6.5,0-9.8C32.8,258.5,43.3,258.5,54,258.5z"/>
			<path class="st0" d="M-0.5,32.2c0-11,0-22,0-33c0.5,0,1,0,1.5,0c0.8,0.2,1.7,0.5,2.5,0.5c21.1,0,42.1,0,63.2,0
				c0.8,0,1.6-0.1,2.5-0.1C70.9,0.1,71,1.4,71,2.9c0,9.7,0,19.5,0,29.2c-0.9,0-1.8,0-2.7,0C45.4,32.2,22.4,32.2-0.5,32.2z"/>
			<path class="st1" d="M-0.5,447.3c0-9.7,0-19.3,0-29c12.2,0,24.3,0,36.5,0c11.7,0,23.3,0,35,0c0,3.3,0,6.6,0,10c0,5.7,0,11.3,0,17
				c0,2.5-0.8,3.2-3.3,3.4c-0.2,0-0.5,0-0.7,0c-21.2,0-42.3,0-63.5,0C2,448.6,0.6,448.3-0.5,447.3z"/>
			<path class="st2" d="M-0.5,380.8c22.9,0,45.9,0,68.8,0c0.9,0,1.8,0,2.7,0c0,4.5,0,9.1,0,13.6c-0.9,0-1.8,0-2.7,0
				c-22.9,0-45.9,0-68.8,0C-0.5,389.8-0.5,385.3-0.5,380.8z"/>
			<path class="st2" d="M71,418.3c-11.7,0-23.3,0-35,0c-12.2,0-24.3,0-36.5,0c0-4.5,0-9,0-13.5c12.2,0,24.3,0,36.5,0
				c11.7,0,23.3,0,35,0C71,409.3,71,413.8,71,418.3z"/>
			<path class="st2" d="M-0.5,32.2c22.9,0,45.9,0,68.8,0c0.9,0,1.8,0,2.7,0c0,4.4,0,8.7,0,13.1c-0.9,0-1.8,0-2.7,0
				c-22.9,0-45.9,0-68.8,0C-0.5,40.9-0.5,36.5-0.5,32.2z"/>
			<path class="st2" d="M71,69.2c-11.7,0-23.3,0-35,0c-12.2,0-24.3,0-36.5,0c0-4.3,0-8.7,0-13c12.2,0,24.3,0,36.5,0
				c11.7,0,23.3,0,35,0C71,60.5,71,64.9,71,69.2z"/>
			<path class="st0" d="M71,56.1c-11.7,0-23.3,0-35,0c-12.2,0-24.3,0-36.5,0c0-3.7,0-7.3,0-11c22.9,0,45.9,0,68.8,0
				c0.9,0,1.8,0,2.7,0C71,48.9,71,52.5,71,56.1z"/>
			<path class="st0" d="M71,404.8c-11.7,0-23.3,0-35,0c-12.2,0-24.3,0-36.5,0c0-3.5,0-7,0-10.5c22.9,0,45.9,0,68.8,0
				c0.9,0,1.8,0,2.7,0C71,397.8,71,401.3,71,404.8z"/>
			<path class="st3" d="M71,404.8c0-3.5,0-6.9,0-10.4c0-4.5,0-9.1,0-13.6c0-0.7,0-1.3,0-2c0-102.5,0-205,0-307.6c0-0.7,0-1.3,0-2
				c0-4.4,0-8.7,0-13.1c0-3.6,0-7.3,0-10.9c0-4.4,0-8.7,0-13.1c0-9.7,0-19.5,0-29.2c0-1.5-0.2-2.8-1.9-3.3c0-0.1,0-0.3-0.1-0.4
				c1,0,2,0,3,0c0,150,0,300,0,450c-24.2,0-48.3,0-72.5,0c0-0.7,0-1.3,0-2c1.1,1.1,2.5,1.4,4,1.4c21.2,0,42.3,0,63.5,0
				c0.2,0,0.5,0,0.7,0c2.4-0.1,3.2-0.9,3.3-3.4c0-5.7,0-11.3,0-17c0-3.3,0-6.6,0-10C71,413.8,71,409.3,71,404.8z"/>
			<path class="st4" d="M69-0.8c0.1,0.1,0.1,0.2,0.1,0.4c-0.8,0-1.6,0.1-2.5,0.1c-21.1,0-42.1,0-63.2,0C2.7-0.3,1.8-0.6,1-0.8
				C23.7-0.8,46.4-0.8,69-0.8z"/>
			<path class="st5" d="M32.5,213.3c0.7,0.3,1.4,0.7,2.1,1c4,1.7,8.1,3.4,12.1,5.1c2.3,1,2.2,0.4,2.2,3.4c0,0.7,0,1.3,0,2.1
				c-5.5,2.4-10.9,4.7-16.4,7c0,0.1,0,0.3,0.1,0.4c7.1,0,14.2,0,21.4,0c0,2,0,3.8,0,5.7c-12.3,0-24.5,0-36.9,0c0-1.7,0-3.3,0-5.3
				c7.7-3.3,15.5-6.7,23.8-10.3c-8.2-3.5-16.1-6.8-23.9-10.1c0-1.8,0-3.5,0-5.2c12.3,0,24.5,0,36.9,0c0,1.8,0,3.6,0,5.6
				c-7.2,0-14.3,0-21.5,0C32.5,213,32.5,213.2,32.5,213.3z"/>
			<path class="st6" d="M17.1,279.4c0-2,0-3.7,0-5.5c12.4,0,24.7,0,37,0c0,1.8,0,3.5,0,5.5c-5.4,0-10.6,0-16,0c0,4.8,0,9.3,0,14.1
				c5.3,0,10.6,0,16,0c0,2,0,3.7,0,5.6c-12.3,0-24.5,0-37,0c0-1.8,0-3.5,0-5.5c5.2,0,10.3,0,15.6,0c0-4.8,0-9.4,0-14.2
				C27.5,279.4,22.3,279.4,17.1,279.4z"/>
			<path class="st7" d="M22.3,165.5c2.8,0,5.3,0,8,0c-0.3-0.6-0.5-1.2-0.8-1.7c-2.4-5.6,0.5-11.5,6.4-12.8c3.7-0.8,7.6-0.8,11.3,0.1
				c4.5,1.1,7.8,6,7.3,10.6c-0.6,5.5-4.4,9.2-9.6,9.3c0-1.6,0-3.3,0-4.9c3.4-1.6,4.3-3,4.1-5.8c-0.2-2.4-1.3-4-3.8-4.2
				c-2.3-0.2-4.6-0.2-6.9,0c-1.8,0.1-3.5,0.9-3.9,2.9c-0.5,2.1-0.5,4.2,1.3,5.7c0.4,0.4,0.9,0.7,1.4,1.1c0,1.5,0,3,0,4.6
				c-6.7,0-13.2,0-20,0c0-6.2,0-12.5,0-19c1.6,0,3.3,0,5.1,0C22.3,156,22.3,160.6,22.3,165.5z"/>
			<path class="st8" d="M48.7,175.7c2,0,3.6,0,5.3,0c0,7.7,0,15.3,0,23.1c-12.2,0-24.5,0-36.9,0c0-1.8,0-3.5,0-5.5
				c10.5,0,20.9,0,31.6,0C48.7,187.3,48.7,181.6,48.7,175.7z"/>
			<path class="st9" d="M54,258.5c-10.7,0-21.2,0-32,0c0,3.3,0,6.5,0,9.8c-1.8,0-3.3,0-5,0c0-8.4,0-16.6,0-25.1c1.5,0,3.1,0,4.9,0
				c0,3.2,0,6.4,0,9.7c10.8,0,21.4,0,32.1,0C54,254.8,54,256.5,54,258.5z"/>
		</g>
	</g>
</g>
</svg>
