<?xml version="1.0" encoding="utf-8"?>
<!-- Generator: Adobe Illustrator 24.0.1, SVG Export Plug-In . SVG Version: 6.00 Build 0)  -->
<svg version="1.1" id="Layer_1" xmlns="http://www.w3.org/2000/svg" xmlns:xlink="http://www.w3.org/1999/xlink" x="0px" y="0px"
	 viewBox="0 0 109.5 482.5" style="enable-background:new 0 0 109.5 482.5;" xml:space="preserve">
<style type="text/css">
	.st0{fill:#F3E200;}
	.st1{fill:#FEFEFE;}
	.st2{fill:#FAF4A4;}
	.st3{fill:#F7EB56;}
	.st4{fill:#060500;}
	.st5{fill:#040300;}
	.st6{fill:#050400;}
	.st7{fill:#030200;}
	.st8{fill:#040400;}
	.st9{fill:#070700;}
	.st10{fill:#020200;}
	.st11{fill:#EDDD00;}
	.st12{fill:#EBDA00;}
</style>
<g id="Sp400B.tif">
	<g>
		<g>
			<path class="st0" d="M0,481.9c0-0.3,0-0.7,0-1c0.2-0.7,0.5-1.3,0.5-2c0-5.7,0-11.4,0-17.1c0-7.8,0-15.6,0.1-23.3c1,0,2,0,3,0
				c35.1,0,70.2,0,105.4,0c0,7.1,0.1,14.3,0.1,21.4c0,6.3,0,12.6,0,18.9c0,1.3-0.1,2.5-1.5,3.1c-6.5,0-12.9,0-19.4,0
				C58.8,481.9,29.4,481.9,0,481.9z"/>
			<path class="st1" d="M107.5,481.9c1.4-0.6,1.5-1.8,1.5-3.1c0-6.3,0-12.6,0-18.9c0-7.1,0-14.3-0.1-21.4c0-4.3,0-8.7,0-13
				c0-3.7,0-7.3,0-11c0-4.3,0-8.7,0-13c0-0.9,0.1-1.8,0.1-2.7c0-102,0-204.1,0-306.1c0-0.9,0-1.8-0.1-2.7c0-4.3,0-8.7,0-13
				c0-3.7,0-7.3,0-11c0-4.3,0-8.7,0-13c0-0.3,0.1-0.7,0.1-1c0-16,0-31.9,0-47.9c0-0.4,0-0.8,0-1.2c-0.2-1.2-1.1-2.1-2.3-2.3
				c-0.7-0.1-1.3,0-2,0c-33.3,0-66.6,0-99.9,0c-0.5,0-1,0-1.5,0c-1.4,0-2.4,0.5-2.8,2c-0.1,0-0.3,0-0.4,0C0,1.7,0,0.8,0,0
				c36.5,0,73,0,109.5,0c0,160.8,0,321.6,0,482.4c-0.7,0-1.3,0-2,0C107.5,482.2,107.5,482.1,107.5,481.9z"/>
			<path class="st2" d="M0,2.5c0.1,0,0.3,0,0.4,0c0,0.9,0.1,1.8,0.1,2.7c0,11.5,0,23.1,0,34.6c0,4.4,0,8.8,0.1,13.2
				c0,4.3,0,8.6,0,13c0,3.7,0,7.3,0,11c0,4.3,0,8.6,0,13c0,0.9-0.1,1.8-0.1,2.7c0,102.1,0,204.1,0,306.2c0,0.9,0,1.8,0.1,2.7
				c0,4.3,0,8.6,0,13c0,3.7,0,7.3,0,11c0,4.3,0,8.6,0,13c0,7.8-0.1,15.6-0.1,23.3c0,5.7,0,11.4,0,17.1c0,0.7-0.3,1.3-0.5,2
				C0,321.4,0,162,0,2.5z"/>
			<path class="st3" d="M107.5,481.9c0,0.2,0,0.3,0,0.5c-35.2,0-70.3,0-105.5,0c-0.7,0-1.5,0.5-2-0.5c29.4,0,58.8,0,88.2,0
				C94.6,481.9,101.1,481.9,107.5,481.9z"/>
			<path d="M0.6,438.4c0-4.3,0-8.6,0-13c1,0,2,0,3,0c35.1,0,70.2,0,105.4,0c0,4.3,0,8.7,0,13c-35.1,0-70.2,0-105.4,0
				C2.6,438.5,1.6,438.4,0.6,438.4z"/>
			<path class="st0" d="M0.6,401.5c0-0.9-0.1-1.8-0.1-2.7c0-102.1,0-204.1,0-306.2c0-0.9,0-1.8,0.1-2.7c1,0,2,0,3,0
				c35.1,0,70.2,0,105.4,0c0,0.9,0.1,1.8,0.1,2.7c0,102,0,204.1,0,306.1c0,0.9,0,1.8-0.1,2.7c-0.9,0-1.8,0-2.7,0
				C71,401.5,35.8,401.5,0.6,401.5z M40.8,246.4c-1.2-0.8-2.7-1.7-4.2-2.7c-3.1,4.8-4.5,9.7-3.4,15.1c1,4.8,4.5,7.8,9.6,8.2
				c4.8,0.4,8.8-2.2,10.4-6.8c0.5-1.3,0.7-2.7,0.9-4.1c0.3-1.6,0.5-3.3,1-4.9c0.7-2.2,2.1-3.1,4.3-3.1c2.8-0.1,4.6,1.4,5.2,4.3
				c0.7,3.8,0.1,7.4-1.9,10.8c-0.4,0.7-0.9,1.4-1.3,2.2c0.7,0.6,1.3,1.1,1.9,1.7c0.7,0.6,1.4,1.1,2.1,1.7c4.9-4.6,6.4-14,4-20.1
				c-1.1-2.8-3.1-4.7-6-5.5c-6.4-1.9-13.2,1.2-14.2,9c-0.2,2-0.6,4-1.1,5.9c-0.6,2.3-2.6,3.6-4.6,3.5c-2.3-0.1-4.1-1.4-4.7-3.8
				c-0.3-1.3-0.5-2.7-0.2-3.9C39.1,251.5,40,249.2,40.8,246.4z M43.9,178.7c12.5,0,24.7,0,37,0c0-1.7,0-3.2,0-4.9
				c-2.3,0-4.4,0-6.5,0c-2.2,0-4.3,0-6.7,0c0.7-1.1,1.2-1.8,1.7-2.6c3.1-5.3-0.2-11.9-6.4-12.4c-4-0.3-8.1-0.2-12.1,0
				c-4,0.2-6.8,3.3-7.1,7.4c-0.3,2.6,0.4,4.9,2.2,6.9c0.1,0.1,0.2,0.4,0.2,0.6c-0.8,0.1-1.5,0.2-2.2,0.2
				C43.9,175.6,43.9,177.1,43.9,178.7z M54.7,278.7c0,2.1,0,4,0,5.9c0,1.2,0.1,2.5,0.4,3.7c0.5,2.9,2.3,4.8,5.1,5.5
				c2.9,0.8,5.6,0.3,7.8-1.9c3.1-3.1,3.4-9,0.7-12.6c-0.1-0.2-0.2-0.4-0.3-0.6c0.6-0.1,1.2-0.1,1.7-0.2c0-1.7,0-3.2,0-4.9
				c-6.3,0-12.5,0-18.7,0c-0.5,0-1,0.2-1.5,0.2c-2.9,0.5-4.7,2.3-5.6,5c-0.9,2.8-1,5.8-0.4,8.6c0.5,2.1,1.4,4,3.6,5.1
				c1-1.3,2-2.5,3-3.8c-2-1.6-2-3.6-2-5.6c0.2-3.7,1.2-4.7,4.9-4.7C53.7,278.7,54,278.7,54.7,278.7z M70.2,323.6
				c-6.3,0-12.4,0-18.4,0c-0.7,0-1.3,0.2-2,0.3c-2.8,0.5-4.6,2.2-5.5,4.9c-0.9,2.8-1,5.7-0.5,8.6c0.4,2.1,1.4,4,3.6,5.4
				c1-1.3,2-2.5,3-3.8c-0.4-0.5-0.8-0.8-1-1.2c-1.3-2.4-1.3-5-0.2-7.4c1-2.2,3.2-1.6,5-1.6c0.1,0,0.3,0.2,0.5,0.3c0,1.5,0,3.1,0,4.6
				c0,1.4,0,2.8,0.3,4.2c0.8,4,3.5,6.2,7.5,6.2c3.8,0,6.9-2.4,7.7-6.1c0.7-3.3,0.7-6.4-1.9-9.2c0.7-0.1,1.3-0.2,1.9-0.3
				C70.2,326.8,70.2,325.3,70.2,323.6z M33.3,355.1c0.9,0,1.7,0,2.5,0c7.1,0,14.3,0,21.4,0c0.7,0,1.5,0,2.2,0c4.7,0.5,7,5.7,4.4,9.5
				c-0.4,0.5-0.8,1-1.3,1.6c1.1,1.4,2.1,2.8,3.1,4.1c4.4-2.1,6.4-9.9,3.3-15.1c-2.4-4-6.1-5.7-10.6-5.7c-7.9,0-15.8,0-23.6,0
				c-0.5,0-0.9,0.1-1.4,0.2C33.3,351.5,33.3,353.2,33.3,355.1z M48.1,216.9c-0.9,1.1-1.7,1.8-2.4,2.7c-3.9,5.1-2.7,15,6,17.5
				c2.7,0.8,5.6,0.9,8.4,0.5c2.7-0.4,5.3-1.3,7.3-3.4c4.9-5.2,3.8-13-1.4-17c-0.5,0.6-1.1,1.1-1.7,1.7c-0.5,0.6-1,1.2-1.6,1.9
				c0.5,0.6,1,1.1,1.4,1.6c2.7,3.8,0.9,8.7-3.5,9.9c-2.5,0.7-4.9,0.6-7.4-0.1c-3.4-1-5.1-4-4.1-7.4c0.4-1.5,1.4-2.7,2.2-4.3
				C50.4,219.5,49.3,218.3,48.1,216.9z M43.9,296.3c0,2,0,3.7,0,5.4c6.1,2,12.1,4,18.6,6.1c-6.5,2.1-12.5,4.1-18.5,6.1
				c0,1.8,0,3.5,0,5.4c8.9-3.2,17.6-6.3,26.2-9.3c0-1.6,0-2.9,0-4.3C61.5,302.6,52.8,299.5,43.9,296.3z M35.9,151.2
				c2.7,0,5.2,0,7.8,0c0.1,0.9,0.2,1.7,0.3,2.4c1.4,0,2.6,0,3.8,0c0.1-0.9,0.2-1.6,0.3-2.5c0.9,0,1.7,0,2.6,0c4.2,0,8.5-0.1,12.7,0
				c4.8,0.1,7.4-2.9,7-7c0-0.5,0-1.1,0-1.7c-1.8,0-3.3,0-4.8,0c-0.3,3.6-0.3,3.6-3.9,3.6c-3.9,0-7.8,0-11.7,0
				c-0.6,0-1.3-0.1-1.9-0.2c-0.1-1.3-0.2-2.4-0.2-3.5c-1.4,0-2.6,0-3.8,0c-0.1,1.3-0.1,2.4-0.2,3.8c-2.7,0-5.2,0-7.8,0
				C35.9,147.9,35.9,149.4,35.9,151.2z M43.9,212.1c8.9,0,17.6,0,26.2,0c0-1.7,0-3.2,0-4.9c-0.9,0-1.7,0-2.6,0
				c-4.4,0-8.8-0.1-13.2,0c-4.3,0.2-7-4.5-4.7-7.7c0.2-0.2,0.2-0.6,0.3-0.9c-1.5-1.2-2.9-2.3-4.3-3.5c-2.9,3.8-2.7,6.9,0.5,12
				c-0.8,0.1-1.6,0.2-2.3,0.3C43.9,209,43.9,210.5,43.9,212.1z M70.1,186.9c-8.8,0-17.5,0-26.2,0c0,1.7,0,3.2,0,4.8
				c8.8,0,17.4,0,26.2,0C70.1,190,70.1,188.5,70.1,186.9z M33.4,186.8c0,1.8,0,3.3,0,5c1.8-0.1,3.4,0.2,4.8-0.2c0-1.7,0-3.2,0-4.8
				C36.5,186.8,35,186.8,33.4,186.8z"/>
			<path class="st0" d="M0.6,52.9c0-4.4-0.1-8.8-0.1-13.2c0-11.5,0-23.1,0-34.6c0-0.9-0.1-1.8-0.1-2.7c0.4-1.4,1.4-1.9,2.8-2
				c0.5,0,1,0,1.5,0c33.3,0,66.6,0,99.9,0c0.7,0,1.3,0,2,0c1.2,0.2,2.1,1,2.3,2.3c0.1,0.4,0,0.8,0,1.2c0,16,0,31.9,0,47.9
				c0,0.3,0,0.7-0.1,1c-1,0-2,0-3,0C70.8,52.9,35.7,52.9,0.6,52.9z"/>
			<path d="M0.6,52.9c35.1,0,70.2,0,105.4,0c1,0,2,0,3,0c0,4.3,0,8.7,0,13c-0.9,0-1.8,0-2.7,0c-35.2,0-70.4,0-105.6,0
				C0.6,61.6,0.6,57.3,0.6,52.9z"/>
			<path d="M108.9,89.9c-35.1,0-70.2,0-105.4,0c-1,0-2,0-3,0c0-4.3,0-8.6,0-13c1.1,0,2.2,0,3.2,0c35,0,70.1,0,105.1,0
				C108.9,81.2,108.9,85.6,108.9,89.9z"/>
			<path d="M0.6,401.5c35.2,0,70.4,0,105.6,0c0.9,0,1.8,0,2.7,0c0,4.3,0,8.7,0,13c-0.9,0-1.8,0-2.7,0c-35.2,0-70.4,0-105.6,0
				C0.6,410.1,0.6,405.8,0.6,401.5z"/>
			<path class="st0" d="M108.9,76.9c-35,0-70.1,0-105.1,0c-1.1,0-2.2,0-3.2,0c0-3.7,0-7.3,0-11c35.2,0,70.4,0,105.6,0
				c0.9,0,1.8,0,2.7,0C108.9,69.6,108.9,73.2,108.9,76.9z"/>
			<path class="st0" d="M0.6,414.5c35.2,0,70.4,0,105.6,0c0.9,0,1.8,0,2.7,0c0,3.7,0,7.3,0,11c-35.1,0-70.2,0-105.4,0c-1,0-2,0-3,0
				C0.6,421.8,0.6,418.1,0.6,414.5z"/>
			<path class="st4" d="M40.8,246.4c-0.9,2.8-1.7,5.1-2.2,7.5c-0.3,1.2-0.1,2.7,0.2,3.9c0.6,2.3,2.4,3.7,4.7,3.8
				c2,0.1,3.9-1.3,4.6-3.5c0.5-1.9,0.9-3.9,1.1-5.9c1-7.9,7.8-10.9,14.2-9c2.9,0.8,4.9,2.7,6,5.5c2.4,6.1,0.9,15.5-4,20.1
				c-0.7-0.5-1.4-1.1-2.1-1.7c-0.6-0.5-1.2-1.1-1.9-1.7c0.5-0.8,0.9-1.5,1.3-2.2c2-3.4,2.6-7,1.9-10.8c-0.5-2.9-2.4-4.4-5.2-4.3
				c-2.2,0.1-3.6,1-4.3,3.1c-0.5,1.6-0.6,3.3-1,4.9c-0.3,1.4-0.5,2.8-0.9,4.1c-1.6,4.6-5.6,7.1-10.4,6.8c-5.1-0.4-8.6-3.4-9.6-8.2
				c-1.2-5.5,0.3-10.3,3.4-15.1C38.2,244.7,39.6,245.6,40.8,246.4z"/>
			<path class="st5" d="M43.9,178.7c0-1.7,0-3.1,0-4.8c0.7-0.1,1.4-0.1,2.2-0.2c-0.1-0.2-0.1-0.5-0.2-0.6c-1.7-2-2.4-4.3-2.2-6.9
				c0.4-4,3.1-7.1,7.1-7.4c4-0.2,8.1-0.3,12.1,0c6.1,0.4,9.4,7,6.4,12.4c-0.4,0.8-1,1.5-1.7,2.6c2.4,0,4.6,0,6.7,0
				c2.1,0,4.3,0,6.5,0c0,1.7,0,3.3,0,4.9C68.6,178.7,56.3,178.7,43.9,178.7z M57.1,174c1.6-0.2,3.2-0.3,4.8-0.7
				c2.4-0.6,3.4-2.3,3.3-4.9c-0.1-2.4-1.2-3.9-3.5-4.5c-3-0.7-6.1-0.7-9.1,0c-2.5,0.6-3.6,2.1-3.7,4.6c-0.1,2.6,1.1,4.2,3.7,4.9
				C54,173.7,55.5,173.7,57.1,174z"/>
			<path class="st6" d="M54.7,278.7c-0.7,0-1,0-1.4,0c-3.7,0-4.7,0.9-4.9,4.7c-0.1,2,0,4,2,5.6c-1,1.3-1.9,2.5-3,3.8
				c-2.2-1.1-3.1-3-3.6-5.1c-0.6-2.9-0.5-5.8,0.4-8.6c0.9-2.8,2.7-4.5,5.6-5c0.5-0.1,1-0.2,1.5-0.2c6.2,0,12.4,0,18.7,0
				c0,1.6,0,3.2,0,4.9c-0.5,0.1-1.1,0.1-1.7,0.2c0.1,0.2,0.1,0.5,0.3,0.6c2.8,3.5,2.5,9.5-0.7,12.6c-2.2,2.2-4.9,2.7-7.8,1.9
				c-2.8-0.8-4.6-2.6-5.1-5.5c-0.2-1.2-0.3-2.5-0.4-3.7C54.7,282.7,54.7,280.8,54.7,278.7z M59.3,279c0,2.6-0.1,5.2,0,7.8
				c0.1,1.6,1.2,2.6,2.5,2.6c1.4,0.1,2.5-0.5,3.1-1.7c1.2-2.5,1.2-5.1,0-7.4c-1.1-2.1-3.4-1.6-5.4-1.5
				C59.5,278.8,59.4,278.9,59.3,279z"/>
			<path class="st6" d="M70.2,323.6c0,1.7,0,3.2,0,4.8c-0.6,0.1-1.2,0.2-1.9,0.3c2.6,2.7,2.6,5.9,1.9,9.2c-0.8,3.7-3.9,6.2-7.7,6.1
				c-4,0-6.7-2.2-7.5-6.2c-0.3-1.4-0.2-2.8-0.3-4.2c0-1.6,0-3.1,0-4.6c-0.3-0.2-0.4-0.3-0.5-0.3c-1.9,0-4.1-0.6-5,1.6
				c-1.1,2.4-1.1,5,0.2,7.4c0.2,0.4,0.6,0.7,1,1.2c-1,1.3-1.9,2.5-3,3.8c-2.1-1.3-3.1-3.2-3.6-5.4c-0.6-2.9-0.5-5.8,0.5-8.6
				c0.9-2.6,2.6-4.4,5.5-4.9c0.7-0.1,1.3-0.3,2-0.3C57.8,323.6,63.9,323.6,70.2,323.6z M59.3,328.9c0,2.6-0.1,5.2,0,7.8
				c0.1,1.5,1.2,2.6,2.5,2.6c1.4,0.1,2.5-0.5,3.1-1.7c1.2-2.5,1.2-5.1,0-7.4c-1.1-2.1-3.4-1.6-5.4-1.5
				C59.5,328.7,59.4,328.8,59.3,328.9z"/>
			<path class="st7" d="M33.3,355.1c0-1.9,0-3.5,0-5.3c0.4-0.1,0.9-0.2,1.4-0.2c7.9,0,15.8,0,23.6,0c4.5,0,8.2,1.7,10.6,5.7
				c3.1,5.2,1.2,13-3.3,15.1c-1-1.3-2-2.7-3.1-4.1c0.5-0.6,0.9-1.1,1.3-1.6c2.6-3.9,0.3-9-4.4-9.5c-0.7-0.1-1.5,0-2.2,0
				c-7.1,0-14.3,0-21.4,0C35,355.1,34.2,355.1,33.3,355.1z"/>
			<path class="st8" d="M48.1,216.9c1.3,1.4,2.3,2.5,3.2,3.5c-0.8,1.6-1.8,2.9-2.2,4.3c-1,3.4,0.8,6.4,4.1,7.4
				c2.4,0.7,4.9,0.8,7.4,0.1c4.5-1.2,6.2-6.1,3.5-9.9c-0.4-0.5-0.9-1-1.4-1.6c0.5-0.6,1-1.2,1.6-1.9c0.5-0.6,1.1-1.2,1.7-1.7
				c5.3,4,6.3,11.8,1.4,17c-2,2.1-4.5,3-7.3,3.4c-2.8,0.4-5.6,0.3-8.4-0.5c-8.7-2.5-9.9-12.4-6-17.5C46.4,218.8,47.1,218,48.1,216.9
				z"/>
			<path class="st6" d="M43.9,296.3c8.9,3.2,17.6,6.2,26.3,9.3c0,1.4,0,2.7,0,4.3c-8.6,3.1-17.3,6.2-26.2,9.3c0-1.9,0-3.6,0-5.4
				c6-2,12-3.9,18.5-6.1c-6.5-2.1-12.5-4.1-18.6-6.1C43.9,300,43.9,298.4,43.9,296.3z"/>
			<path class="st9" d="M35.9,151.2c0-1.8,0-3.3,0-5c2.6,0,5.1,0,7.8,0c0.1-1.3,0.1-2.5,0.2-3.8c1.2,0,2.4,0,3.8,0
				c0.1,1,0.1,2.2,0.2,3.5c0.7,0.1,1.3,0.2,1.9,0.2c3.9,0,7.8,0,11.7,0c3.6,0,3.6,0,3.9-3.6c1.5,0,3,0,4.8,0c0,0.6,0,1.1,0,1.7
				c0.4,4.1-2.2,7.1-7,7c-4.2-0.1-8.5,0-12.7,0c-0.8,0-1.6,0-2.6,0c-0.1,0.9-0.2,1.6-0.3,2.5c-1.2,0-2.4,0-3.8,0
				c-0.1-0.7-0.2-1.5-0.3-2.4C41.1,151.2,38.6,151.2,35.9,151.2z"/>
			<path class="st10" d="M43.9,212.1c0-1.6,0-3.1,0-4.8c0.8-0.1,1.5-0.2,2.3-0.3c-3.3-5-3.4-8.1-0.5-12c1.4,1.1,2.8,2.3,4.3,3.5
				c-0.1,0.4-0.1,0.7-0.3,0.9c-2.3,3.2,0.4,7.9,4.7,7.7c4.4-0.2,8.8,0,13.2,0c0.8,0,1.6,0,2.6,0c0,1.7,0,3.2,0,4.9
				C61.4,212.1,52.8,212.1,43.9,212.1z"/>
			<path d="M70.1,186.9c0,1.6,0,3.1,0,4.8c-8.7,0-17.4,0-26.2,0c0-1.5,0-3.1,0-4.8C52.6,186.9,61.3,186.9,70.1,186.9z"/>
			<path d="M33.4,186.8c1.7,0,3.1,0,4.8,0c0,1.5,0,3.1,0,4.8c-1.4,0.5-3.1,0.1-4.8,0.2C33.4,190.1,33.4,188.5,33.4,186.8z"/>
			<path class="st11" d="M57.1,174c-1.6-0.2-3.1-0.3-4.5-0.6c-2.6-0.6-3.8-2.3-3.7-4.9c0-2.5,1.2-4,3.7-4.6c3-0.7,6.1-0.7,9.1,0
				c2.3,0.5,3.5,2.1,3.5,4.5c0.1,2.6-0.9,4.2-3.3,4.9C60.3,173.7,58.6,173.7,57.1,174z"/>
			<path class="st12" d="M59.3,279c0.1-0.1,0.2-0.2,0.3-0.2c2-0.1,4.3-0.6,5.4,1.5c1.2,2.3,1.2,5,0,7.4c-0.6,1.2-1.7,1.8-3.1,1.7
				c-1.3-0.1-2.4-1.1-2.5-2.6C59.2,284.2,59.3,281.5,59.3,279z"/>
			<path class="st12" d="M59.3,328.9c0.1-0.1,0.2-0.2,0.2-0.2c2-0.1,4.3-0.6,5.4,1.5c1.2,2.3,1.2,5,0,7.4c-0.6,1.2-1.7,1.8-3.1,1.7
				c-1.3-0.1-2.4-1.1-2.5-2.6C59.2,334.1,59.3,331.5,59.3,328.9z"/>
		</g>
	</g>
</g>
</svg>
