<?xml version="1.0" encoding="utf-8"?>
<!-- Generator: Adobe Illustrator 24.0.1, SVG Export Plug-In . SVG Version: 6.00 Build 0)  -->
<svg version="1.1" id="Layer_1" xmlns="http://www.w3.org/2000/svg" xmlns:xlink="http://www.w3.org/1999/xlink" x="0px" y="0px"
	 viewBox="0 0 138.5 178.5" style="enable-background:new 0 0 138.5 178.5;" xml:space="preserve">
<style type="text/css">
	.st0{fill:#616161;}
	.st1{fill:#EDEDED;}
	.st2{fill:#C2BEBF;}
	.st3{fill:#5F5F5F;}
	.st4{fill:#5B5B5B;}
</style>
<path class="st0" d="M14.8,102.9c-7.2,1.6-11-0.5-14.4-7.9c0-1.5,0-3,0-4.5c0.6-0.4,0.5-1.2,0.8-1.7c1.9-4.2,5.1-6.4,9.7-6.7
	c0.7,0,1.3,0,2-0.1c0.9,0.3,1.7,0.6,2.6,0.9c2.1,1.1,3.9,2.5,5,4.6c0.4,1.2,0.9,2.4,1.3,3.6c0.3,2.2-0.1,4.4-1,6.4
	C19.5,100.1,17.4,101.8,14.8,102.9z"/>
<path class="st1" d="M47.4,179.5c0-0.2,0-0.4,0-0.6c6.7,0,13.3,0.1,20,0.1c14.5,0,29,0,43.5-0.1c0,0.2,0,0.4,0,0.6
	C89.7,179.5,68.5,179.5,47.4,179.5z"/>
<path class="st0" d="M110.8,179c-14.5,0-29,0.1-43.5,0.1c-6.7,0-13.3,0-20-0.1c0.1-11.2,4.9-20,13.9-26.5c2.2-1.2,4.4-2.3,6.6-3.5
	c7.1-2.4,14.3-2.7,21.5-0.2C102.3,153.1,110.9,165.3,110.8,179z"/>
<path class="st2" d="M67.9,149c-2.2,1.2-4.4,2.3-6.6,3.5c-1.1-1.3-2.1-2.7-3.3-4c-5.7-6.1-11.6-12.2-17.2-18.4
	c-6.2-6.8-12.5-13.6-18.8-20.3c-1.7-1.8-3.3-3.7-5.1-5.5c-0.6-0.6-1.1-1.3-2-1.3c2.6-1.1,4.7-2.9,6-5.4c1,2.5,3.1,4,4.8,5.9
	c5.7,6.3,11.6,12.3,17.3,18.5c6.3,6.8,12.6,13.7,18.9,20.4C63.9,144.6,66,146.7,67.9,149z"/>
<path class="st2" d="M21.8,91.1c-0.4-1.2-0.9-2.4-1.3-3.6c1.1,0.1,1.7-0.7,2.3-1.3c5.5-4.7,10.9-9.5,16.4-14.2
	c4.3-3.7,8.5-7.5,12.8-11.2c6-5.2,11.9-10.3,17.9-15.5c3.1-2.7,6.4-5.3,9.4-8.1c1.6-1.5,3.8-2.4,4.6-4.7c0.8,0.7,1.4,1.7,2.5,1.9
	c0,0.1,0.1,0.2,0,0.4c0,0.1,0,0.2,0,0.3c-1.4-0.2-2.1,1-2.9,1.7c-4.2,3.4-8.2,7-12.2,10.6c-6,5.2-11.9,10.3-17.9,15.5
	c-4.3,3.7-8.5,7.4-12.7,11.1c-5.7,4.9-11.4,9.9-17.1,14.8C22.8,89.4,21.9,90,21.8,91.1z"/>
<path class="st0" d="M86.4,34.5c-1.2-0.2-1.7-1.2-2.5-1.9c-1.4-1.8-2.5-3.7-3.1-6c-0.4-1.2-0.4-2.4-0.5-3.6
	c0.2-7.2,3.4-12.6,10-15.7c3.2-1.6,6.6-1.5,10-0.7c0.1,0.1,0.1,0.3,0.1,0.4c-1.3,2-3.4,3.4-4.9,5.3c-3.4,4.3-5.4,9.3-7.5,14.3
	C86.9,29,86.2,31.7,86.4,34.5z"/>
<path class="st2" d="M80.3,23c0.1,1.2,0.1,2.4,0.5,3.6c-0.3,0.1-0.7,0.1-0.9,0.3c-4,3.4-7.9,6.8-11.8,10.3
	c-5.5,4.8-11,9.6-16.5,14.4c-6.1,5.3-12.3,10.7-18.4,16c-3,2.6-6.1,5.1-9.1,7.7c-2.9,2.5-5.7,5.1-8.5,7.6c-0.9-0.3-1.7-0.6-2.6-0.9
	c2.9-3.2,6.4-5.8,9.6-8.6c4.4-3.9,8.9-7.7,13.4-11.5c5.8-5,11.7-10.1,17.5-15.1c4-3.5,8-7,12-10.5c4.6-4,9.1-8,13.7-12
	C79.5,23.8,79.8,23.4,80.3,23z"/>
<path class="st0" d="M102.8,8c1,0.3,1.7-0.4,2.5-0.8c8.3-5,16.8-5.5,25.6-1.5c2,0.9,4.1,1.7,5.8,2.9c0.4,1-0.5,1.5-0.4,2.3
	c-0.3,0.4-0.6,0.8-0.8,1.2c-7.5,15.5-14.9,31.1-22.4,46.6c-0.6,1.3-1.1,2.6-2.2,4c-3.2-1.2-6.6-2.3-9.5-4.3
	c-0.5-0.5-0.9-1.2-1.5-1.6c-6.2-4.7-9.2-11.1-10-18.6c-0.1-0.9-0.3-1.4-1-1.8c0.2-0.6,0.4-1.3,0.5-1.9c1.3-9.2,5.5-17,11.6-23.9
	C101.7,9.9,102.8,9.4,102.8,8L102.8,8z"/>
<path class="st3" d="M86.4,34.5c-0.2-2.8,0.6-5.5,1.6-8c2.1-4.9,4.1-10,7.5-14.3C97,10.4,99,9,100.4,7c0.9,0.1,1.8,0.4,2.5,1.1
	l-0.1,0.1C102,8,101.6,8.6,101.1,9c-5.8,4.5-8.5,11-11.3,17.5c-1.3,3-2.1,6.2-2,9.6c-0.5-0.4-1-0.8-1.4-1.2
	C86.4,34.7,86.4,34.6,86.4,34.5z"/>
<path class="st4" d="M88.9,36.4c-0.3,0-0.6,0-1,0.1c0-0.1,0-0.3,0-0.4c-0.1-3.4,0.7-6.6,2-9.6C92.6,20,95.3,13.5,101.1,9
	c0.5-0.4,0.9-1.1,1.7-0.9c0.1,1.3-1.1,1.8-1.8,2.5c-6.1,6.9-10.3,14.7-11.6,23.9C89.3,35.1,89,35.8,88.9,36.4z"/>
</svg>
