<?xml version="1.0" encoding="utf-8"?>
<!-- Generator: Adobe Illustrator 24.0.1, SVG Export Plug-In . SVG Version: 6.00 Build 0)  -->
<svg version="1.1" id="Layer_1" xmlns="http://www.w3.org/2000/svg" xmlns:xlink="http://www.w3.org/1999/xlink" x="0px" y="0px"
	 viewBox="0 0 1117.5 1421.5" style="enable-background:new 0 0 1117.5 1421.5;" xml:space="preserve">
<style type="text/css">
	.st0{fill:#754D33;}
	.st1{fill:#BABABA;}
	.st2{fill:#FEFEFE;}
	.st3{fill:#49301F;}
	.st4{fill:#744D32;}
	.st5{fill:#010000;}
	.st6{fill:#010100;}
	.st7{fill:#050404;}
	.st8{fill:#040403;}
	.st9{fill:#030201;}
	.st10{fill:#020101;}
	.st11{fill:#FCFCFC;}
	.st12{fill:#391A02;}
	.st13{fill:#FCFCFB;}
	.st14{fill:#FAFAFA;}
	.st15{fill:#181818;}
	.st16{fill:#FBFBFB;}
	.st17{fill:#FBFAFA;}
</style>
<path class="st0" d="M987.4,661.3c6.6,3.2,13.1,4.7,19.7-0.1c2.7-2,5.8-0.9,8.6,0.4c11.7,5.2,19.1,14,21.7,26.7c0.2,1-0.4,2.4,1.1,3
	c0,3.3,0,6.7,0,10c-2.6,7-2.7,14.5-3.4,21.8c-2.1,23.6-10.1,45.6-16.7,68.1c-8.3,28.4-22.3,54.3-34.6,80.9c-0.5,1.2-1.5,2.2-2.2,3.2
	c0.2-25.9,1.6-51.8,2.6-77.7c1.1-27.9,2.4-55.8,2.4-83.7c0-16.8-2.2-33.5-0.5-50.3C986.6,662.9,987,662.1,987.4,661.3z"/>
<path class="st1" d="M539.9,80.7c8.7,0,17.3,0,26,0c0,0.5,0,1,0.1,1.5c-8.7,0.6-17.4,0.7-26.1,0C539.9,81.7,539.9,81.2,539.9,80.7z"
	/>
<path class="st1" d="M518.9,83.2c0-0.8,0-1.6,0-2.4c1.3,0,2.7,0,4,0c1.2,1.8,3,0.8,4.5,1c2.9,0.3,5.9-0.6,8.8,0.5
	C530.6,83.9,524.8,83.7,518.9,83.2z"/>
<path class="st1" d="M586.9,80.7c-0.5,2.7,2.3,1.3,3.1,2.5c-5.2,0.4-10.4,0.7-15.5-0.9c2.6-1.7,6,0.8,8.5-1.6
	C584.2,80.7,585.6,80.7,586.9,80.7z"/>
<path class="st2" d="M582.9,80.7c-2.5,2.4-5.9-0.1-8.5,1.6c-2.8,0-5.6-0.1-8.5-0.1c0-0.5,0-1-0.1-1.5
	C571.6,80.7,577.2,80.7,582.9,80.7z"/>
<path class="st2" d="M536.4,82.2c-2.9-1.1-5.9-0.2-8.8-0.5c-1.5-0.1-3.4,0.8-4.5-1c5.7,0,11.3,0,17,0c0,0.5,0,1-0.1,1.5
	C538.7,82.2,537.5,82.2,536.4,82.2z"/>
<path d="M986.2,663.6c-1.7,16.8,0.5,33.5,0.5,50.3c0,27.9-1.3,55.8-2.4,83.7c-1.1,25.9-2.4,51.8-2.6,77.7c-1,24-2,47.9-3.2,71.9
	c-2.4,50.6-9.3,100.4-28,147.8c-16.3,41.3-39.5,78.9-64.5,115.5c-15.2,22.3-32.4,43.1-50.3,63.2c-18.3,20.6-40.1,35.5-65.4,46.1
	c-43.6,18.2-88.3,32.2-135.1,38.6c-13.2,1.8-26.5,3.2-39.8,3.4c-24.3,0.3-48.6,0.4-72.9,0.3c-54.5-0.3-106.8-12.2-157.8-30.8
	c-11.2-4.1-22.2-8.9-33.2-13.4c-23.5-9.7-43.2-24.3-60.3-43.1c-48.1-53-86.9-112.2-115-178c-12.9-30.1-19.5-62.1-23.8-94.4
	c-5.8-43.5-6.3-87.3-8-131.1c-0.1-2-0.2-4-0.2-6c0.2-4.8-0.4-9.6-0.5-14.4c-0.7-37-3.4-74-4.2-111c-0.5-22.9-0.2-45.9,0.8-68.8
	c0.2-3.3,0.4-6.5,0.6-9.8c1.4-2.7,0.5-5.5,0.6-8.2c0.1-4.1-0.1-8.2,2.1-11.8c0.1,1,0.1,2,0.4,2.9c6.9,27.7,9.3,56,9.7,84.5
	c0.1,8.6,0.8,17.3,2.1,25.8c4.7,30.8,13.3,60.6,24.5,89.7c16.3,42.4,38.1,81.3,72.1,112.4c17.3,15.8,35.1,30.6,57.3,39.2
	c10.8,4.2,21.8,8.2,32.7,12.3c24.6,9.1,44,24.2,56.8,47.6c5.8,10.7,11.7,21.3,16.8,32.3c7.1,15.3,19.1,24.8,34.7,30.1
	c15.3,5.2,31.2,6.6,47.2,6.8c49.1,0.4,98.2,0.2,147.3,0.1c13.1,0,26.2-1.2,39.1-3.9c21.5-4.4,38.1-14.9,47.2-35.8
	c3.7-8.4,8.1-16.4,12.5-24.4c6.8-12.2,14.3-23.9,25.2-33.2c13.3-11.2,28.8-17.7,44.8-23.5c13.8-5,27.8-9.5,40.3-17.1
	c27.8-16.9,50.7-39.3,70.4-65c16.1-21,27.7-44.7,37.5-69.1c17.8-44.3,30.9-89.8,30.7-138.2c0-13.9,1.4-27.8,3.5-41.7
	c1.6-10.7,4.7-21,6.1-31.8c3,5.2,1.8,11,2.2,16.6C984.8,659.9,983.7,662.3,986.2,663.6z"/>
<path class="st3" d="M986.2,663.6c-2.5-1.4-1.4-3.7-1.6-5.7c-0.4-5.6,0.8-11.4-2.2-16.6c-1.1-0.6-1.6-1.5-1.8-2.8
	c-1.5-12.5-4.2-24.8-7-37c-7.2-31.8-13.8-63.7-20-95.7c-3.4-17.5-7.1-35-9.8-52.7c-4.6-28.9-10.5-57.4-22.3-84.3
	c-8.4-19.3-18.7-37.5-32.7-53.3C871,295.2,850,279.2,825,268.7c-19-8-38.9-12.3-59.4-13c-16.9-0.6-33.8,0.3-50.7,1.7
	c-13.5,1.1-27.1,2.3-40.6,3.5c-16.3,1.4-32.3,5.3-48.6,6.9c-19.5,2-38.9,3.8-58.5,3.8c-20,0-40,0-59.9,0c-1.3,0-2.7,0.1-4,0
	c-20-1.8-40-1.8-60-3.8c-13.7-1.4-27.3-2.5-40.9-4.9c-16-2.8-31.9-6.3-48.1-7.1c-19.9-1-39.8-0.3-59.3,4.8
	c-33.7,8.8-63.5,24-85.5,52.1c-21.4,27.3-35.9,58.2-46,91.1c-10.4,34.1-15.1,69.5-20.1,104.7c-2.8,20-6.4,39.8-9.9,59.7
	c-3.2,18.2-5.6,36.6-7.4,55.1c-0.6,6,0.4,12.3-2.6,18c-2.3,3.7-2,7.8-2.1,11.8c-0.1,2.7,0.7,5.6-0.6,8.2
	c-2-50.9-5.1-101.7-1.7-152.6c3.2-48.1,10.2-95.6,25.3-141.5c24.8-75.2,65.8-139.6,126.7-190.8c30.6-25.7,65.3-44.5,102.1-59.6
	c1.2-0.5,2.4-1,3.7-1.6c1.1,0.2,1.9-0.2,2.6-1c1.5-0.6,3-1.2,4.5-1.7c0.6,0.2,1,0,1.3-0.5c0.6-0.2,1.1-0.4,1.7-0.6
	c0.6,0.2,1,0.1,1.2-0.5c1.6-0.6,3.1-1.1,4.7-1.7c6.9-1.6,13.6-3.8,20.2-6.7c1.3-0.4,2.6-0.8,3.9-1.2c1.2,0.3,2.3,0.1,3.1-0.9
	c0.6-0.2,1.2-0.3,1.8-0.5c3.3-0.1,6.3-0.9,9.2-2.6c0.6-0.1,1.2-0.3,1.8-0.4c0.9,0.4,1.6,0.2,2.2-0.6c0.6-0.1,1.2-0.3,1.8-0.4
	c0.9,0.4,1.6,0.2,2.2-0.6c0.6-0.1,1.2-0.2,1.8-0.4c0.9,0.5,1.6,0.3,2.2-0.6c0.6-0.1,1.2-0.2,1.8-0.4c5.9-0.5,11.6-1.7,17.2-3.6
	c0.6-0.1,1.2-0.2,1.8-0.3c1.5,0.5,3,0.4,4.1-0.8c0.6-0.1,1.2-0.1,1.9-0.2c1.7,0.6,3.3,0.4,4.6-0.9c0.5,0,1,0,1.5-0.1
	c2.7,1,5.2-0.3,7.7-0.7c7.2-1.3,14.7-0.8,21.7-3.3c0.5,0,1,0,1.5,0c3.6,0.6,7.1,0.7,10.4-1c0.5,0,1,0,1.6,0c5.9,0.6,11.7,0.7,17.4-1
	c1.2,0,2.4,0,3.5,0c8.7,0.7,17.4,0.6,26.1,0c2.8,0,5.6,0.1,8.5,0.1c5.1,1.6,10.3,1.3,15.5,0.9c0.7,0,1.3,0.1,2,0.1
	c3.2,1.4,6.6,1.3,10,0.9c0.6,0.1,1.3,0.1,1.9,0.2c2.2,1.2,4.6,1.2,7.1,0.8c0.6,0.1,1.3,0.1,1.9,0.2c1.9,1.1,4,1.2,6.1,0.8
	c0.6,0.1,1.3,0.2,1.9,0.2c0.9,0.8,1.9,1,3,0.4c1.7,0.3,3.3,0.5,5,0.8c0.7,0.6,1.4,0.7,2.2,0.3c33.7,5.7,66.8,14.1,98.3,27.5
	C858.6,170.1,939.8,265.9,973.5,402c12.5,50.4,15.9,101.8,15.1,153.5c-0.5,34.1-1,68.3-1.5,102.4c0,1.2,0.2,2.3,0.3,3.5
	C987,662.1,986.6,662.9,986.2,663.6z"/>
<path class="st0" d="M120.2,671.1c-1,22.9-1.2,45.9-0.8,68.8c0.8,37,3.5,74,4.2,111c0.1,4.8,0.7,9.6,0.5,14.4
	c-8.2-13.8-13.7-28.7-18.4-43.9c-5.7-18.2-12.5-36.1-17.9-54.3c-6.5-21.8-11.8-44-10.4-67.1c0.4-7,1.8-13.8,5-20.2
	c2.8-5.6,7-9.6,12.9-11.8c3-1.1,6-1.3,8.5,0.7C108.9,673,114.3,673.1,120.2,671.1z"/>
<path class="st1" d="M505.4,84.2c-7,2.4-14.5,2-21.7,3.3c-2.5,0.4-5,1.6-7.7,0.7c4.2-2.8,9.1-2.2,13.7-2.8
	C494.9,84.6,500.1,82.9,505.4,84.2z"/>
<path class="st1" d="M413,102.5c-6.5,2.8-13.2,5-20.2,6.7C399.2,105.7,405.9,103.5,413,102.5z"/>
<path class="st1" d="M462,90.5c-5.6,2-11.3,3.2-17.2,3.6C450.2,91.4,456,90.5,462,90.5z"/>
<path class="st1" d="M517.4,83.2c-3.3,1.7-6.9,1.6-10.4,1C510.2,81.8,513.8,82.7,517.4,83.2z"/>
<path class="st1" d="M431,97.4c-2.8,1.6-5.9,2.4-9.2,2.6C424.6,98,427.7,97.3,431,97.4z"/>
<path class="st1" d="M468,89.3c-1.2,1.3-2.6,1.3-4.1,0.8C464.9,88.6,466.3,88.4,468,89.3z"/>
<path class="st1" d="M474.4,88.2c-1.3,1.3-2.9,1.5-4.6,0.9C471,87.3,472.7,87.6,474.4,88.2z"/>
<path class="st1" d="M420,100.4c-0.8,1-1.9,1.2-3.1,0.9C417.8,100.5,418.6,99.4,420,100.4z"/>
<path class="st1" d="M379.5,114.2c-0.7,0.9-1.5,1.2-2.6,1C377.5,114.1,378.3,113.7,379.5,114.2z"/>
<path class="st1" d="M435,96.4c-0.6,0.8-1.3,1.1-2.2,0.6C433.3,96,433.9,95.4,435,96.4z"/>
<path class="st1" d="M439,95.4c-0.6,0.8-1.3,1-2.2,0.6C437.3,95,437.9,94.4,439,95.4z"/>
<path class="st1" d="M443,94.5c-0.6,0.8-1.3,1-2.2,0.6C441.3,94.1,441.9,93.4,443,94.5z"/>
<path class="st1" d="M385.3,111.9c-0.3,0.6-0.7,0.7-1.3,0.5C384.3,111.9,384.7,111.7,385.3,111.9z"/>
<path class="st1" d="M388.2,110.8c-0.3,0.6-0.7,0.7-1.2,0.5C387.4,111.2,387.8,111,388.2,110.8z"/>
<path class="st1" d="M602,84.3c-3.4,0.4-6.8,0.5-10-0.9C595.4,82,598.7,83.1,602,84.3z"/>
<path class="st1" d="M611,85.3c-2.4,0.4-4.8,0.4-7.1-0.8C606.4,83.1,608.7,84.2,611,85.3z"/>
<path class="st1" d="M619,86.3c-2.1,0.4-4.1,0.3-6.1-0.8C615.1,84.1,617,85.3,619,86.3z"/>
<path class="st1" d="M623.9,86.9c-1.1,0.6-2.1,0.4-3-0.4C622,85.5,623,85.7,623.9,86.9z"/>
<path class="st1" d="M631.1,88c-0.8,0.4-1.5,0.3-2.2-0.3C629.8,86.6,630.4,87.1,631.1,88z"/>
<path class="st4" d="M123.5,641.3c3.1-5.7,2-12,2.6-18c1.8-18.4,4.2-36.8,7.4-55.1c3.5-19.9,7.1-39.7,9.9-59.7
	c5-35.2,9.6-70.6,20.1-104.7c10.1-32.9,24.6-63.8,46-91.1c22-28.1,51.8-43.3,85.5-52.1c19.5-5.1,39.4-5.8,59.3-4.8
	c16.2,0.8,32.1,4.2,48.1,7.1c13.5,2.4,27.2,3.5,40.9,4.9c20,2,40,2,60,3.8c1.3,0.1,2.7,0,4,0c20,0,40,0.1,59.9,0
	c19.6,0,39-1.9,58.5-3.8c16.3-1.6,32.3-5.5,48.6-6.9c13.5-1.2,27-2.4,40.6-3.5c16.9-1.3,33.8-2.3,50.7-1.7
	c20.5,0.7,40.4,5.1,59.4,13c25,10.5,46,26.5,63.8,46.7c14,15.8,24.3,34.1,32.7,53.3c11.8,26.9,17.7,55.4,22.3,84.3
	c2.8,17.6,6.5,35.1,9.8,52.7c6.2,32,12.8,63.9,20,95.7c2.8,12.3,5.5,24.5,7,37c0.2,1.3,0.7,2.2,1.8,2.8c-1.4,10.7-4.5,21.1-6.1,31.8
	c-2,13.8-3.5,27.8-3.5,41.7c0.2,48.5-12.9,93.9-30.7,138.2c-9.8,24.4-21.4,48.1-37.5,69.1c-19.7,25.7-42.6,48-70.4,65
	c-12.6,7.7-26.6,12.2-40.3,17.1c-16,5.8-31.5,12.3-44.8,23.5c-10.9,9.2-18.4,20.9-25.2,33.2c-4.5,8-8.9,16-12.5,24.4
	c-9.1,20.8-25.7,31.4-47.2,35.8c-12.9,2.6-26,3.8-39.1,3.9c-49.1,0.1-98.2,0.3-147.3-0.1c-15.9-0.1-31.9-1.5-47.2-6.8
	c-15.7-5.3-27.6-14.9-34.7-30.1c-5.1-11-11-21.6-16.8-32.3c-12.8-23.4-32.2-38.5-56.8-47.6c-10.9-4.1-21.8-8.1-32.7-12.3
	c-22.2-8.6-40-23.4-57.3-39.2c-34-31.1-55.7-70-72.1-112.4c-11.2-29.1-19.8-58.9-24.5-89.7c-1.3-8.5-2-17.2-2.1-25.8
	c-0.4-28.5-2.8-56.7-9.7-84.5C123.6,643.3,123.6,642.3,123.5,641.3z M554.3,990.2c34.1-0.1,68.2-0.9,102.3,1.8
	c27.1,2.2,49.2,12.9,64.4,36.2c1,1.6,2,3,4.2,2.9c8.3-0.4,16.7-0.9,22-8.3c5.2-7.3,2.2-14.8-1.5-21.7c-13.5-25.1-34.5-40.9-62-47.9
	c-27.9-7.1-56.3-8.9-85-9.3c-18.8-0.3-37.5,1.3-56.3,0.6c-37.7-1.3-75.5-1.3-112.7,6.7c-22.7,4.9-42.7,14.6-57.9,32.8
	c-6.1,7.3-11.8,14.9-14.5,24.2c-3.2,11.1,1.2,18.5,12.3,21.5c2.6,0.7,5.2,0.9,7.8,1.4c3.9,0.7,6.3-0.7,8.5-4.2
	c10.9-16.6,26.2-27,45.4-32c16.6-4.3,33.6-3.9,50.5-4.4C506,989.6,530.2,990.2,554.3,990.2z M777.3,495.3
	c-37.1-0.7-68.5,7.9-99.7,17.4c-11.5,3.5-17.1,12.2-18.5,23.7c-1.9,15,7.2,22.3,21.2,16.9c7.3-2.8,14.2-6.6,21.3-9.6
	c21.6-9.2,44.1-14.5,67.5-16.1c14.4-1,28.6-0.3,41.9,6.2c3.6,1.7,7.5,2.7,11.3,3.9c13.8,4.1,25.2-0.1,34.7-10.3
	c5.8-6.2,4.8-12.1-2.5-16.4c-2.6-1.5-5.3-2.7-8.1-3.7C822.8,498.8,798.4,494.5,777.3,495.3z M303.5,496.2c-6-0.3-16.1,0.4-26.2,1.5
	c-8.2,0.9-16.4,2.8-24.4,4.9c-9.3,2.4-18.7,4.7-27.2,9.6c-6.3,3.6-7.7,9.2-3.6,14.6c5,6.5,11.6,10.8,19.7,12.7
	c9.3,2.3,17.8-0.7,26.1-4.1c9.8-4,19.6-7,30.3-7c31.3-0.1,60.9,6.7,89.1,20.2c5.8,2.8,11.7,5.7,18,7.4c6.1,1.6,10.8-0.4,13.6-5.5
	c4.9-9.2,1.5-24.9-6.6-31.6c-5.9-4.9-13.1-6.2-20.1-8.3C364.7,502.2,336.8,496,303.5,496.2z M555.2,1077c1.2,0,2.3,0,3.5,0
	c28.4,0.3,56.8,0.2,84.8-6.1c16.6-3.7,29.3-12,32.7-30c2.5-13.2-0.7-25.7-5.8-37.9c-1-2.3-2.7-2-4.6-2c-15.5-0.2-30.9-0.2-46.4-0.6
	c-40.2-0.9-80.5,0.1-120.8-1c-22.6-0.6-45.3-0.2-67.9-0.4c-3.9,0-5.6,1.4-6.8,4.8c-2.4,6.6-4.2,13.2-5.1,20.2
	c-2.5,19,6.6,35.1,24.4,42.2c17.5,7,36.2,8.1,54.7,9.7C516.9,1077.5,536.1,1077,555.2,1077z M330,634.2c-5.1,0.4-10.9,0-16.7,1
	c-47.1,8.1-79.4,34.8-98.2,78.4c-0.8,1.8-0.9,3.3,0.1,5.1c15.4,27.8,37,49,67,60.6c26.3,10.2,53.5,11.8,81.3,8.1
	c35.1-4.6,65.9-18.5,93.1-40.9c2-1.6,2.7-3.1,2.2-5.5C446.4,676.6,389.9,633.5,330,634.2z M765.5,631.2c-4.9,0-11.4,0-17.8,1.2
	c-2.4,0.4-4.9,0.8-7.3,1.4c-54.6,14.3-88.5,48.7-101.2,103.9c-0.6,2.6-0.1,4.2,2.1,6c42.1,34.3,90,48,143.7,40.6
	c43.8-6,75.7-29.5,97.2-67.7c1.3-2.3,1.4-4.1,0.4-6.5C864,663.7,817.8,630.3,765.5,631.2z M541.7,941.2c20.3-0.1,36.4-3.8,51.2-12.6
	c14.5-8.6,24.7-20.5,28.4-37.4c1.1-5.2,0.5-9.9-2.8-14.1c-1.4-1.7-3.1-2.5-5.3-1.6c-2.5,1-2.4,2.7-1.8,4.9c0.7,2.9,0.5,5.9-0.1,8.9
	c-2.2,11.7-9.3,20-18.7,26.7c-11.1,7.8-23.6,12-37,13.5c-21.4,2.4-41.5-1.4-59.2-13.9c-11.9-8.4-19.6-19.5-18.1-34.9
	c0.4-4.2-1.1-6.7-4.7-7.3c-4.1-0.7-4.6,3-5.3,5.9c-0.2,0.8-0.2,1.7-0.2,2.5c-0.6,12.6,3.6,23.6,11.9,32.9
	C497.2,934,519.9,940.4,541.7,941.2z M586,1094.6c0-2.2-0.3-4.1-0.8-6.1c-0.9-3.5-2.3-4.5-6.3-3.9c-22.6,3.3-45.3,3.4-68-0.1
	c-1.6-0.2-3.1-0.9-4.5,0.9c-5.3,7.3-2.4,15.9,6.3,17.7c11.2,2.4,21.9,5.5,30.4,13.8c1.5,1.5,2.8,1.5,4.3,0c1.1-1,2.2-2,3.4-2.9
	c8.1-6.7,18-8.9,28-11C583.4,1102,586.4,1099.6,586,1094.6z"/>
<path class="st5" d="M554.3,990.2c-24.1,0-48.3-0.5-72.4,0.2c-16.9,0.5-33.9,0.1-50.5,4.4c-19.2,5-34.5,15.4-45.4,32
	c-2.3,3.4-4.7,4.8-8.5,4.2c-2.6-0.4-5.3-0.7-7.8-1.4c-11.1-2.9-15.5-10.4-12.3-21.5c2.7-9.3,8.4-16.9,14.5-24.2
	c15.2-18.2,35.2-27.8,57.9-32.8c37.2-8.1,75-8.1,112.7-6.7c18.8,0.7,37.5-0.9,56.3-0.6c28.7,0.4,57.1,2.2,85,9.3
	c27.6,7,48.5,22.8,62,47.9c3.7,6.8,6.7,14.4,1.5,21.7c-5.3,7.4-13.7,7.9-22,8.3c-2.2,0.1-3.2-1.3-4.2-2.9
	c-15.1-23.3-37.3-34-64.4-36.2C622.5,989.3,588.4,990,554.3,990.2z"/>
<path class="st6" d="M777.3,495.3c21.1-0.8,45.5,3.5,69.2,12c2.8,1,5.6,2.2,8.1,3.7c7.2,4.3,8.3,10.2,2.5,16.4
	c-9.5,10.1-21,14.3-34.7,10.3c-3.8-1.1-7.7-2.1-11.3-3.9c-13.4-6.5-27.6-7.2-41.9-6.2c-23.4,1.6-45.9,6.8-67.5,16.1
	c-7.2,3.1-14.1,6.8-21.3,9.6c-14,5.4-23.1-1.9-21.2-16.9c1.4-11.5,7.1-20.2,18.5-23.7C708.8,503.2,740.1,494.7,777.3,495.3z"/>
<path class="st6" d="M303.5,496.2c33.2-0.2,61.2,6,88.8,14.4c7,2.1,14.2,3.4,20.1,8.3c8.1,6.7,11.5,22.3,6.6,31.6
	c-2.7,5.1-7.5,7.1-13.6,5.5c-6.3-1.7-12.1-4.5-18-7.4c-28.1-13.6-57.8-20.3-89.1-20.2c-10.7,0-20.6,3.1-30.3,7
	c-8.3,3.4-16.8,6.4-26.1,4.1c-8.1-2-14.7-6.2-19.7-12.7c-4.1-5.4-2.7-11,3.6-14.6c8.5-4.9,17.9-7.2,27.2-9.6c8-2,16.2-4,24.4-4.9
	C287.4,496.6,297.6,495.9,303.5,496.2z"/>
<path class="st7" d="M555.2,1077c-19.1-0.1-38.3,0.5-57.3-1.2c-18.5-1.6-37.1-2.7-54.7-9.7c-17.8-7.1-26.9-23.2-24.4-42.2
	c0.9-7,2.7-13.6,5.1-20.2c1.3-3.5,2.9-4.9,6.8-4.8c22.6,0.3,45.3-0.2,67.9,0.4c40.3,1.1,80.5,0.1,120.8,1
	c15.5,0.4,30.9,0.4,46.4,0.6c1.8,0,3.6-0.2,4.6,2c5.1,12.1,8.3,24.6,5.8,37.9c-3.4,18-16.1,26.3-32.7,30
	c-27.9,6.3-56.4,6.4-84.8,6.1C557.5,1077,556.4,1077,555.2,1077z M547.7,1010c0-0.4,0-0.9,0-1.3c-14.5,0-28.9,0.1-43.4,0
	c-22.8-0.1-45.6-0.4-68.4-0.6c-1.9,0-3.9-0.7-4.9,2.1c-7.2,20.7-5.7,43,22.9,50.3c14.9,3.8,30.1,5.6,45.4,6.4
	c36.2,1.7,72.5,2.3,108.7,0.1c12.8-0.8,25.5-2.4,37.8-5.9c14.8-4.3,21.9-13.8,21.9-29.3c0-5.9-1.5-11.5-2.8-17.1
	c-0.9-3.5-2.3-4.7-6-4.7C621.9,1010,584.8,1010,547.7,1010z"/>
<path class="st8" d="M330,634.2c59.8-0.7,116.4,42.4,128.8,106.9c0.5,2.4-0.2,3.9-2.2,5.5c-27.2,22.4-58,36.3-93.1,40.9
	c-27.8,3.6-55,2-81.3-8.1c-30-11.6-51.6-32.8-67-60.6c-1-1.8-0.9-3.3-0.1-5.1c18.9-43.5,51.1-70.2,98.2-78.4
	C319.2,634.2,325,634.6,330,634.2z M392.1,660.4c0.4-0.9-0.4-0.8-0.9-1c-1.5-1.6-3.3-2.7-5.2-3.7c-20.1-10.6-41.5-14.4-64-12.3
	c-2.5,0-5-0.2-7.5,0.2c-42.1,7.3-71.8,30.9-90,69.3c-0.9,1.9-0.9,3.5,0.2,5.5c15.9,27.2,38.3,46.4,68.6,55.9
	c4.8,1.5,9.6,3.6,14.8,3.1l-0.2-0.1c0,1.6,1.4,0.6,2,1c7.2,2.4,14.7,2.3,22.1,3c11.1,1,22.2-1,33.2-2.1c5.1-0.5,10.6-0.7,15.2-3.7
	c1-0.1,2,0,3-0.2c23.7-6.3,45.1-17.2,64.4-32.3c2-1.6,1.8-3,1.3-5.1c-4.4-18.5-12.5-35.3-24.5-50c-8.6-10.6-18.4-20-30.6-26.4
	l0.1,0.1c-0.4-1-1.1-1.3-2.2-1L392.1,660.4z"/>
<path class="st8" d="M765.5,631.2c52.3-1,98.4,32.5,117.1,78.8c1,2.4,0.8,4.2-0.4,6.5c-21.5,38.2-53.4,61.7-97.2,67.7
	c-53.7,7.3-101.6-6.4-143.7-40.6c-2.2-1.8-2.7-3.4-2.1-6c12.7-55.2,46.6-89.6,101.2-103.9c2.4-0.6,4.9-1,7.3-1.4
	C754.1,631.3,760.6,631.2,765.5,631.2z M770.8,640.4c-16.3-1.2-32.3,0.6-47.4,7.1c-11.5,5-23.2,9.8-31.6,19.7
	c-1.9-0.2-3,1.3-4.2,2.4c-19.8,17.5-32.6,39.1-39,64.7c-0.7,3,0,4.4,2.2,6.2c15.2,11.8,31.8,21,50,27.4c2.5,0.9,4.8,3,7.9,2.2
	c0.7,1.4,2.3,1.4,3.4,1.7c18,4.6,36.4,7.1,54.9,6.1c5-0.3,10.7,0.6,15.4-2.7c0.3,0.6,0.8,1,1.6,0.9c38.9-6.4,68.7-26.1,88.7-60.3
	c1.3-2.2,1.5-4,0.4-6.4c-5.2-11.1-11.4-21.5-19.7-30.4C831.2,655,804.6,640,770.8,640.4z"/>
<path class="st9" d="M541.7,941.2c-21.8-0.8-44.5-7.2-61.7-26.6c-8.3-9.3-12.5-20.3-11.9-32.9c0-0.8,0-1.7,0.2-2.5
	c0.7-2.9,1.2-6.6,5.3-5.9c3.6,0.6,5.1,3,4.7,7.3c-1.5,15.4,6.2,26.5,18.1,34.9c17.8,12.5,37.8,16.3,59.2,13.9
	c13.5-1.5,25.9-5.7,37-13.5c9.4-6.6,16.5-15,18.7-26.7c0.6-3,0.8-6,0.1-8.9c-0.5-2.2-0.6-3.9,1.8-4.9c2.2-0.9,3.9-0.1,5.3,1.6
	c3.4,4.2,4,8.9,2.8,14.1c-3.7,16.9-13.9,28.8-28.4,37.4C578.1,937.4,562,941.1,541.7,941.2z"/>
<path class="st10" d="M586,1094.6c0.4,5-2.6,7.5-7.2,8.4c-10,2.1-19.8,4.3-28,11c-1.2,0.9-2.3,1.9-3.4,2.9c-1.5,1.5-2.8,1.5-4.3,0
	c-8.4-8.3-19.2-11.4-30.4-13.8c-8.7-1.8-11.6-10.4-6.3-17.7c1.3-1.8,2.8-1.1,4.5-0.9c22.7,3.5,45.4,3.4,68,0.1
	c4-0.6,5.4,0.4,6.3,3.9C585.7,1090.5,586,1092.4,586,1094.6z"/>
<path class="st11" d="M547.7,1010c37.1,0,74.2,0.1,111.3-0.1c3.7,0,5.2,1.2,6,4.7c1.4,5.7,2.9,11.2,2.8,17.1
	c0,15.4-7.1,25-21.9,29.3c-12.4,3.5-25.1,5.2-37.8,5.9c-36.2,2.2-72.5,1.6-108.7-0.1c-15.3-0.7-30.5-2.6-45.4-6.4
	c-28.7-7.3-30.2-29.5-22.9-50.3c1-2.8,3-2.1,4.9-2.1c22.8,0.2,45.6,0.4,68.4,0.6c14.5,0.1,28.9,0,43.4,0
	C547.7,1009.1,547.7,1009.5,547.7,1010z M478.7,1033.7c3.4,4.7,51,7.7,102.2,6.2c10.5-0.3,21.1-0.6,31.4-3.9
	c-44.3,3.5-88.4,2.9-132.3-2.9C479.5,1033.1,479.1,1033.5,478.7,1033.7z"/>
<path class="st12" d="M322,643.4c22.5-2.1,43.9,1.7,64,12.3c1.9,1,3.7,2.1,5.2,3.7c0.3,0.3,0.6,0.7,0.9,1c0,0-0.1-0.1-0.1-0.1
	c0.6,0.7,0.8,2,2.2,1c0,0-0.1-0.1-0.1-0.1c-0.9,2.2,1.3,2.6,2.2,3.7c10.5,12.4,16.8,26.6,17.7,42.9c1.6,28.7-9.7,51.2-33.4,67.5
	c-4.6,3-10.1,3.2-15.2,3.7c-11,1.1-22.1,3.1-33.2,2.1c-7.4-0.6-14.9-0.6-22.1-3c-0.3-1.1-1.2-1-2-1c0,0,0.2,0.1,0.2,0.1
	c-0.8-1.8-2.8-2.2-4.2-3.2c-23.2-16.8-34.3-39.7-31.5-68c2.8-28.4,18.1-48.6,44.3-60.3C318.6,645,320.7,645,322,643.4z M323.9,672.7
	c-1.4-0.5-2.8-1.1-4.2-1.5c-7.1-2-14.7,0.3-18.8,5.9c-4.2,5.8-3.3,11.5,0.5,17.1c-0.5,0.6-1.2,1.2-1.5,1.9
	c-7.8,18.2-3.4,37.6,10.6,50.7c18,16.8,43.3,17.9,63,3.1c22.3-16.7,23.4-48,5.8-66.9c-9.3-10-21.2-15-34.6-15.3
	C337.7,667.5,330.1,668.1,323.9,672.7z"/>
<path class="st13" d="M322,643.4c-1.3,1.6-3.4,1.6-5.1,2.4c-26.2,11.7-41.5,31.9-44.3,60.3c-2.8,28.4,8.2,51.2,31.5,68
	c1.4,1,3.4,1.4,4.2,3.2c-5.3,0.5-10-1.6-14.8-3.1c-30.3-9.4-52.7-28.7-68.6-55.9c-1.1-2-1.2-3.5-0.2-5.5c18.3-38.4,47.9-62,90-69.3
	C317,643.2,319.5,643.4,322,643.4z"/>
<path class="st14" d="M380.6,775.3c23.7-16.3,35-38.7,33.4-67.5c-0.9-16.3-7.2-30.5-17.7-42.9c-0.9-1-3.1-1.5-2.2-3.7
	c12.3,6.4,22,15.9,30.6,26.4c12,14.7,20.2,31.4,24.5,50c0.5,2.1,0.7,3.5-1.3,5.1c-19.3,15.1-40.7,26-64.4,32.3
	C382.6,775.3,381.6,775.2,380.6,775.3z"/>
<path class="st14" d="M394.2,661.3c-1.3,1-1.6-0.3-2.2-1C393,660,393.8,660.2,394.2,661.3z"/>
<path class="st13" d="M308.1,777.2c0.8,0,1.7-0.1,2,1C309.4,777.8,308.1,778.8,308.1,777.2z"/>
<path class="st14" d="M392.1,660.4c-0.3-0.3-0.6-0.7-0.9-1C391.7,659.6,392.5,659.5,392.1,660.4z"/>
<path class="st12" d="M782.5,775.2c-4.7,3.3-10.3,2.5-15.4,2.7c-18.6,1-36.9-1.5-54.9-6.1c-1.2-0.3-2.7-0.3-3.4-1.7
	c-0.8-0.8-1.7-1.5-2.6-2.3c-23.7-20.2-31.9-45.6-25.3-75.9c1.9-9,6.7-16.8,11-24.8c8.5-9.9,20.1-14.7,31.6-19.7
	c15.1-6.5,31.1-8.3,47.4-7.1c0.1,1.2,1.2,0.9,1.9,1.1c42.1,15.5,60.5,64.1,39.4,103.7C805.2,758.2,794.9,767.7,782.5,775.2z
	 M705.1,690.1c-6.4,9.1-6.8,19.6-4.7,29.6c3.9,19.2,16.6,31.1,35.3,35.9c17.9,4.6,33.8-0.7,46.4-13.6c19.7-20.1,15.8-52.7-7.4-68.7
	c-7.5-5.2-15.9-7.9-25.1-8.4c-7.8-0.4-15.1,0.4-21.9,4.3c-1.3-0.4-2.5-0.8-3.8-1.1c-7.1-1.9-13.2-0.2-18,5.3
	C701.4,678.6,701.9,684.4,705.1,690.1z"/>
<path class="st11" d="M782.5,775.2c12.4-7.5,22.7-17,29.6-30c21.2-39.6,2.7-88.2-39.4-103.7c-0.7-0.3-1.7,0-1.9-1.1
	c33.7-0.4,60.3,14.6,82.6,38.7c8.3,9,14.5,19.4,19.7,30.4c1.1,2.4,0.9,4.1-0.4,6.4c-20,34.2-49.9,53.9-88.7,60.3
	C783.3,776.3,782.8,775.9,782.5,775.2z"/>
<path class="st14" d="M691.8,667.2c-4.2,8-9,15.8-11,24.8c-6.5,30.3,1.6,55.7,25.3,75.9c0.9,0.7,1.7,1.5,2.6,2.3
	c-3.1,0.8-5.3-1.3-7.9-2.2c-18.2-6.4-34.8-15.6-50-27.4c-2.2-1.7-3-3.2-2.2-6.2c6.4-25.6,19.2-47.2,39-64.7
	C688.9,668.5,689.9,667,691.8,667.2z"/>
<path class="st15" d="M478.7,1033.7c0.4-0.2,0.9-0.6,1.2-0.6c44,5.8,88.1,6.4,132.3,2.9c-10.2,3.3-20.9,3.6-31.4,3.9
	C529.7,1041.4,482.1,1038.5,478.7,1033.7z"/>
<path class="st5" d="M323.9,672.7c6.2-4.6,13.8-5.2,20.8-5c13.4,0.3,25.2,5.3,34.6,15.3c17.6,18.9,16.5,50.2-5.8,66.9
	c-19.7,14.8-45,13.7-63-3.1c-14-13.1-18.4-32.5-10.6-50.7c0.3-0.7,1-1.3,1.5-1.9c1.3,1,2.6,2.1,4,3c7.6,4.7,18.4,2.7,23.3-4.2
	C333.4,686.3,331.7,679.2,323.9,672.7z"/>
<path class="st16" d="M323.9,672.7c7.8,6.5,9.5,13.6,4.8,20.2c-4.9,6.9-15.7,8.9-23.3,4.2c-1.4-0.9-2.6-2-4-3
	c-3.7-5.6-4.7-11.3-0.5-17.1c4.1-5.6,11.6-7.9,18.8-5.9C321.1,671.6,322.5,672.2,323.9,672.7z"/>
<path class="st5" d="M727.7,669.3c6.8-3.9,14.1-4.7,21.9-4.3c9.3,0.5,17.6,3.2,25.1,8.4c23.2,16,27.1,48.6,7.4,68.7
	c-12.6,12.9-28.5,18.2-46.4,13.6c-18.8-4.8-31.4-16.7-35.3-35.9c-2-10-1.7-20.5,4.7-29.6c1.1,1,2.1,2.1,3.3,3
	c7.4,5.7,19.1,4.4,24.5-2.7C738.2,683.4,736.4,675.9,727.7,669.3z"/>
<path class="st17" d="M727.7,669.3c8.6,6.6,10.4,14.1,5.1,21.1c-5.5,7.1-17.1,8.4-24.5,2.7c-1.2-0.9-2.2-2-3.3-3
	c-3.1-5.7-3.7-11.5,0.9-16.6c4.8-5.5,10.9-7.2,18-5.3C725.2,668.5,726.5,668.9,727.7,669.3z"/>
</svg>
