<?xml version="1.0" encoding="utf-8"?>
<!-- Generator: Adobe Illustrator 24.0.1, SVG Export Plug-In . SVG Version: 6.00 Build 0)  -->
<svg version="1.1" id="Layer_1" xmlns="http://www.w3.org/2000/svg" xmlns:xlink="http://www.w3.org/1999/xlink" x="0px" y="0px"
	 viewBox="0 0 73 331.5" style="enable-background:new 0 0 73 331.5;" xml:space="preserve">
<style type="text/css">
	.st0{fill:#57972F;}
	.st1{fill:#C2BEBF;}
	.st2{fill:#E0ECD9;}
	.st3{fill:#6BA347;}
	.st4{fill:#8FBA74;}
	.st5{fill:#7AAD5A;}
	.st6{fill:#6DA54A;}
	.st7{fill:#BDBCB9;}
	.st8{fill:#BEBDBB;}
	.st9{fill:#BEBDBA;}
	.st10{fill:#C0BDBD;}
	.st11{fill:#BFBDBB;}
	.st12{fill:#BFBDBC;}
	.st13{fill:#579830;}
	.st14{fill:#599833;}
	.st15{fill:#589830;}
	.st16{fill:#589831;}
</style>
<g id="ntmSvf.tif">
	<g>
		<g>
			<path class="st0" d="M0.6,330.5c0-0.3,0-0.7,0-1c0.2-1.1,0.5-2.3,0.5-3.4c0-8,0-16,0-24c1.5,0,3-0.1,4.5-0.1
				c22.3,0,44.6,0,66.9,0c0,8.7,0,17.3,0.1,26c0,0.8,0.3,1.7,0.5,2.5c0,0.7,0,1.3,0,2c-0.5,0-1,0-1.5,0c-0.8-0.2-1.7-0.5-2.5-0.5
				c-22.3,0-44.6,0-67,0C1.6,331.5,1.1,331,0.6,330.5z"/>
			<path class="st0" d="M71.6,0.5c0.5,0,1,0,1.5,0c0,0.7,0,1.3,0,2C73,3.3,72.7,4.1,72.7,5c-0.1,7.3-0.1,14.6-0.1,21.9
				c-0.3,0-0.7,0-1,0c-23,0-46,0-68.9,0c-0.5,0-1,0-1.5-0.1c0-7.4,0-14.8,0-22.1c0-1.4-0.1-2.9,1.4-3.7C4,1,5.4,1,6.8,1
				c20.6,0,41.1,0,61.7,0C69.6,0.9,70.6,0.6,71.6,0.5z"/>
			<path class="st1" d="M72.6,302c-22.3,0-44.6,0-66.9,0c-1.5,0-3,0-4.5,0.1C1,302,0.8,302,0.6,302c0-4.5,0-9,0-13.5
				c0.2,0,0.3-0.1,0.5-0.1c2.3,0,4.7,0.1,7,0.1c21.5,0,43,0,64.4,0C72.6,292.9,72.6,297.5,72.6,302z"/>
			<path class="st1" d="M1.2,26.9c0.5,0,1,0.1,1.5,0.1c23,0,46,0,68.9,0c0.3,0,0.7,0,1,0c0,4.4,0,8.7,0,13.1c-0.5,0-1,0-1.5,0
				c-22.6,0-45.3,0-67.9,0c-0.7,0-1.3,0.1-2,0.1C1,40,0.8,40,0.6,40c0-4.3,0-8.7,0-13C0.8,26.9,1,26.9,1.2,26.9z"/>
			<path class="st2" d="M72.6,40c0-4.4,0-8.7,0-13.1c0-7.3,0-14.6,0.1-21.9c0-0.8,0.3-1.7,0.5-2.5c0,109.3,0,218.7,0,328
				c-0.2-0.8-0.5-1.7-0.5-2.5c-0.1-8.7-0.1-17.3-0.1-26c0-4.5,0-9.1,0-13.6c0-0.8,0-1.7,0-2.5c0-81.1,0-162.3,0-243.4
				C72.6,41.7,72.6,40.8,72.6,40z"/>
			<path class="st3" d="M0.6,40C0.8,40,1,40,1.2,40c0,1.5,0,3,0,4.5c0,63.9,0,127.8,0,191.6c0,17.4,0,34.8,0,52.2
				c-0.2,0-0.3,0.1-0.5,0.1C0.6,205.6,0.6,122.8,0.6,40z"/>
			<path class="st4" d="M2.1,332c22.3,0,44.6,0,67,0c0.9,0,1.7,0.3,2.5,0.5c-23.2,0-46.3,0-69.5,0C2.1,332.3,2.1,332.1,2.1,332z"/>
			<path class="st5" d="M71.6,0.5c-1,0.2-2.1,0.5-3.1,0.5C48,1,27.4,1,6.8,1C5.4,1,4,1,2.6,1.1c0-0.2,0-0.4,0.1-0.6
				C25.6,0.5,48.6,0.5,71.6,0.5z"/>
			<path class="st6" d="M2.6,0.5c0,0.2,0,0.4-0.1,0.6C1,1.9,1.1,3.3,1.1,4.8c0,7.4,0,14.8,0,22.1c-0.2,0-0.3,0.1-0.5,0.1
				c0-8.8,0-17.7,0-26.5C1.3,0.5,2,0.5,2.6,0.5z"/>
			<path class="st6" d="M0.6,302c0.2,0,0.3,0.1,0.5,0.1c0,8,0,16,0,24c0,1.1-0.3,2.3-0.5,3.4C0.6,320.3,0.6,311.1,0.6,302z"/>
			<path class="st6" d="M2.1,332c0,0.2,0,0.3,0,0.5c-0.5,0-1,0-1.5,0c0-0.7,0-1.3,0-2C1.1,331,1.6,331.5,2.1,332z"/>
			<path class="st0" d="M1.2,288.4c0-17.4,0-34.8,0-52.2c0-63.9,0-127.8,0-191.6c0-1.5,0-3,0-4.5c0.7,0,1.3-0.1,2-0.1
				c22.6,0,45.3,0,67.9,0c0.5,0,1,0,1.5,0c0,0.8,0,1.7,0,2.5c0,81.1,0,162.3,0,243.4c0,0.8,0,1.7,0,2.5c-21.5,0-43,0-64.4,0
				C5.8,288.5,3.5,288.4,1.2,288.4z M49,243.2c0-2,0-3.6,0-5.2c-2.5-0.6-35.2-0.5-37.3,0.1c0,1.5,0,3.1,0,4.9
				c7.9,3.3,15.7,6.6,24.1,10.2c-8.4,3.6-16.3,7-24,10.3c0,1.8,0,3.4,0,5.1c12.5,0,24.8,0,37.2,0c0-1.8,0-3.5,0-5.5
				c-7.2,0-14.3,0-21.4,0c0-0.2-0.1-0.4-0.1-0.7c5.4-2.3,10.8-4.6,16.1-6.9c0-1.7,0-3.2,0-4.8c-5.5-2.3-10.8-4.6-16.2-6.9
				c0.1-0.2,0.1-0.5,0.2-0.7C34.7,243.2,41.9,243.2,49,243.2z M49.2,86.6c0-5.2,0-10.1,0-15.1c0.1-8.4-8.8-12.4-15.6-8.9
				c-1.6,0.8-2.6,2.5-4,3.9c-0.1-0.1-0.3-0.3-0.5-0.6c-2.3-3.7-5.8-4.5-9.8-3.7c-4.1,0.8-6.6,3.4-7.2,7.6c-0.3,2.3-0.3,4.6-0.4,7
				c-0.1,3.2,0,6.5,0,9.9C24.3,86.6,36.6,86.6,49.2,86.6z M49.1,120.3c0-5.1,0.3-9.9-0.1-14.6c-0.4-5.2-5.1-10.2-10.1-10.6
				c-5.3-0.4-10.7-0.5-15.9-0.2c-5.9,0.4-10.5,4.9-11,10.8c-0.4,4.7-0.1,9.5-0.1,14.6C24.3,120.3,36.6,120.3,49.1,120.3z
				 M47.3,159.8c2.9-0.4,5,0.2,6.2,1.9c2.3,3.2,0.9,6.1-1.1,8.9c1.1,1.4,2.1,2.6,3.1,3.7c3.9-2.3,5.4-7.7,4.3-11.8
				c-1.3-4.7-4.5-7.5-9.4-8c-0.7-0.1-1.5-0.1-2.2-0.1c-7.7,0-15.3,0-23,0c-0.8,0-1.6,0-2.5,0c0,1.8,0,3.3,0,4.8
				c0.7,0.3,1.3,0.5,2,0.7c-0.4,0.6-0.7,1.1-1,1.6c-3.3,5.5-0.5,12.2,5.8,12.9c4.4,0.5,9,0.4,13.4-0.1c4.4-0.5,7.3-5,6.5-9.4
				C48.9,163.3,48,161.6,47.3,159.8z M35.8,148.5c1.8-0.2,3.6-0.3,5.4-0.6c5-0.9,8.4-5.3,8.3-10.4c-0.1-5.3-3.8-9.5-9-10
				c-3.1-0.3-6.3-0.3-9.4,0c-5.1,0.5-8.7,4.6-8.8,9.8c-0.2,5.2,3.2,9.6,8.1,10.5C32.1,148.2,33.9,148.3,35.8,148.5z M35.9,230.5
				c1.8-0.2,3.5-0.3,5.2-0.6c5-0.9,8.4-5.2,8.3-10.3c-0.1-5.3-3.7-9.6-8.9-10.1c-3.1-0.3-6.3-0.3-9.4,0c-5.1,0.4-8.7,4.6-8.9,9.7
				c-0.2,5.3,3.2,9.7,8.2,10.7C32.2,230.3,34.1,230.3,35.9,230.5z M49.1,197.6c-0.8,0-1.6-0.1-2.4-0.1c-4.2,0-8.3,0-12.5,0
				c-1.1,0-2.3-0.2-3.4-0.5c-2-0.7-3.2-2.8-3.1-4.9c0.2-2.3,1.7-4.1,4-4.5c1-0.2,2-0.2,3-0.2c3.9,0,7.8,0,11.7,0
				c0.9,0,1.8-0.1,2.6-0.2c0-1.8,0-3.4,0-5c-6.4,0-12.7-0.1-18.9,0.1c-2.3,0.1-4.3,1.1-5.8,3c-2.7,3.3-2.7,7.4-0.1,11.1
				c0.2,0.3,0.4,0.6,0.7,1.1c-0.8,0.2-1.4,0.3-2.1,0.4c0,1.6,0,3.2,0,4.7c3.8,0.6,24.5,0.4,26.3-0.2
				C49.1,200.7,49.1,199.3,49.1,197.6z"/>
			<path class="st7" d="M49,243.2c-7.2,0-14.3,0-21.4,0c-0.1,0.2-0.1,0.5-0.2,0.7c5.4,2.3,10.8,4.6,16.2,6.9c0,1.6,0,3,0,4.8
				c-5.4,2.3-10.7,4.6-16.1,6.9c0,0.2,0.1,0.4,0.1,0.7c7.1,0,14.2,0,21.4,0c0,2,0,3.6,0,5.5c-12.4,0-24.8,0-37.2,0
				c0-1.8,0-3.3,0-5.1c7.8-3.3,15.6-6.7,24-10.3c-8.4-3.5-16.2-6.8-24.1-10.2c0-1.8,0-3.3,0-4.9c2-0.6,34.8-0.7,37.3-0.1
				C49,239.6,49,241.3,49,243.2z"/>
			<path class="st8" d="M49.2,86.6c-12.6,0-24.9,0-37.5,0c0-3.4,0-6.7,0-9.9c0-2.3,0-4.7,0.4-7c0.6-4.2,3.1-6.7,7.2-7.6
				c4-0.8,7.5,0,9.8,3.7c0.2,0.3,0.4,0.5,0.5,0.6c1.4-1.4,2.4-3.1,4-3.9c6.8-3.5,15.7,0.5,15.6,8.9C49.1,76.5,49.2,81.4,49.2,86.6z
				 M32.7,80.9c3.8,0,7.3,0,10.9,0c0-3.4,0.2-6.6-0.1-9.8c-0.2-2.7-2.7-4.3-5.6-4.2c-2.8,0.1-5,1.7-5.2,4.4
				C32.5,74.5,32.7,77.6,32.7,80.9z M27.5,80.9c0-3.3,0.4-6.4-0.3-9.5c-0.5-2.3-2.5-3.8-4.9-3.9c-2.4-0.1-4.6,1.3-5.2,3.5
				c-0.8,3.3-0.4,6.5-0.4,10C20.5,80.9,23.8,80.9,27.5,80.9z"/>
			<path class="st9" d="M49.1,120.3c-12.4,0-24.8,0-37.2,0c0-5.2-0.3-9.9,0.1-14.6c0.5-5.9,5.1-10.4,11-10.8
				c5.3-0.4,10.7-0.3,15.9,0.2c5,0.4,9.7,5.4,10.1,10.6C49.3,110.4,49.1,115.2,49.1,120.3z M43.5,114.5c0-3,0.3-5.8-0.1-8.6
				c-0.4-3.2-3-5.3-6.2-5.5c-4.4-0.2-8.8-0.2-13.2,0c-3.2,0.1-5.7,2.4-6.4,5.4c-0.7,2.8-0.3,5.7-0.3,8.7
				C26.1,114.5,34.8,114.5,43.5,114.5z"/>
			<path class="st10" d="M47.3,159.8c0.7,1.9,1.6,3.5,1.9,5.2c0.8,4.4-2,8.9-6.5,9.4c-4.4,0.5-9,0.7-13.4,0.1
				c-6.3-0.8-9.1-7.5-5.8-12.9c0.3-0.5,0.6-1,1-1.6c-0.7-0.3-1.3-0.5-2-0.7c0-1.5,0-2.9,0-4.8c0.9,0,1.7,0,2.5,0c7.7,0,15.3,0,23,0
				c0.7,0,1.5,0,2.2,0.1c4.9,0.5,8.2,3.3,9.4,8c1.1,4.1-0.4,9.4-4.3,11.8c-1-1.2-2-2.4-3.1-3.7c2-2.8,3.4-5.7,1.1-8.9
				C52.3,160,50.3,159.4,47.3,159.8z M35.8,159.5c-1.3,0.1-2.8,0.1-4.2,0.3c-2.3,0.4-3.9,2.4-4,4.8c0,2.4,1.7,4.7,4,4.9
				c2.6,0.2,5.3,0.1,7.9,0.1c2.5,0,4.3-2.6,4.3-4.9c0-2.5-1.8-4.5-4.4-4.9C38.4,159.6,37.2,159.6,35.8,159.5z"/>
			<path class="st11" d="M35.8,148.5c-1.9-0.2-3.7-0.3-5.5-0.6c-4.9-1-8.2-5.4-8.1-10.5c0.2-5.2,3.8-9.4,8.8-9.8
				c3.1-0.3,6.3-0.3,9.4,0c5.2,0.5,8.8,4.7,9,10c0.1,5.1-3.3,9.5-8.3,10.4C39.4,148.3,37.6,148.3,35.8,148.5z M35.9,143.1
				c1.1-0.1,2.3,0,3.5-0.2c2.8-0.4,4.5-2.4,4.6-5.1c0.1-2.6-1.6-4.9-4.4-5.2c-2.5-0.3-5-0.3-7.5,0c-2.8,0.3-4.5,2.5-4.5,5.1
				c0,2.8,1.8,4.8,4.7,5.2C33.5,143.1,34.7,143.1,35.9,143.1z"/>
			<path class="st11" d="M35.9,230.5c-1.8-0.2-3.6-0.3-5.4-0.6c-5-0.9-8.4-5.4-8.2-10.7c0.2-5.2,3.8-9.3,8.9-9.7
				c3.1-0.3,6.3-0.3,9.4,0c5.2,0.5,8.8,4.8,8.9,10.1c0.1,5.1-3.3,9.4-8.3,10.3C39.4,230.2,37.6,230.3,35.9,230.5z M35.8,225.1
				c1.2-0.1,2.3,0,3.5-0.2c2.9-0.4,4.7-2.5,4.7-5.2c0-2.6-1.7-4.8-4.5-5.1c-2.4-0.3-4.8-0.3-7.2,0c-2.9,0.3-4.7,2.6-4.6,5.3
				c0.1,2.7,1.8,4.6,4.6,5C33.4,225.1,34.6,225.1,35.8,225.1z"/>
			<path class="st12" d="M49.1,197.6c0,1.7,0,3.1,0,4.5c-1.8,0.6-22.6,0.8-26.3,0.2c0-1.5,0-3,0-4.7c0.6-0.1,1.2-0.2,2.1-0.4
				c-0.3-0.4-0.4-0.7-0.7-1.1c-2.6-3.6-2.5-7.8,0.1-11.1c1.5-1.9,3.6-2.9,5.8-3c6.2-0.1,12.4-0.1,18.9-0.1c0,1.6,0,3.2,0,5
				c-0.9,0.1-1.7,0.2-2.6,0.2c-3.9,0-7.8,0-11.7,0c-1,0-2,0-3,0.2c-2.3,0.4-3.8,2.2-4,4.5c-0.1,2.2,1.1,4.2,3.1,4.9
				c1.1,0.4,2.3,0.5,3.4,0.5c4.2,0.1,8.3,0,12.5,0C47.5,197.5,48.3,197.5,49.1,197.6z"/>
			<path class="st13" d="M32.7,80.9c0-3.3-0.2-6.5,0.1-9.6c0.2-2.7,2.4-4.3,5.2-4.4c2.9-0.1,5.4,1.5,5.6,4.2
				c0.3,3.2,0.1,6.4,0.1,9.8C39.9,80.9,36.5,80.9,32.7,80.9z"/>
			<path class="st14" d="M27.5,80.9c-3.6,0-7,0-10.6,0c0-3.4-0.4-6.7,0.4-10c0.5-2.2,2.7-3.6,5.2-3.5c2.4,0.1,4.4,1.6,4.9,3.9
				C27.8,74.5,27.5,77.6,27.5,80.9z"/>
			<path class="st15" d="M43.5,114.5c-8.7,0-17.3,0-26.3,0c0-2.9-0.4-5.8,0.3-8.7c0.8-3,3.3-5.2,6.4-5.4c4.4-0.2,8.8-0.2,13.2,0
				c3.2,0.1,5.8,2.3,6.2,5.5C43.8,108.6,43.5,111.5,43.5,114.5z"/>
			<path class="st14" d="M35.8,159.5c1.4,0.1,2.6,0.1,3.7,0.3c2.6,0.3,4.4,2.4,4.4,4.9c0,2.4-1.9,5-4.3,4.9c-2.6,0-5.3,0.1-7.9-0.1
				c-2.4-0.2-4.1-2.5-4-4.9c0-2.3,1.7-4.4,4-4.8C33.1,159.6,34.6,159.6,35.8,159.5z"/>
			<path class="st16" d="M35.9,143.1c-1.2-0.1-2.4,0-3.5-0.2c-2.9-0.4-4.7-2.4-4.7-5.2c0-2.7,1.7-4.9,4.5-5.1c2.5-0.3,5-0.3,7.5,0
				c2.7,0.3,4.4,2.6,4.4,5.2c-0.1,2.7-1.8,4.7-4.6,5.1C38.2,143.1,37,143.1,35.9,143.1z"/>
			<path class="st16" d="M35.8,225.1c-1.2-0.1-2.3,0-3.5-0.2c-2.8-0.4-4.5-2.4-4.6-5c-0.1-2.8,1.7-5,4.6-5.3c2.4-0.2,4.8-0.2,7.2,0
				c2.8,0.3,4.5,2.5,4.5,5.1c0,2.7-1.8,4.8-4.7,5.2C38.1,225.1,36.9,225.1,35.8,225.1z"/>
		</g>
	</g>
</g>
</svg>
