<?xml version="1.0" encoding="utf-8"?>
<!-- Generator: Adobe Illustrator 24.0.1, SVG Export Plug-In . SVG Version: 6.00 Build 0)  -->
<svg version="1.1" id="Layer_1" xmlns="http://www.w3.org/2000/svg" xmlns:xlink="http://www.w3.org/1999/xlink" x="0px" y="0px"
	 viewBox="0 0 299.5 201.5" style="enable-background:new 0 0 299.5 201.5;" xml:space="preserve">
<style type="text/css">
	.st0{fill:#232323;}
	.st1{fill:#D8D8D8;}
	.st2{fill:#C8FCCA;}
	.st3{fill:#1D1D1D;}
	.st4{fill:#242524;}
</style>
<path class="st0" d="M204.9,196.1c1.1,0.1,2.3,0.1,3.4,0.2c0.7,1.5,0.4,3.2,0.5,4.8c-0.8,0.1-1.6,0.1-2.4,0.2c-1.7,0-3.3,0-5,0
	c-2.8-0.1-5.7-0.1-8.5,0c-7-0.2-14-0.1-21,0c-1.3-0.1-2.7-0.1-4,0c-1.3-0.1-2.7-0.1-4,0c-1.2-0.1-2.3-0.1-3.5,0
	c-1.7-0.1-3.3-0.1-5,0c-4.2-0.1-8.3-0.1-12.5,0c-1.7-0.1-3.3-0.1-5,0c-1.2-0.1-2.3-0.1-3.5,0c-1.3-0.1-2.7-0.1-4,0
	c-1.7-0.1-3.3-0.1-5,0c-5-0.1-10-0.2-15,0c-2.8-0.1-5.7-0.1-8.5,0c-1.3,0-2.7,0-4,0c-0.3-0.1-0.6-0.2-0.9-0.2c0-1.2,0.1-2.5,0-3.7
	c0-0.7,0.1-1.1,0.9-1.2c2.2,0.2,4.3,0.1,6.5,0c0.5,0,1,0,1.5,0c4.7,0.1,9.3,0.1,14,0c0.3,0,0.7,0,1,0c0.3,0,0.7,0,1,0
	c0.8,0,1.7,0,2.5,0c0.7,0,2.9,0.3,3.5,0c0.7,0,1.3,0,2,0c0.7,0,1.3,0,2,0c0.5,0,1,0,1.5,0c0.8,0,1.6,0,2.4,0.1c9.6,0,19.1,0,28.7,0
	c0.5,0,0.9,0,1.4-0.1c0.5,0,1,0,1.5,0c0.8,0.1,1.7,0.2,2.5,0c0.7,0,1.3,0,2,0c0.7,0,1.3,0,2,0c1,0.1,2,0.1,3,0
	c1.8,0.1,3.7,0.2,5.5,0c5.5,0.1,11,0.2,16.5,0C200.9,196.3,202.9,196.3,204.9,196.1z"/>
<path class="st0" d="M295.6,8.2c1.1,2.3,2.7,4.4,2.6,7.2c-0.9-0.3-1.8-0.2-2.7-0.2c-96.9,0-193.8,0-290.7,0C4,15.2,3,15,2.2,15.3
	c0-0.7,0-1.5,0-2.2c0.2-1.3,2.2-4.5,2.4-5C6,6.6,10.4,3.4,11,2.7c4-1.7,8.2-1.8,12.5-1.8c84.7,0,169.4,0,254.1,0
	c0.9,0,1.8,0.2,2.7-0.2c2,0.4,4,0.2,6,0.8C290.1,2.8,293.1,5.1,295.6,8.2z"/>
<path class="st1" d="M98,201.3c0,0.4-0.1,0.8-0.5,0.9c-0.5-0.2-0.5-0.7-0.4-1.2C97.4,201.1,97.7,201.2,98,201.3z"/>
<path class="st2" d="M2.2,15.3C3,15,4,15.2,4.9,15.2c96.9,0,193.8,0,290.7,0c0.9,0,1.8-0.2,2.7,0.2c0,0-0.1,0.1-0.1,0.1
	c0,0.2,0.1,0.3,0.1,0.5c0,26.2,0,52.5,0,78.7c0,19.7,0,39.4,0,59.1c0,0.8,0.3,4,0,4.6c-1,0-2,0-3,0c-97.7,0-195.4,0-293,0
	c0-0.6-0.1-1.1-0.1-1.7c0-0.8,0.1-1.7,0.1-2.5c0-46.2,0-92.4,0-138.6C2.2,15.5,2.2,15.4,2.2,15.3z"/>
<path class="st3" d="M164.5,196.2c-9.6,0-19.1,0-28.7,0c0-0.8,0-1.6,0-2.4c0.2-3,0.2-6,0-9c0.2-1.8,0.2-3.6,0-5.5
	c0.1-2.3,0.1-4.7,0.2-7c9.5,0,19,0,28.5,0c0.1,1.7,0.1,3.3,0.2,5c-0.1,1-0.2,2,0,3c-0.2,0.8-0.2,1.7,0,2.5
	C164.4,187.2,164.5,191.7,164.5,196.2z"/>
<path class="st4" d="M292.2,168.2c-1.2,0.7-2.3,1.4-3.5,2.1c-0.8,0.5-1.8,0.3-2.5,1c-1.8,0.2-3.7,0.4-5.5,0.6c-1.3-0.2-2.7-0.2-4,0
	c-0.7,0-1.5-0.1-2.2-0.1c-32.9,0-65.7,0-98.6,0c-0.8,0-1.7,0.1-2.5,0.1c-2.2,0-4.5-0.1-6.7-0.1c-0.8,0-1.7-0.4-2.3,0.4
	c-9.5,0-19,0-28.5,0c-0.2-0.3-0.5-0.4-0.8-0.4c-3.1,0-6.1-0.2-9.2,0.1c-1.2,0-2.3-0.1-3.5-0.1c-33.6,0-67.1,0-100.7,0
	c-4.7,0-9.1-0.6-13-3.2c-0.7-0.6-1.3-1.3-2-1.9c-2.3-2.3-4.1-5-4.6-8.3c97.7,0,195.4,0,293,0c1,0,2,0,3,0c-0.1,0.6-0.2,1.3-0.4,1.9
	c-0.8,1.5-1.5,2.9-2.3,4.4c-0.5,0.5-1,0.9-1.3,1.6C293.5,166.8,292.8,167.5,292.2,168.2z"/>
<path class="st1" d="M298.7,162.3c-0.9-0.9-0.1-0.9,0.5-1C299.5,161.8,299.7,162.4,298.7,162.3z"/>
</svg>
