<?xml version="1.0" encoding="utf-8"?>
<!-- Generator: Adobe Illustrator 24.0.1, SVG Export Plug-In . SVG Version: 6.00 Build 0)  -->
<svg version="1.1" id="Layer_1" xmlns="http://www.w3.org/2000/svg" xmlns:xlink="http://www.w3.org/1999/xlink" x="0px" y="0px"
	 viewBox="0 0 57.5 421.5" style="enable-background:new 0 0 57.5 421.5;" xml:space="preserve">
<style type="text/css">
	.st0{fill:#7DBE00;}
	.st1{fill:#8DC61E;}
	.st2{fill:#ABD55A;}
	.st3{fill:#99CC35;}
	.st4{fill:#A9D355;}
	.st5{fill:#343532;}
	.st6{fill:#353732;}
	.st7{fill:#353632;}
	.st8{fill:#343632;}
	.st9{fill:#343432;}
	.st10{fill:#7CBB01;}
	.st11{fill:#7CBC00;}
</style>
<g id="_x33_Z8v0y.tif">
	<g>
		<g>
			<path class="st0" d="M55.5,421.5c-0.2,0-0.3,0-0.5,0c-1-0.2-2.1-0.5-3.1-0.5c-16.8,0-33.6-0.1-50.4-0.1c-1.3-1.5-1-3.3-1-5
				c0-136.8,0-273.5,0-410.3c0-0.5,0-1,0-1.5C0.7,3,0.9,1.8,1,0.7c1.2-0.1,2.3-0.1,3.5-0.1c15.9,0,31.8,0,47.7,0c0.6,0,1.2,0,1.7,0
				c1.3,0,2.2,0.6,2.5,2c0,0.3,0,0.7,0,1c0,137.8,0,275.6,0,413.4C56.5,418.6,56.3,420.1,55.5,421.5z M43.7,274.3
				c-12.3,0-24.4,0-36.8,0c0,1.8,0,3.4,0,5.3c8.6,0,17.1,0,25.5,0c-0.5,0.9-1.1,1.4-1.8,1.8c-7.4,4.6-14.7,9.1-22.1,13.7
				c-0.7,0.4-1.5,1-1.6,1.7c-0.2,1.4-0.1,2.9-0.1,4.3c12.6,0,24.8,0,37,0c0-1.8,0-3.4,0-5.3c-8.5,0-16.8,0-25,0
				c-0.1-0.2-0.1-0.4-0.2-0.6c0.7-0.5,1.4-1,2.1-1.5c6.7-4.1,13.2-8.4,20.1-12.2c3-1.7,3.7-3.7,3.1-6.7
				C43.9,274.7,43.9,274.7,43.7,274.3z M43.9,223.4c0-1.5,0-3,0-4.6c-12.4,0-24.6,0-36.9,0c0,1.6,0,3.1,0,5c2.2,0,4.3-0.1,6.3,0
				c2.1,0.1,4.2-0.4,6.5,0.4c-0.3,0.5-0.5,0.9-0.8,1.2c-3.9,5.9-1.1,12.6,5.9,13.4c4.2,0.5,8.5,0.1,12.7-0.1
				c4.4-0.3,7.8-5.8,6.5-10.1c-0.5-1.5-1.2-2.9-1.9-4.4C42.7,223.9,43.3,223.6,43.9,223.4z M33,192.4c-2.4,0-4.3-0.1-6.2,0
				c-5.1,0.4-8.8,4-9.4,8.8c-0.6,5.3,1.8,9.4,6.9,11.1c4.7,1.6,9.5,1.5,14.1-0.5c7.5-3.2,7.7-14.7,1.4-18.9
				c-0.4,0.5-0.9,1.1-1.4,1.7c-0.5,0.6-1,1.3-1.5,1.8c2.7,3.9,3.1,6.4,1.5,9c-1.2,1.9-2.9,2.9-5.5,2.4C33,202.8,33,197.8,33,192.4z
				 M30.8,267c1.7-0.2,3.3-0.3,5-0.5c5.1-0.8,8.7-5.1,8.6-10.4c-0.1-5.3-3.8-9.6-9-10c-3-0.3-6.2-0.3-9.2,0c-5.2,0.5-8.8,4.6-8.9,10
				c-0.1,5.3,3.4,9.6,8.5,10.4C27.4,266.8,29.1,266.8,30.8,267z M21,141.8c-0.4,0.4-0.8,0.6-1,1c-3,4.2-3.4,8.8-1.8,13.5
				c0.9,2.6,2.8,4.3,5.6,4.7c5.1,0.8,8.7-2,9.2-7.3c0.2-1.7,0.3-3.3,0.5-5c0.1-1.4,0.7-2.4,2.2-2.6c1.4-0.2,2.6,0.5,3,1.8
				c0.5,1.5,0.7,3.1,0.7,4.6c-0.1,2.6-1.3,4.8-3.2,6.8c1.2,1.1,2.4,2.2,3.5,3.3c4.4-3.8,6.3-11.5,3.4-17.2c-1.7-3.4-4.7-5-8.4-4.4
				c-3.8,0.6-5.7,2.6-6.2,6.7c-0.2,1.7-0.3,3.5-0.5,5.2c-0.3,2-1.3,3-2.7,3c-1.5-0.1-2.5-1.1-2.8-3c-0.3-2.1-0.1-4.1,1-6.1
				c0.4-0.7,0.7-1.4,1.2-2.3C23.3,143.7,22.2,142.8,21,141.8z M39.5,189c4.5-2.4,6.5-9.9,3.3-15.3c-2.3-3.9-5.8-5.6-10.2-5.6
				c-8-0.1-16,0-24,0c-0.5,0-1,0.1-1.5,0.2c0,1.8,0,3.5,0,5.3c1.1,0,2,0,2.9,0c7,0,14,0,21,0c0.8,0,1.7,0,2.5,0.1
				c4.6,0.7,6.8,5.6,4.2,9.5c-0.4,0.5-0.8,1.1-1.2,1.7C37.4,186.2,38.4,187.5,39.5,189z"/>
			<path class="st1" d="M1,0.7C0.9,1.8,0.7,3,0.5,4.1c-0.1,0.5,0,1,0,1.5c0,136.8,0,273.5,0,410.3c0,1.7-0.3,3.5,1,5
				c0,0.2,0,0.4,0,0.6c-0.5,0-1,0-1.5,0C0,281.8,0,142,0,2.3c0-0.6,0-1.2,0-1.7c-0.1-1,0.7-0.3,1-0.5C1,0.3,1,0.5,1,0.7z"/>
			<path class="st2" d="M55.5,421.5c0.8-1.4,1-2.9,1-4.5c0-137.8,0-275.6,0-413.4c0-0.3,0-0.7,0-1c0.2,0,0.3,0,0.5,0
				c0,139.7,0,279.3,0,419C56.5,421.5,56,421.5,55.5,421.5z"/>
			<path class="st3" d="M57,2.5c-0.2,0-0.3,0-0.5,0c-0.3-1.4-1.2-1.9-2.5-2c-0.6,0-1.2,0-1.7,0c-15.9,0-31.8,0-47.7,0
				C3.4,0.6,2.2,0.6,1,0.7C1,0.5,1,0.3,1,0c18.7,0,37.3,0,56,0C57,0.9,57,1.7,57,2.5z"/>
			<path class="st4" d="M1.5,421.5c0-0.2,0-0.4,0-0.6c16.8,0,33.6,0,50.4,0.1c1,0,2.1,0.3,3.1,0.5C37.2,421.5,19.3,421.5,1.5,421.5z
				"/>
			<path class="st5" d="M43.7,274.3c0.1,0.4,0.2,0.4,0.2,0.5c0.6,3-0.1,5-3.1,6.7c-6.8,3.8-13.4,8.1-20.1,12.2
				c-0.7,0.5-1.4,1-2.1,1.5c0.1,0.2,0.1,0.4,0.2,0.6c8.3,0,16.5,0,25,0c0,1.9,0,3.5,0,5.3c-12.2,0-24.4,0-37,0
				c0-1.4-0.2-2.9,0.1-4.3c0.1-0.6,1-1.3,1.6-1.7c7.3-4.6,14.7-9.1,22.1-13.7c0.7-0.4,1.3-0.9,1.8-1.8c-8.4,0-16.9,0-25.5,0
				c0-1.9,0-3.5,0-5.3C19.3,274.3,31.5,274.3,43.7,274.3z"/>
			<path class="st6" d="M43.9,223.4c-0.6,0.3-1.2,0.5-1.7,0.7c0.7,1.6,1.4,3,1.9,4.4c1.3,4.2-2.1,9.8-6.5,10.1
				c-4.2,0.2-8.5,0.6-12.7,0.1c-7-0.8-9.8-7.5-5.9-13.4c0.2-0.3,0.4-0.7,0.8-1.2c-2.3-0.7-4.4-0.3-6.5-0.4c-2.1-0.1-4.1,0-6.3,0
				c0-1.8,0-3.3,0-5c12.4,0,24.6,0,36.9,0C43.9,220.4,43.9,221.9,43.9,223.4z M30.8,234.2c1.7-0.3,3.4-0.4,5.1-0.8
				c2-0.5,3-2.1,3.1-4.3c0.1-2.4-0.8-4-3-4.6c-3.4-1.1-6.9-1.1-10.3,0c-2.2,0.7-3.1,2.2-3.1,4.6c0,2.3,1.1,3.9,3.2,4.5
				C27.4,233.9,29.1,234,30.8,234.2z"/>
			<path class="st7" d="M33,192.4c0,5.3,0,10.4,0,15.5c2.6,0.5,4.3-0.6,5.5-2.4c1.6-2.5,1.2-5.1-1.5-9c0.5-0.6,0.9-1.2,1.5-1.8
				c0.5-0.6,0.9-1.1,1.4-1.7c6.3,4.1,6.1,15.7-1.4,18.9c-4.6,2-9.4,2-14.1,0.5c-5.1-1.7-7.5-5.8-6.9-11.1c0.6-4.8,4.3-8.4,9.4-8.8
				C28.7,192.3,30.6,192.4,33,192.4z M28.5,208c0-2.6,0-5.1,0-7.5c0-0.9,0-1.8,0-2.6c-3.7-0.4-6.2,1.6-6.3,4.9
				C22.1,205.9,24.4,208,28.5,208z"/>
			<path class="st8" d="M30.8,267c-1.7-0.2-3.3-0.3-5-0.5c-5.1-0.8-8.6-5.1-8.5-10.4c0.1-5.4,3.7-9.6,8.9-10c3.1-0.3,6.2-0.3,9.2,0
				c5.2,0.5,8.8,4.8,9,10c0.1,5.2-3.5,9.6-8.6,10.4C34.1,266.8,32.4,266.8,30.8,267z M30.8,250.9c-1.2,0.1-2.4,0-3.7,0.2
				c-2.7,0.4-4.5,2.4-4.6,5.1c-0.1,2.7,1.6,5,4.3,5.3c2.5,0.3,5.1,0.3,7.7,0c2.9-0.3,4.5-2.5,4.4-5.4c-0.1-2.6-1.9-4.7-4.6-5
				C33.2,250.9,32,251,30.8,250.9z"/>
			<path class="st8" d="M21,141.8c1.2,1,2.3,1.9,3.6,2.9c-0.5,0.9-0.8,1.6-1.2,2.3c-1,1.9-1.2,4-1,6.1c0.3,1.9,1.3,2.9,2.8,3
				c1.5,0.1,2.4-1,2.7-3c0.2-1.7,0.3-3.5,0.5-5.2c0.5-4.1,2.4-6.1,6.2-6.7c3.7-0.6,6.7,0.9,8.4,4.4c2.8,5.7,1,13.4-3.4,17.2
				c-1.1-1.1-2.3-2.2-3.5-3.3c1.9-2.1,3.1-4.3,3.2-6.8c0.1-1.5-0.2-3.1-0.7-4.6c-0.4-1.3-1.6-2-3-1.8c-1.5,0.2-2.1,1.2-2.2,2.6
				c-0.2,1.7-0.3,3.3-0.5,5c-0.5,5.3-4.2,8.1-9.2,7.3c-2.8-0.4-4.7-2.2-5.6-4.7c-1.6-4.8-1.2-9.3,1.8-13.5
				C20.2,142.5,20.6,142.3,21,141.8z"/>
			<path class="st9" d="M39.5,189c-1-1.4-2-2.8-3-4.2c0.4-0.6,0.8-1.1,1.2-1.7c2.6-3.9,0.4-8.8-4.2-9.5c-0.8-0.1-1.7-0.1-2.5-0.1
				c-7,0-14,0-21,0c-0.9,0-1.8,0-2.9,0c0-1.9,0-3.5,0-5.3c0.6-0.1,1-0.2,1.5-0.2c8,0,16-0.1,24,0c4.4,0,7.9,1.8,10.2,5.6
				C46,179.1,43.9,186.6,39.5,189z"/>
			<path class="st10" d="M30.8,234.2c-1.7-0.3-3.4-0.3-5-0.8c-2.2-0.6-3.2-2.2-3.2-4.5c0-2.4,0.9-3.9,3.1-4.6c3.4-1,6.9-1,10.3,0
				c2.1,0.7,3,2.2,3,4.6c0,2.2-1,3.8-3.1,4.3C34.3,233.8,32.5,233.9,30.8,234.2z"/>
			<path class="st10" d="M28.5,208c-4.1,0-6.4-2-6.3-5.2c0.1-3.3,2.5-5.3,6.3-4.9c0,0.9,0,1.7,0,2.6C28.5,202.9,28.5,205.4,28.5,208
				z"/>
			<path class="st11" d="M30.8,250.9c1.2,0.1,2.4,0,3.5,0.2c2.7,0.3,4.5,2.4,4.6,5c0.1,2.8-1.6,5.1-4.4,5.4c-2.5,0.3-5.1,0.2-7.7,0
				c-2.7-0.3-4.4-2.6-4.3-5.3c0.1-2.7,1.9-4.7,4.6-5.1C28.4,250.9,29.6,251,30.8,250.9z"/>
		</g>
	</g>
</g>
</svg>
