<?xml version="1.0" encoding="utf-8"?>
<!-- Generator: Adobe Illustrator 24.0.1, SVG Export Plug-In . SVG Version: 6.00 Build 0)  -->
<svg version="1.1" id="Layer_1" xmlns="http://www.w3.org/2000/svg" xmlns:xlink="http://www.w3.org/1999/xlink" x="0px" y="0px"
	 viewBox="0 0 86 450" style="enable-background:new 0 0 86 450;" xml:space="preserve">
<style type="text/css">
	.st0{fill:#232325;}
	.st1{fill:#F2F2F2;}
	.st2{fill:#E4E4E4;}
	.st3{fill:#6D6D6F;}
	.st4{fill:#00D2FE;}
	.st5{fill:#242426;}
	.st6{fill:#00CCF7;}
	.st7{fill:#00CEF9;}
	.st8{fill:#00CCF6;}
	.st9{fill:#00CEF8;}
	.st10{fill:#00CBF6;}
	.st11{fill:#222629;}
	.st12{fill:#22272A;}
	.st13{fill:#212C30;}
</style>
<g id="pSolVR.tif">
	<g>
		<g>
			<path class="st0" d="M0,449.4c0-0.5,0-1,0-1.5c0.2-0.7,0.5-1.5,0.5-2.2c0.1-8.8,0.1-17.5,0.1-26.3c28.1,0,56.2,0,84.4,0
				c0,9.1,0.1,18.3,0.1,27.4c0,1.2-0.3,2.1-1.5,2.6c-26,0-52.1,0-78.1,0C3.6,449.4,1.8,449.4,0,449.4z"/>
			<path class="st1" d="M83.5,449.4c1.2-0.5,1.5-1.4,1.5-2.6c0-9.1-0.1-18.3-0.1-27.4c0-4.5,0-9,0-13.5c0-3.5,0-7,0-10.5
				c0-4.5,0-9,0-13.5c0-0.9,0.1-1.8,0.1-2.7c0-102,0-204.1,0-306.1c0-0.9-0.1-1.8-0.1-2.7c0-4.3,0-8.6,0-13c0-3.7,0-7.3,0-11
				c0-4.3,0-8.6,0-13C85,24.2,85,14.8,85,5.5c0-4.5-0.2-4.8-4.8-4.8c-25,0-50,0-75,0c-0.6,0-1.2,0-1.7,0C1.4,0.9,1,1.2,0.4,3.5
				c-0.1,0-0.3,0-0.4,0C0,2.3,0,1.2,0,0c28.7,0,57.3,0,86,0c0,150,0,299.9,0,449.9c-0.8,0-1.7,0-2.5,0
				C83.4,449.7,83.5,449.6,83.5,449.4z"/>
			<path class="st2" d="M0,3.5c0.1,0,0.3,0,0.4,0c0,1.1,0.1,2.1,0.1,3.2c0,8.9,0.1,17.8,0.1,26.8c0,4.3,0,8.7,0,13c0,3.7,0,7.3,0,11
				c0,4.3,0,8.7,0,13c0,0.9-0.1,1.8-0.1,2.7c0,102,0,204.1,0,306.1c0,0.9,0.1,1.8,0.1,2.7c0,4.5,0,9,0,13.5c0,3.5,0,7,0,10.5
				c0,4.5,0,9,0,13.5c0,8.8,0,17.5-0.1,26.3c0,0.7-0.3,1.5-0.5,2.2C0,299.8,0,151.6,0,3.5z"/>
			<path class="st3" d="M83.5,449.4c-0.1,0.2-0.1,0.3,0,0.5c-27.2,0-54.4,0-81.5,0c-0.7,0-1.5,0.5-2-0.5c1.8,0,3.6,0,5.4,0
				C31.5,449.4,57.5,449.4,83.5,449.4z"/>
			<path class="st4" d="M0.6,419.4c0-4.5,0-9,0-13.5c28.1,0,56.2,0,84.4,0c0,4.5,0,9,0,13.5C56.8,419.4,28.7,419.4,0.6,419.4z"/>
			<path class="st0" d="M0.6,382c0-0.9-0.1-1.8-0.1-2.7c0-102,0-204.1,0-306.1c0-0.9,0.1-1.8,0.1-2.7c28.1,0,56.2,0,84.4,0
				c0,0.9,0.1,1.8,0.1,2.7c0,102,0,204.1,0,306.1c0,0.9-0.1,1.8-0.1,2.7C56.8,382,28.7,382,0.6,382z M55.1,257.9
				c-5.6,2.8-10.9,5.5-16.3,8.1c-0.3-0.5-0.5-0.9-0.7-1.2c-2.8-4.7-7.5-6.6-12.8-5.1c-4.6,1.3-7.4,5.2-7.4,10.6c0,4.1,0,8.2,0,12.2
				c0,0.6,0.1,1.3,0.2,1.9c12.4,0,24.6,0,36.9,0c0-1.9,0-3.7,0-5.6c-5.3,0-10.4,0-15.6,0c0-2.4,0-4.6,0-6.8c5.3-2.5,10.5-5,15.7-7.5
				C55.1,262.3,55.1,260.3,55.1,257.9z M35.4,222.6c-2.4-2.4-2.1-5.2-1.5-8c0.2-1.1,1-1.9,2.2-2c1-0.1,2.1,0,3.4,0c0,1.1,0,2,0,2.9
				c0,1.8,0,3.7,0.2,5.5c0.3,3.7,2.6,6.2,5.9,6.8c3.8,0.7,7.2-0.8,8.8-4c1.6-3.5,1.8-7-0.4-10.4c-0.1-0.1-0.1-0.3-0.1-0.5
				c0.4-0.2,0.9-0.4,1.3-0.6c0-1.6,0-3.1,0-4.8c-6.6,0-13.2-0.1-19.7,0.1c-2.9,0.1-5.1,1.8-6.1,4.7c-1,2.8-1.2,5.7-0.7,8.6
				c0.4,2.3,1.4,4.4,3.7,5.9C33.4,225.2,34.4,223.9,35.4,222.6z M44.1,232.2c-2.7,0.2-5,0.2-7.3,0.6c-4.5,0.7-7.8,4.4-8.4,9
				c-0.6,4.5,1.7,8.6,6,10.4c4.8,2,9.7,2,14.5,0.2c4.1-1.5,6-4.8,6.5-8.9c0.5-4.1-1-7.6-4.3-10.5c-1.2,1.4-2.2,2.6-3.3,3.8
				c2.5,2.7,3.3,5.5,1.7,8.7c-1,2.1-2.8,2.9-5.5,2.6C44.1,242.9,44.1,237.7,44.1,232.2z M47.2,184.9c0.5,0.4,0.8,0.6,1.1,0.8
				c3.6,4.2,1.8,9.6-3.5,10.6c-1.9,0.3-4,0.3-5.9-0.1c-5.4-0.8-6.1-6.6-3.8-9.8c0.4-0.6,0.9-1.1,1.4-1.8c-1.2-1.3-2.3-2.4-3.5-3.7
				c-3.7,3.3-5.4,7.1-4.4,11.7c1,4.6,3.9,7.6,8.5,8.7c2.9,0.7,5.9,0.7,8.9,0.2c4.7-0.9,7.9-3.7,9.1-8.4c1.2-4.9-0.6-8.7-4.3-12.1
				C49.6,182.3,48.5,183.4,47.2,184.9z M20.6,176.3c2.8,0,5.3,0,7.8,0c0.2,0.9,0.3,1.6,0.4,2.3c1.4,0,2.6,0,3.9,0
				c0.1-0.8,0.2-1.5,0.2-2.4c5.2,0,10.2,0,15.3,0c5.4,0,8-3.5,6.6-9c-0.7,0-1.5,0-2.2,0c-0.8,0-1.6,0-2.3,0
				c-0.2,3.6-0.2,3.7-3.5,3.7c-3.2,0-6.5,0-9.7,0c-1.4,0-2.8,0-4.3,0c0-1.4,0-2.4,0-3.5c-1.5,0-2.7,0-4,0c-0.1,1.2-0.2,2.2-0.3,3.6
				c-2.7,0-5.2,0-7.8,0C20.6,172.8,20.6,174.3,20.6,176.3z"/>
			<path class="st5" d="M0.6,33.5c0-8.9-0.1-17.8-0.1-26.8c0-1.1-0.1-2.1-0.1-3.2c0.6-2.3,1-2.6,3.2-2.7c0.6,0,1.2,0,1.7,0
				c25,0,50,0,75,0C84.8,0.8,85,1,85,5.5c0,9.3-0.1,18.6-0.1,27.9C56.8,33.5,28.7,33.5,0.6,33.5z"/>
			<path class="st4" d="M0.6,382c28.1,0,56.2,0,84.4,0c0,4.5,0,9,0,13.5c-28.1,0-56.2,0-84.4,0C0.6,391,0.6,386.5,0.6,382z"/>
			<path class="st4" d="M0.6,33.5c28.1,0,56.2,0,84.4,0c0,4.3,0,8.6,0,13c-28.1,0-56.2,0-84.4,0C0.6,42.1,0.6,37.8,0.6,33.5z"/>
			<path class="st4" d="M84.9,70.4c-28.1,0-56.2,0-84.4,0c0-4.3,0-8.7,0-13c28.1,0,56.2,0,84.4,0C84.9,61.8,84.9,66.1,84.9,70.4z"/>
			<path class="st0" d="M84.9,57.4c-28.1,0-56.2,0-84.4,0c0-3.7,0-7.3,0-11c28.1,0,56.2,0,84.4,0C84.9,50.1,84.9,53.8,84.9,57.4z"/>
			<path class="st0" d="M0.6,395.5c28.1,0,56.2,0,84.4,0c0,3.5,0,7,0,10.5c-28.1,0-56.2,0-84.4,0C0.6,402.5,0.6,399,0.6,395.5z"/>
			<path class="st6" d="M55.1,257.9c0,2.5,0,4.4,0,6.6c-5.2,2.5-10.4,5-15.7,7.5c0,2.2,0,4.4,0,6.8c5.2,0,10.3,0,15.6,0
				c0,2,0,3.7,0,5.6c-12.3,0-24.5,0-36.9,0c-0.1-0.7-0.2-1.3-0.2-1.9c0-4.1,0-8.2,0-12.2c0-5.4,2.8-9.3,7.4-10.6
				c5.3-1.4,10,0.5,12.8,5.1c0.2,0.3,0.4,0.7,0.7,1.2C44.2,263.3,49.5,260.7,55.1,257.9z M34.2,278.6c0.1-0.5,0.1-0.7,0.1-1
				c0-2.2,0.1-4.3,0-6.5c0-1-0.2-2-0.4-2.9c-0.8-2.6-3.1-4-6.3-3.7c-2.6,0.2-4.1,1.6-4.3,4.5c-0.2,3.1,0,6.3,0,9.5
				C26.8,278.6,30.4,278.6,34.2,278.6z"/>
			<path class="st7" d="M35.4,222.6c-1,1.3-2,2.5-3.1,3.8c-2.3-1.5-3.2-3.5-3.7-5.9c-0.6-2.9-0.3-5.8,0.7-8.6c1-2.9,3.2-4.6,6.1-4.7
				c6.5-0.2,13-0.1,19.7-0.1c0,1.7,0,3.3,0,4.8c-0.4,0.2-0.9,0.4-1.3,0.6c0.1,0.2,0,0.4,0.1,0.5c2.2,3.4,2.1,6.9,0.4,10.4
				c-1.5,3.3-5,4.7-8.8,4c-3.3-0.6-5.5-3.1-5.9-6.8c-0.2-1.8-0.1-3.7-0.2-5.5c0-0.9,0-1.8,0-2.9c-1.4,0-2.4-0.1-3.4,0
				c-1.2,0.1-2,0.9-2.2,2C33.3,217.4,33,220.2,35.4,222.6z M44.2,212.7c0,2.4-0.1,4.8,0,7.2c0.1,1.8,1.1,2.8,2.5,2.9
				c1.6,0.1,3-0.9,3.4-2.6c0.2-0.8,0.2-1.7,0.2-2.5c0-4.6-1.1-5.6-5.7-5.3C44.6,212.4,44.5,212.5,44.2,212.7z"/>
			<path class="st8" d="M44.1,232.2c0,5.6,0,10.7,0,15.8c2.7,0.3,4.5-0.5,5.5-2.6c1.5-3.1,0.7-6-1.7-8.7c1.1-1.2,2.1-2.4,3.3-3.8
				c3.3,2.9,4.8,6.4,4.3,10.5c-0.5,4.2-2.4,7.4-6.5,8.9c-4.9,1.8-9.7,1.8-14.5-0.2c-4.3-1.8-6.6-6-6-10.4c0.6-4.6,3.9-8.3,8.4-9
				C39.1,232.4,41.4,232.4,44.1,232.2z M39.4,248c0-3.4,0-6.8,0-10.2c-4,0.1-6.2,2.3-6,5.6C33.7,246.5,36.1,248.3,39.4,248z"/>
			<path class="st9" d="M47.2,184.9c1.4-1.5,2.5-2.6,3.7-3.9c3.7,3.4,5.5,7.3,4.3,12.1c-1.2,4.7-4.4,7.5-9.1,8.4
				c-2.9,0.6-5.9,0.5-8.9-0.2c-4.6-1.1-7.5-4-8.5-8.7c-1-4.7,0.6-8.4,4.4-11.7c1.2,1.2,2.3,2.4,3.5,3.7c-0.5,0.7-1,1.2-1.4,1.8
				c-2.3,3.2-1.6,9,3.8,9.8c1.9,0.3,4,0.4,5.9,0.1c5.4-0.9,7.1-6.4,3.5-10.6C48,185.5,47.7,185.3,47.2,184.9z"/>
			<path class="st10" d="M20.6,176.3c0-2,0-3.5,0-5.4c2.6,0,5.1,0,7.8,0c0.1-1.3,0.2-2.4,0.3-3.6c1.3,0,2.6,0,4,0c0,1.1,0,2.1,0,3.5
				c1.6,0,2.9,0,4.3,0c3.2,0,6.5,0,9.7,0c3.3,0,3.3,0,3.5-3.7c0.8,0,1.5,0,2.3,0c0.7,0,1.5,0,2.2,0c1.4,5.4-1.2,9-6.6,9
				c-5,0-10.1,0-15.3,0c-0.1,0.9-0.2,1.6-0.2,2.4c-1.3,0-2.5,0-3.9,0c-0.1-0.6-0.3-1.3-0.4-2.3C26,176.3,23.4,176.3,20.6,176.3z"/>
			<path class="st11" d="M34.2,278.6c-3.7,0-7.3,0-11,0c0-3.3-0.2-6.4,0-9.5c0.2-2.9,1.8-4.3,4.3-4.5c3.1-0.3,5.4,1,6.3,3.7
				c0.3,0.9,0.4,1.9,0.4,2.9c0.1,2.2,0,4.3,0,6.5C34.3,277.9,34.2,278.1,34.2,278.6z"/>
			<path class="st12" d="M44.2,212.7c0.3-0.2,0.4-0.3,0.5-0.3c4.6-0.3,5.7,0.7,5.7,5.3c0,0.8,0,1.7-0.2,2.5
				c-0.4,1.8-1.7,2.8-3.4,2.6c-1.5-0.1-2.4-1-2.5-2.9C44.1,217.5,44.2,215.1,44.2,212.7z"/>
			<path class="st13" d="M39.4,248c-3.4,0.3-5.8-1.5-6-4.7c-0.2-3.3,2-5.4,6-5.6C39.4,241.2,39.4,244.6,39.4,248z"/>
		</g>
	</g>
</g>
</svg>
