<?xml version="1.0" encoding="utf-8"?>
<!-- Generator: Adobe Illustrator 24.0.1, SVG Export Plug-In . SVG Version: 6.00 Build 0)  -->
<svg version="1.1" id="Layer_1" xmlns="http://www.w3.org/2000/svg" xmlns:xlink="http://www.w3.org/1999/xlink" x="0px" y="0px"
	 viewBox="0 0 361.5 361.5" style="enable-background:new 0 0 361.5 361.5;" xml:space="preserve">
<style type="text/css">
	.st0{fill:#AEAEAE;}
	.st1{fill:#D8D8D8;}
	.st2{fill:#C5C5C5;}
	.st3{fill:#C8C8C8;}
	.st4{fill:#C7C7C7;}
	.st5{fill:#C3C3C3;}
	.st6{fill:#E3E3E3;}
	.st7{fill:#E4E4E4;}
	.st8{fill:#E7E7E7;}
	.st9{fill:#AFAFAF;}
	.st10{fill:#B6B6B6;}
	.st11{fill:#B7B7B7;}
	.st12{fill:#B8B8B8;}
	.st13{fill:#BABABA;}
	.st14{fill:#D1D1D1;}
	.st15{fill:#D0D0D0;}
	.st16{fill:#B4B4B4;}
	.st17{fill:#D2D2D2;}
	.st18{fill:#D3D3D3;}
	.st19{fill:#BCBCBC;}
	.st20{fill:#FEFEFE;}
	.st21{fill:#BEBEBE;}
	.st22{fill:#BBBBBB;}
	.st23{fill:#CCCCCC;}
	.st24{fill:#C0C0C0;}
	.st25{fill:#D5D5D5;}
	.st26{fill:#FE4E54;}
	.st27{fill:#E0F152;}
	.st28{fill:#CECECE;}
	.st29{fill:#63D46A;}
	.st30{fill:#D4D4D4;}
	.st31{fill:#CFCFCF;}
	.st32{fill:#6D9BF5;}
	.st33{fill:#CDCDCD;}
	.st34{fill:#B9B9B9;}
</style>
<path class="st0" d="M354.5,358.8c-1.5,1.1-3.1,1.9-5,2c-0.7,0.1-1.5-0.5-2,0.5c-31,0-61.9,0-92.9,0c-0.5-0.9-1.3-0.3-2-0.5
	c-1.9-0.1-3.5-0.9-5-2c0-0.3,0.3-0.5,0.5-0.5c3.8,2.1,7.9,2.1,12,2.1c28.6,0,57.2,0,85.7,0c2.4,0,4.6-0.5,6.6-1.5
	c0.4-0.2,0.8-0.6,1.4-0.5C354.2,358.3,354.4,358.5,354.5,358.8z"/>
<path class="st0" d="M106.8,361.3c-31.1,0-62.2,0-93.4,0c-0.5-0.9-1.3-0.3-2-0.5c-0.7,0.1-1.4-0.1-2-0.5c0-0.3,0.2-0.4,0.5-0.5
	c0.2,0,0.3,0,0.5,0c1.5,0.1,2.9,0.5,4.4,0.5c30,0,60.1,0,90.1,0c2.2,0,4.2-0.4,6.2-1.4c0.5-0.3,1-0.7,1.6-0.6
	c0.3,0.1,0.5,0.2,0.5,0.5c-1.4,1.2-3.1,1.8-5,2C107.8,360.9,107.1,360.5,106.8,361.3z"/>
<path class="st0" d="M227.1,361.3c-31.1,0-62.2,0-93.4,0c-0.3-0.8-1-0.4-1.5-0.5c-1.3,0.1-2.4-0.4-3.4-1c0-0.3,0.3-0.5,0.6-0.5
	c3.8,1.3,7.8,1,11.8,1c27,0,54.1,0,81.1,0c2.6,0,5.3,0.2,7.9-0.5c0.2,0,0.3,0,0.5,0c0.3,0,0.5,0.2,0.5,0.5c-0.6,0.4-1.2,0.6-2,0.5
	C228.5,361,227.6,360.4,227.1,361.3z"/>
<path class="st1" d="M-0.6,226.5c0-30.6,0-61.2,0-91.9c0.2,0,0.3,0,0.5,0c0,30.6,0,61.3,0,91.9C-0.2,226.5-0.4,226.5-0.6,226.5z"/>
<path class="st1" d="M-0.6,105.7c0-30.5,0-60.9,0-91.4c0.2,0,0.3,0,0.5,0c0,30.5,0,60.9,0,91.4C-0.2,105.7-0.4,105.7-0.6,105.7z"/>
<path class="st1" d="M-0.6,346.8c0-30.5,0-60.9,0-91.4c0.2,0,0.3,0,0.5,0c0,30.5,0,60.9,0,91.4C-0.2,346.8-0.4,346.8-0.6,346.8z"/>
<path class="st2" d="M347.5,361.3c0.5-0.9,1.3-0.3,2-0.5c0,0.2,0,0.3,0,0.5C348.8,361.3,348.1,361.3,347.5,361.3z"/>
<path class="st2" d="M252.6,361.3c0-0.2,0-0.3,0-0.5c0.7,0.1,1.5-0.5,2,0.5C253.9,361.3,253.3,361.3,252.6,361.3z"/>
<path class="st3" d="M229.1,360.8c0,0.2,0,0.3,0,0.5c-0.7,0-1.3,0-2,0C227.6,360.4,228.5,361,229.1,360.8z"/>
<path class="st4" d="M11.4,361.3c0-0.2,0-0.3,0-0.5c0.7,0.1,1.5-0.5,2,0.5C12.8,361.3,12.1,361.3,11.4,361.3z"/>
<path class="st5" d="M132.3,361.3c0-0.2,0-0.3,0-0.5c0.5,0.1,1.2-0.4,1.5,0.5C133.3,361.3,132.8,361.3,132.3,361.3z"/>
<path class="st5" d="M108.3,360.8c0,0.2,0,0.3,0,0.5c-0.5,0-1,0-1.5,0C107.1,360.5,107.8,360.9,108.3,360.8z"/>
<path class="st6" d="M-0.1,14.3c-0.2,0-0.3,0-0.5,0c0-0.5,0-1,0-1.5c0.2,0,0.3,0,0.5,0C-0.1,13.3-0.1,13.8-0.1,14.3z"/>
<path class="st7" d="M-0.6,105.7c0.2,0,0.3,0,0.5,0c0,0.5,0,1,0,1.5c-0.2,0-0.3,0-0.5,0C-0.6,106.7-0.6,106.2-0.6,105.7z"/>
<path class="st8" d="M-0.6,226.5c0.2,0,0.3,0,0.5,0c0,0.5,0,1,0,1.5c-0.2,0-0.3,0-0.5,0C-0.6,227.5-0.6,227-0.6,226.5z"/>
<path class="st8" d="M-0.1,134.6c-0.2,0-0.3,0-0.5,0c0-0.5,0-1,0-1.5c0.2,0,0.3,0,0.5,0C-0.1,133.6-0.1,134.1-0.1,134.6z"/>
<path class="st6" d="M-0.6,346.8c0.2,0,0.3,0,0.5,0c0,0.5,0,1,0,1.5c-0.2,0-0.3,0-0.5,0C-0.6,347.8-0.6,347.3-0.6,346.8z"/>
<path class="st7" d="M-0.1,255.5c-0.2,0-0.3,0-0.5,0c0-0.5,0-1,0-1.5c0.2,0,0.3,0,0.5,0C-0.1,254.5-0.1,255-0.1,255.5z"/>
<path class="st9" d="M234.6,2.8c3.4,2.3,5.1,5.6,6,9.5c0,0.5,0,1,0,1.5c0,31,0,61.9,0,92.9c0,0.3,0,0.7,0,1c-0.5,2.1-1,4.3-2.5,6
	c-0.3,0-0.5-0.2-0.5-0.5c-0.1-0.6,0.3-1.1,0.6-1.6c1-1.8,1.5-3.8,1.5-5.9c0-30.4,0-60.8,0-91.2c0-3.7-1.3-6.7-3.9-9.3
	c-0.6-0.6-1.3-1-1.7-1.8C234.4,3.3,234.6,3.1,234.6,2.8z"/>
<path class="st9" d="M358.5,113.7c-1.8,3.4-4.9,5-8.5,6c-0.9-0.3-1.6,0.5-2.5,0.5c-31,0-61.9,0-92.9,0c-0.9,0-1.6-0.8-2.5-0.5
	c-1.6-0.4-3.2-0.8-4.5-2c0-0.3,0.2-0.5,0.5-0.5c0.9,0,1.5,0.6,2.3,1c1.4,0.6,2.9,1.1,4.5,1.1c30.8,0,61.5,0,92.3,0
	c0.8,0,1.6,0,2.4-0.3c3.4-1,6.2-2.9,8.4-5.7C358.3,113.2,358.4,113.4,358.5,113.7z"/>
<path class="st9" d="M-0.1,107.2c0-0.5,0-1,0-1.5c0-30.5,0-60.9,0-91.4c0-0.5,0-1,0-1.5c0.4-2.4,0.9-4.6,2.5-6.5
	c0.3,0,0.5,0.2,0.5,0.5c0,0.5-0.3,0.9-0.5,1.4c-1.1,2-1.6,4.1-1.6,6.4c0,30.3,0,60.5,0,90.8c0,1.9,0.4,3.7,1,5.5
	c0.3,0.8,1.2,1.2,1.1,2.2c0,0.3-0.2,0.5-0.5,0.5C1,111.7,0,109.6-0.1,107.2z"/>
<path class="st9" d="M5.9,2.8c2.4-2.2,5.4-3,8.6-3c30.3,0,60.7,0,91,0c2.9,0,5.5,0.8,7.8,2.5c0,0.3-0.2,0.5-0.5,0.5
	c-0.2,0-0.5,0-0.7-0.1c-2.5-1.6-5.3-1.9-8.3-1.9c-29.1,0-58.1,0.1-87.2,0c-3.7,0-7,0.6-10.1,2.6C6.2,3.3,6,3.1,5.9,2.8z"/>
<path class="st9" d="M247.6,2.3c2.1-1.6,4.6-2.5,7.3-2.5c30.8,0,61.5,0,92.3,0c2.7,0,5.1,0.8,7.3,2.5c0,0.3-0.2,0.5-0.5,0.5
	c-0.5,0-0.9-0.3-1.4-0.5c-2.1-1.1-4.3-1.5-6.6-1.5c-29.9,0-59.8,0-89.7,0c-2.4,0-4.6,0.4-6.6,1.5c-0.4,0.2-0.8,0.6-1.4,0.5
	C247.9,2.8,247.7,2.6,247.6,2.3z"/>
<path class="st9" d="M234.6,2.8c0,0.3-0.2,0.5-0.5,0.5c-3.1-1.9-6.5-2.6-10.1-2.6c-28.5,0.1-57,0.1-85.5,0c-3.5,0-6.9,0.2-10.1,1.6
	c-0.3,0-0.5-0.2-0.5-0.5c2.4-1.4,4.9-2,7.8-2c30.1,0,60.2,0,90.3,0C229.1-0.2,232.1,0.5,234.6,2.8z"/>
<path class="st9" d="M359.4,128.1c1.5,2.5,2,5.4,2,8.3c0,29.5,0.1,59,0,88.4c0,3.4-0.6,6.8-3,9.6c-0.3,0-0.5-0.2-0.5-0.5
	c2.1-3.8,2.5-7.8,2.5-12.1c-0.1-27.6,0-55.2,0-82.8c0-3.4-0.2-6.7-1.5-9.9c0-0.2,0-0.3,0-0.5c0-0.2,0-0.3,0-0.5
	C359.1,128.1,359.3,128.1,359.4,128.1z"/>
<path class="st9" d="M120.7,11.3c0-1.5,0.9-2.7,1.5-4c0.3,0,0.5,0.2,0.5,0.5c-1.5,3.1-1.6,6.3-1.6,9.6c0,28.7,0.1,57.4,0,86
	c0,3.7,0.6,7,2.6,10.1c-0.1,0.3-0.2,0.5-0.5,0.5c-1.4-1.5-2.3-3.3-2.5-5.5c0.2-0.8-0.6-1.3-0.5-2c0-31,0-61.9,0-92.9
	C120,12.9,120.9,12.2,120.7,11.3z"/>
<path class="st9" d="M358.5,113.7c0-0.3-0.2-0.5-0.5-0.5c1.9-3.2,2.5-6.7,2.5-10.4c0-28.1,0-56.2,0-84.2c0-3.5-0.4-6.9-1.5-10.2
	c0-0.3,0.2-0.5,0.5-0.5c1.4,2.4,2,5,2,7.8c0,29.6,0,59.1,0,88.7C361.4,107.7,360.8,111,358.5,113.7z"/>
<path class="st9" d="M358.9,248c1.8,2.5,2.4,5.4,2.4,8.4c0.1,29.9,0.1,59.7,0,89.6c0,2.2-0.5,4.4-1.5,6.4c-0.3-0.1-0.5-0.3-0.5-0.6
	c1-4,1-8,1-12c0-26.4,0-52.8,0-79.2c0-4.2-0.2-8.2-2-12C358.5,248.2,358.6,248,358.9,248z"/>
<path class="st9" d="M349,241c1.3,0.6,2.8,0.6,4,1.5c-0.1,0.3-0.3,0.5-0.6,0.5c-3.9-1.4-8-1-12-1.1c-26.3,0-52.7,0-79,0
	c-3.9,0-7.9-0.4-11.7,1.1c-0.3-0.1-0.5-0.2-0.6-0.5c1.2-0.9,2.7-0.9,4-1.5c0.5,0,1,0,1.5,0c31,0,61.9,0,92.9,0
	C348,241,348.5,241,349,241z"/>
<path class="st9" d="M354.9,238c-1.8,1.4-3.7,2.3-6,2.5c-0.5,0-1,0-1.5,0c-31,0-61.9,0-92.9,0c-0.5,0-1,0-1.5,0
	c-2.2-0.3-4.2-1.1-6-2.5c0-0.3,0.2-0.5,0.5-0.5c0.2,0.1,0.5,0,0.7,0.2c2.3,1.9,5.1,2.3,7.9,2.3c29.8,0.1,59.7,0,89.5,0
	c0.7,0,1.5-0.1,2.2-0.2c2.3-0.4,4.4-1.2,6.4-2.3C354.7,237.5,354.9,237.7,354.9,238z"/>
<path class="st9" d="M119.3,9.8c0.4,0.6,0.6,1.3,0.5,2c0,0.7,0,1.3,0,2c0,31,0,61.9,0,92.9c0,0.5,0,1,0,1.5c-0.5,2.9-1.6,5.5-4,7.5
	c-0.3,0-0.5-0.2-0.5-0.5c0-0.2,0-0.3,0-0.5l0,0c0.3,0,0.5-0.2,0.5-0.5c2.5-2.7,3.5-6,3.5-9.7c0-25.8,0-51.5,0-77.3
	c0-5.5,0.4-10.9-0.5-16.4C118.8,10.4,118.7,9.9,119.3,9.8z"/>
<path class="st9" d="M241.1,12.3c0.1-1.6,0.8-3.1,1.5-4.5c0.3,0,0.5,0.2,0.5,0.5c-1.2,3.3-1.5,6.7-1.5,10.2c0,27.6,0,55.3,0,82.9
	c0,3.5,0.4,6.9,1.5,10.2c-0.1,0.3-0.2,0.5-0.5,0.5c-0.9-1.4-1.4-2.9-1.5-4.5c0-0.3,0-0.7,0-1c0-31,0-61.9,0-92.9
	C241.1,13.3,241.1,12.8,241.1,12.3z"/>
<path class="st0" d="M349,120.6c1.2,0,2.4,0.5,3.5,1c-0.1,0.3-0.3,0.5-0.6,0.5c-3.9-1.3-8-1-12-1c-25.9,0-51.8,0-77.7,0
	c-4,0-8.1-0.3-12,1c-0.3-0.1-0.5-0.2-0.6-0.5c1.1-0.5,2.2-1,3.5-1c0.5,0,1,0,1.5,0c31,0,61.9,0,92.9,0
	C348,120.6,348.5,120.6,349,120.6z"/>
<path class="st10" d="M352.4,243c0.3-0.1,0.5-0.2,0.6-0.5c2.6,1.1,4.6,2.9,6,5.5c-0.3,0.1-0.5,0.3-0.5,0.5c-1.2-1-1.9-2.4-3.1-3.4
	C354.4,244.3,353,244.2,352.4,243z"/>
<path class="st11" d="M243.1,8.4c0-0.3-0.2-0.5-0.5-0.5c1.1-2.4,2.6-4.3,5-5.5c0,0.3,0.2,0.5,0.5,0.5C246.1,4.4,244.6,6.4,243.1,8.4
	z"/>
<path class="st11" d="M359.4,7.8c-0.3,0-0.5,0.2-0.5,0.5c-1.5-2-3-4-5-5.5c0.3,0,0.5-0.2,0.5-0.5C356.8,3.5,358.4,5.4,359.4,7.8z"/>
<path class="st11" d="M354.5,358.8c-0.1-0.3-0.3-0.5-0.5-0.5c0.9-1.5,2.7-1.9,3.5-3.5c0.3,0,0.5-0.2,0.5-0.5c0-0.2,0-0.3,0.1-0.5
	c0.3,0,0.4-0.2,0.4-0.5l0.2,0l0.2,0l0,0c0,0.2,0,0.4,0,0.6c0,0.1,0,0.3-0.1,0.4c-0.3,0-0.4,0.2-0.5,0.5
	C357.5,356.6,356.1,357.8,354.5,358.8z"/>
<path class="st11" d="M112.8,2.8c0.3,0,0.5-0.2,0.5-0.5c1.8,0.8,3.1,2.2,4,3.9c-0.1,0.3-0.2,0.5-0.5,0.6
	C115.7,5.2,114.2,4.1,112.8,2.8z"/>
<path class="st11" d="M127.8,1.8c0.1,0.3,0.2,0.5,0.5,0.5c-1.3,1.2-2.7,2.3-4,3.5c-0.3,0-0.5-0.2-0.5-0.6
	C124.8,3.8,126,2.5,127.8,1.8z"/>
<path class="st12" d="M359,128.1c0,0.2,0,0.3,0,0.5c-0.1,0-0.3,0-0.4,0c0-0.2-0.1-0.3-0.1-0.5c0-0.3-0.2-0.5-0.5-0.5
	c-1-1.2-2-2.3-3-3.5c0-0.2,0-0.3,0-0.5l0,0c0.2,0,0.4,0,0.5,0c1,0.7,1.8,1.5,2.5,2.5c0,0.3,0.2,0.5,0.5,0.5l0,0
	c0,0.3,0.2,0.5,0.5,0.5c0,0.1,0.1,0.3,0.1,0.4C359,127.8,359,128,359,128.1z"/>
<path class="st11" d="M354.9,238c0-0.3-0.2-0.5-0.5-0.5c1-1.3,2.2-2.5,3.5-3.5c0,0.3,0.2,0.5,0.5,0.5
	C357.5,235.9,356.4,237.1,354.9,238z"/>
<path class="st11" d="M5.9,2.8c0,0.3,0.2,0.5,0.5,0.5C5.3,4.5,4.1,5.7,3,6.9c0-0.3-0.2-0.5-0.5-0.5C3.4,4.9,4.5,3.8,5.9,2.8z"/>
<path class="st13" d="M116.8,6.8c0.3,0,0.5-0.3,0.5-0.6c1.2,0.9,1.6,2.2,1.9,3.6c-0.6,0.1-0.5,0.6-0.5,1
	C118.1,9.5,117.4,8.2,116.8,6.8z"/>
<path class="st10" d="M351.9,122.2c0.3-0.1,0.5-0.2,0.6-0.5c0.7,0.3,1.3,0.7,2,1c0,0.3,0.2,0.4,0.5,0.5l0,0c0,0.2,0,0.3,0,0.5l0,0
	c-0.2,0-0.4,0-0.5,0c-0.2,0-0.3,0-0.5-0.1c0-0.3-0.2-0.4-0.5-0.4C352.9,122.8,352.3,122.8,351.9,122.2z"/>
<path class="st13" d="M123.8,5.3c0.1,0.3,0.2,0.5,0.5,0.6c-0.5,0.7-0.6,1.6-1.5,2c-0.1-0.3-0.2-0.5-0.5-0.5
	C122.7,6.6,122.9,5.7,123.8,5.3z"/>
<path class="st14" d="M119.8,13.8c0-0.7,0-1.3,0-2c0.3-0.2,0.6-0.3,0.9-0.5c0.1,0.9-0.7,1.6-0.5,2.5
	C120.1,13.8,119.9,13.8,119.8,13.8z"/>
<path class="st15" d="M349,120.6c-0.5,0-1,0-1.5,0c0-0.2,0-0.3,0-0.5c0.9,0,1.6-0.8,2.5-0.5C349.9,120.3,349,120,349,120.6z"/>
<path class="st16" d="M359.4,351.8c0,0.3,0.2,0.5,0.5,0.6c-0.2,0.3-0.3,0.7-0.5,1c-0.2,0-0.3,0-0.5,0l0,0c0-0.2,0-0.4,0-0.6
	C358.9,352.4,358.9,351.9,359.4,351.8z"/>
<path class="st17" d="M347.5,240.5c0.5,0,1,0,1.5,0c0,0.2,0,0.3,0,0.5c-0.5,0-1,0-1.5,0C347.5,240.8,347.5,240.7,347.5,240.5z"/>
<path class="st18" d="M241.1,12.3c0,0.5,0,1,0,1.5c-0.2,0-0.3,0-0.5,0c0-0.5,0-1,0-1.5C240.8,12.3,240.9,12.3,241.1,12.3z"/>
<path class="st19" d="M359,128.1c0-0.2,0-0.4,0-0.5c0.3,0.1,0.4,0.3,0.5,0.6C359.3,128.1,359.1,128.1,359,128.1z"/>
<path class="st19" d="M358.9,127.1c-0.3,0-0.4-0.2-0.5-0.5C358.7,126.7,358.9,126.8,358.9,127.1z"/>
<path class="st19" d="M358.5,126.6c-0.3,0-0.5-0.2-0.5-0.5C358.2,126.2,358.4,126.4,358.5,126.6z"/>
<path class="st13" d="M355,123.6c0-0.2,0-0.3,0-0.5c0.3,0,0.5,0.2,0.5,0.5C355.3,123.6,355.1,123.6,355,123.6z"/>
<path class="st13" d="M355,123.1c-0.3,0-0.5-0.2-0.5-0.5C354.8,122.7,354.9,122.9,355,123.1z"/>
<path class="st13" d="M359,353.3c0.2,0,0.3,0,0.5,0c0,0.3-0.2,0.5-0.5,0.6C359,353.7,359,353.5,359,353.3z"/>
<path class="st13" d="M358.5,354.9c0-0.3,0.2-0.5,0.5-0.5C358.9,354.6,358.7,354.8,358.5,354.9z"/>
<path class="st20" d="M359.4,351.8c-0.5,0.2-0.5,0.6-0.5,1c-0.3,0.1-0.4,0.3-0.5,0.6c-0.3,0.1-0.5,0.2-0.4,0.5
	c0,0.2-0.1,0.3-0.1,0.5c-0.3,0.1-0.4,0.2-0.5,0.5c-0.8,1.5-2.7,2-3.5,3.5c-0.5,0-0.9,0.3-1.4,0.5c-2.1,1.1-4.3,1.5-6.6,1.5
	c-28.6,0-57.2,0-85.7,0c-4.1,0-8.2,0.1-12-2.1c-0.9-1.5-2.7-2-3.5-3.5c0-0.3-0.2-0.5-0.5-0.5c0-0.2,0-0.3-0.1-0.5
	c0-0.3-0.2-0.4-0.4-0.5l0,0c0-0.3-0.2-0.5-0.5-0.6c0-0.4,0-0.8-0.5-1c-1-3.9-1-8-1-12c0-26.5,0-53,0-79.5c0-4.1,0.3-8,2-11.8
	c1.2-1,1.9-2.4,3.1-3.4c0.9-0.8,2.3-0.9,3-2.1c3.8-1.4,7.8-1.1,11.7-1.1c26.3,0,52.7,0,79,0c4,0,8.1-0.4,12,1.1
	c0.6,1.2,2,1.3,2.9,2.1c1.2,1,1.9,2.4,3.1,3.4c1.8,3.8,2,7.9,2,12c-0.1,26.4,0,52.8,0,79.2C360.4,343.8,360.4,347.8,359.4,351.8z
	 M252.6,300.9c0,10.6,0,21.1,0,31.7c0,4.7,0,9.3,0,14c0,2.1,0.9,3,2.9,3.2c0.5,0,1,0,1.5,0c29.4,0,58.7,0,88.1,0
	c0.7,0,1.3,0.1,2-0.1c1.6-0.3,2.4-1.2,2.4-2.9c0-0.4,0-0.8,0-1.2c0-29.7,0-59.4,0-89.1c0-0.6,0-1.2,0-1.7c-0.1-1.4-0.8-2.1-2.2-2.2
	c-0.6-0.1-1.2,0-1.7,0c-29.7,0-59.4,0-89.1,0c-0.5,0-1,0-1.5,0c-1.6,0.1-2.3,0.8-2.4,2.5c0,0.6,0,1.2,0,1.7
	C252.6,271.4,252.6,286.2,252.6,300.9z"/>
<path class="st11" d="M244.6,354.8c0.8,1.5,2.7,2,3.5,3.5c-0.3,0.1-0.5,0.2-0.5,0.5c-1.6-1-3.1-2.2-4-4c0-0.3-0.2-0.5-0.5-0.5
	c0-0.1-0.1-0.3-0.1-0.4c0-0.2,0-0.4,0-0.6l0,0c0.2,0,0.3,0,0.5,0l0,0c0,0.3,0.2,0.5,0.4,0.5c0,0.2,0.1,0.3,0.1,0.5
	C244.1,354.6,244.3,354.8,244.6,354.8z"/>
<path class="st9" d="M-0.1,134.6c0-0.5,0-1,0-1.5c0.5-2.6,1.1-5,3-7c0.3,0,0.5,0.2,0.5,0.5c-1.2,2.4-2.6,4.7-2.6,7.6
	c0.1,30.9,0,61.7,0,92.6c0,1.8,0.4,3.4,1.2,5c0.4,0.9,0.9,1.8,1.4,2.6c0,0.3-0.2,0.5-0.5,0.5c-1.9-1.9-2.6-4.4-3-7c0-0.5,0-1,0-1.5
	C-0.1,195.9-0.1,165.3-0.1,134.6z"/>
<path class="st9" d="M6.4,243.5c1.7-1.5,3.9-1.9,6-2.5c31.6,0,63.3,0,94.9,0c1.5,0.4,3.1,0.6,4.5,1.5c0,0.3-0.3,0.5-0.5,0.5
	c-2-0.3-3.9-1.1-6-1.1c-30.2,0.1-60.3,0.1-90.5,0c-1.9,0-3.7,0.4-5.5,1c-0.8,0.3-1.2,1.2-2.2,1.1C6.7,244,6.5,243.8,6.4,243.5z"/>
<path class="st9" d="M-0.1,255.5c0-0.5,0-1,0-1.5c0-1.8,0.7-3.4,1.6-5c0.2,0,0.3,0,0.5,0c0,0.2,0,0.4,0,0.6
	c-1.4,3.8-1.1,7.8-1.1,11.8c0,15.8,0,31.6,0,47.4c0,13.7,0,27.4,0.1,41.1c0,0.3,0,0.7,0,1c-0.2,0-0.3,0-0.5,0
	c-0.1-0.9-0.7-1.6-0.6-2.5c0-0.5,0-1,0-1.5C-0.1,316.4-0.1,285.9-0.1,255.5z"/>
<path class="st9" d="M12.4,240.5c-2.7-0.1-5-1.3-7-3c0-0.3,0.2-0.5,0.5-0.5c3.6,2.3,7.5,3.1,11.7,3c27.9-0.1,55.9-0.1,83.8,0
	c3.5,0,6.9-0.3,10.2-1.5c0.2,0,0.4,0,0.6,0c0,0.2,0,0.3,0,0.5c-1.6,0.8-3.1,1.6-5,1.5C75.7,240.5,44,240.5,12.4,240.5z"/>
<path class="st21" d="M12.4,240.5c31.6,0,63.3,0,94.9,0c0,0.2,0,0.3,0,0.5c-31.6,0-63.3,0-94.9,0C12.4,240.8,12.4,240.7,12.4,240.5z
	"/>
<path class="st11" d="M2,249.5c0-0.2,0-0.4,0-0.6c0-0.2,0-0.4,0-0.6c0-0.1,0-0.3,0.1-0.4c0.3,0,0.4-0.2,0.5-0.5c0.9-1.7,2.2-3.1,4-4
	c0,0.3,0.2,0.5,0.5,0.5c-1.1,1.2-2.6,2-3.5,3.5c-0.3,0-0.5,0.2-0.5,0.5c0,0.2,0,0.3-0.1,0.5c-0.3,0-0.4,0.2-0.4,0.5
	C2.4,249.3,2.3,249.5,2,249.5z"/>
<path class="st11" d="M6,237c-0.3,0-0.5,0.2-0.5,0.5c-1-0.6-1.9-1.5-2.5-2.5c0.3,0,0.5-0.2,0.5-0.5C4.4,235.1,5.3,236,6,237z"/>
<path class="st13" d="M1.9,248.4c0,0.2,0,0.4,0,0.6c-0.2,0-0.3,0-0.5,0C1.5,248.7,1.6,248.5,1.9,248.4z"/>
<path class="st13" d="M2.4,247.5c0,0.3-0.2,0.5-0.5,0.5C2,247.7,2.2,247.5,2.4,247.5z"/>
<path class="st20" d="M2.9,248.5c0-0.2,0.1-0.3,0.1-0.5c0.3-0.1,0.4-0.3,0.5-0.5c0.9-1.4,2.4-2.3,3.5-3.5c0.9,0.1,1.4-0.8,2.2-1.1
	c1.8-0.6,3.6-1,5.5-1c30.2,0,60.3,0,90.5,0c2.1,0,4,0.8,6,1.1c1.2,0.8,2.4,1.7,3.5,2.5c0.1,0.3,0.2,0.4,0.5,0.5
	c2.8,3.4,4,7.2,4,11.6c-0.1,25.4,0,50.9-0.1,76.4c0,5.5,0.4,10.9-0.5,16.4c-0.7,1.3-1.3,2.7-2,4c-1.1,1.6-2.6,2.7-4,4
	c-0.6-0.1-1.1,0.3-1.6,0.6c-1.9,1-4,1.4-6.2,1.4c-30,0-60.1,0-90.1,0c-1.5,0-2.9-0.4-4.4-0.5c-0.1-0.3-0.2-0.4-0.5-0.4
	c-0.3,0-0.6-0.1-0.9-0.1c-0.1-0.3-0.3-0.4-0.6-0.5c-0.8-0.5-1.7-1-2.5-1.5c-0.1-0.3-0.2-0.4-0.5-0.5l0,0c0-0.3-0.2-0.4-0.5-0.5l0,0
	c0-0.3-0.2-0.4-0.5-0.5l0,0c0-0.3-0.2-0.5-0.5-0.5l0,0c0-0.3-0.2-0.5-0.5-0.5c-0.2-0.3-0.4-0.7-0.5-1c0-0.3-0.2-0.4-0.5-0.5
	c0-0.2,0-0.3-0.1-0.5c0-0.3-0.2-0.4-0.4-0.5c0-0.2,0-0.3-0.1-0.5c0-0.3-0.2-0.5-0.4-0.5c0-0.2,0-0.3,0-0.5c0-0.4,0.1-0.9-0.5-1
	c0-13.7,0-27.4-0.1-41.1c0-15.8,0-31.6,0-47.4c0-3.9-0.4-7.9,1.1-11.8c0.3-0.1,0.4-0.3,0.5-0.6C2.7,248.9,2.9,248.8,2.9,248.5z
	 M11.4,300.9c0,11.4,0,22.8,0,34.2c0,3.8,0,7.7,0,11.5c0,2,1,3,3,3.2c0.4,0,0.8,0,1.2,0c29.5,0,58.9,0,88.4,0c0.6,0,1.2,0.1,1.7,0
	c2.2-0.3,2.9-1.2,3-3.5c0-0.3,0-0.7,0-1c0-29.5,0-58.9,0-88.4c0-0.5,0-1,0-1.5c-0.2-2-1.2-2.9-3.2-3c-0.4,0-0.8,0-1.2,0
	c-29.5,0-59.1,0-88.6,0c-0.6,0-1.2,0-1.7,0c-1.6,0.1-2.4,0.9-2.5,2.5c-0.1,0.6,0,1.2,0,1.7C11.4,271.5,11.4,286.2,11.4,300.9z"/>
<path class="st11" d="M9,359.3c0.3,0,0.6,0.1,0.9,0.1c0,0.1,0,0.3,0,0.4c-0.3,0-0.4,0.2-0.5,0.5c-0.2,0-0.3,0-0.5,0
	c0-0.3-0.2-0.4-0.5-0.4c-0.2,0-0.3,0-0.5-0.1c0-0.3-0.2-0.4-0.5-0.4c-1.9-0.8-3.3-2.4-4.5-4c0-0.3-0.2-0.5-0.5-0.5l0,0
	c0-0.3-0.2-0.4-0.4-0.5c-0.1-0.2-0.1-0.3-0.1-0.5c0-0.3-0.2-0.5-0.5-0.5c0-0.1-0.1-0.3,0-0.5c0-0.3-0.1-0.5-0.4-0.5
	c0-0.2-0.1-0.3,0-0.5c0-0.3-0.1-0.5-0.4-0.5c0-0.2,0-0.3,0-0.5c0.2,0,0.3,0,0.5,0c0.2,0,0.3,0,0.5,0c0,0.2,0,0.3,0,0.5
	c0,0.3,0.1,0.5,0.4,0.5c0,0.2,0.1,0.3,0.1,0.5c0,0.3,0.1,0.5,0.4,0.5c0,0.2,0.1,0.3,0.1,0.5c0,0.3,0.2,0.5,0.5,0.5
	c0.2,0.3,0.4,0.7,0.5,1c0,0.3,0.2,0.5,0.5,0.5l0,0c0,0.3,0.2,0.4,0.5,0.5l0,0c0,0.3,0.2,0.4,0.5,0.5l0,0c0,0.3,0.2,0.4,0.5,0.5l0,0
	c0.1,0.3,0.2,0.4,0.5,0.5c0.8,0.5,1.7,1,2.5,1.5C8.5,359.2,8.7,359.3,9,359.3z"/>
<path class="st10" d="M112.7,358.3c1.4-1.3,2.9-2.4,4-4c0.3,0.1,0.5,0.2,0.5,0.6c-0.8,1.9-2.4,3-4,3.9
	C113.2,358.5,113,358.4,112.7,358.3z"/>
<path class="st22" d="M9.9,359.8c0-0.1,0-0.3,0-0.4c0.3,0,0.5,0.2,0.5,0.4C10.3,359.8,10.1,359.8,9.9,359.8z"/>
<path class="st9" d="M10.9,119.7c-1.7-0.3-3.2-1-4.5-2c0-0.3,0.2-0.5,0.5-0.5c3.8,2.1,7.9,2.1,12,2.1c26.8,0,53.7,0,80.5,0
	c3.9,0,7.9,0.4,11.8-1.1c0.3,0.1,0.5,0.2,0.6,0.5c-0.9,0.5-1.8,1.2-3,1c-0.9-0.3-1.6,0.5-2.5,0.5c-31,0-61.9,0-92.9,0
	C12.5,120.2,11.8,119.4,10.9,119.7z"/>
<path class="st9" d="M8.4,121.7c1.1-0.5,2.2-1,3.5-1.1c0.5,0,1,0,1.5,0c31,0,61.9,0,92.9,0c0.5,0,1,0,1.5,0c1.7,0,3.1,0.7,4.4,1.5
	c0,0.3-0.2,0.5-0.5,0.5c-3.3-1.3-6.7-1.5-10.2-1.5c-28.2,0.1-56.4,0-84.6,0c-2.6,0-5.1,0.4-7.5,1C9,122.1,8.6,122.2,8.4,121.7z"/>
<path class="st11" d="M8.4,121.7c0.1,0.6,0.6,0.4,1,0.5c-0.4,0.8-1.4,0.8-2.1,1.2c-1.5,0.9-2.4,2.5-3.9,3.4c0-0.3-0.2-0.5-0.5-0.5
	C4.3,124.1,6.1,122.6,8.4,121.7z"/>
<path class="st11" d="M7,117.1c-0.3,0-0.5,0.2-0.5,0.5c-1.6-1.1-3.1-2.2-4-4c0.3,0,0.5-0.2,0.5-0.5C4,114.7,5.8,115.7,7,117.1z"/>
<path class="st17" d="M13.4,120.6c-0.5,0-1,0-1.5,0c0-0.6-0.9-0.4-1-1c0.9-0.3,1.6,0.5,2.5,0.5C13.4,120.3,13.4,120.5,13.4,120.6z"
	/>
<path class="st20" d="M230.1,359.8c-2.6,0.7-5.2,0.5-7.9,0.5c-27,0-54.1,0-81.1,0c-4,0-7.9,0.2-11.8-1c-0.9-0.8-1.9-1.5-3-2
	c-1.2-1.3-2.3-2.7-3.5-4c-0.9-2.3-1.6-4.6-1.6-7.1c0-30,0-60.1,0-90.1c0-2.4,0.5-4.6,1.5-6.7c0.2-0.4,0.6-0.8,0.5-1.4
	c1.4-1.2,2.8-2.6,4-4c3.7-2.1,7.7-2.1,11.7-2.1c27.5,0.1,55,0.1,82.5,0c4.1,0,8.3-0.1,12,2.1c1.5,1.2,2.8,2.5,4,4
	c1.8,3.2,2.1,6.6,2.1,10.2c-0.1,28.1-0.1,56.2,0,84.3c0,4.1,0.1,8.1-2.1,11.7c-1.5,1-2.4,2.6-4,3.6c-0.3,0-0.4,0.2-0.5,0.4l0,0
	c-0.3,0-0.5,0.2-0.6,0.5c-0.1,0-0.3,0-0.4,0c-0.3,0-0.5,0.2-0.6,0.5c-0.3,0-0.6,0.1-0.9,0.1C230.3,359.4,230.2,359.5,230.1,359.8z
	 M180.4,252.5c-14.8,0-29.6,0-44.4,0c-0.6,0-1.2,0-1.7,0c-1.3,0.1-2.3,1.1-2.4,2.4c-0.1,0.7,0,1.3,0,2c0,29.4,0,58.7,0,88.1
	c0,4.1,0.6,4.8,4.7,4.8c0.1,0,0.2,0,0.2,0c29.3,0,58.6,0,87.9,0c3.8,0,4.5-0.7,4.5-4.4c0-29.5,0-59.1,0-88.6c0-0.6,0-1.2,0-1.7
	c-0.1-1.6-0.9-2.4-2.5-2.5c-0.6,0-1.2,0-1.7,0C210,252.5,195.2,252.5,180.4,252.5z"/>
<path class="st11" d="M126.3,357.3c1.1,0.5,2.1,1.2,3,2c-0.3,0.1-0.5,0.2-0.6,0.5c-1-0.6-2.4-0.7-3-2
	C125.8,357.5,126,357.4,126.3,357.3z"/>
<path class="st13" d="M230.6,359.4c0.3,0,0.6-0.1,0.9-0.1c0.3,0,0.5-0.1,0.6-0.5c0.1,0,0.3,0,0.4,0c0.2,0,0.4,0,0.6,0
	c0.2,0,0.4,0,0.6,0c-0.1,0.3-0.3,0.4-0.6,0.5c-0.3,0-0.5,0.2-0.5,0.4c-0.2,0-0.3,0-0.5,0.1c-0.3,0-0.5,0.1-0.5,0.4
	c-0.2,0-0.3,0-0.5,0c0-0.3-0.2-0.4-0.5-0.5C230.6,359.7,230.6,359.5,230.6,359.4z"/>
<path class="st19" d="M230.6,359.4c0,0.1,0,0.3,0,0.4c-0.2,0-0.3,0-0.5,0C230.2,359.5,230.3,359.4,230.6,359.4z"/>
<path class="st9" d="M237.6,354.3c2.2-3.7,2.1-7.7,2.1-11.7c-0.1-28.1-0.1-56.2,0-84.3c0-3.6-0.3-7-2.1-10.2
	c0.1-0.3,0.2-0.5,0.5-0.5c1.5,1.7,2,3.8,2.5,6c0,0.3,0,0.7,0,1c0,31,0,61.9,0,92.9c0,0.5,0,1,0,1.5c-0.6,2.1-1.1,4.2-2.5,6
	C237.8,354.8,237.6,354.6,237.6,354.3z"/>
<path class="st9" d="M243.6,248.5c-1.7,3.7-2,7.7-2,11.8c0.1,26.5,0,53,0,79.5c0,4,0,8.1,1,12c-0.1,0.3-0.2,0.5-0.5,0.6
	c-0.5-1.1-1-2.2-1-3.5c0-0.5,0-1,0-1.5c0-31,0-61.9,0-92.9c0-0.3,0-0.7,0-1c0.2-2,0.9-3.8,2-5.5C243.4,248,243.6,248.2,243.6,248.5z
	"/>
<path class="st11" d="M237.6,354.3c0.1,0.3,0.2,0.5,0.5,0.6c-0.9,1.4-2.1,2.6-3.5,3.5c-0.3,0-0.5,0.2-0.5,0.5
	c-0.1,0-0.3,0.1-0.4,0.1c-0.2,0-0.4,0-0.6,0c0-0.2,0-0.3,0-0.5l0,0c0.3,0,0.5-0.2,0.5-0.4C235.2,356.9,236.1,355.3,237.6,354.3z"/>
<path class="st16" d="M242.1,352.3c0.3-0.1,0.5-0.3,0.5-0.6c0.5,0.2,0.5,0.6,0.5,1c0,0.2,0,0.4,0,0.6l0,0c-0.2,0-0.3,0-0.5,0
	C242.5,353,242.3,352.7,242.1,352.3z"/>
<path class="st18" d="M241.1,347.3c0,0.5,0,1,0,1.5c0,0-0.2,0-0.2,0s-0.2,0-0.2,0c0-0.5,0-1,0-1.5l0.2,0L241.1,347.3z"/>
<path class="st13" d="M242.6,353.3c0.2,0,0.3,0,0.5,0c0,0.2,0,0.4,0,0.6C242.8,353.8,242.6,353.6,242.6,353.3z"/>
<path class="st13" d="M243.1,354.3c0.3,0,0.4,0.2,0.5,0.5C243.3,354.8,243.2,354.6,243.1,354.3z"/>
<path class="st13" d="M234.1,358.8c0-0.3,0.2-0.4,0.5-0.5C234.6,358.6,234.4,358.8,234.1,358.8z"/>
<path class="st19" d="M232.6,359.8c0-0.3,0.2-0.4,0.5-0.4C233.1,359.6,232.9,359.8,232.6,359.8z"/>
<path class="st19" d="M231.6,360.3c0-0.3,0.2-0.4,0.5-0.4C232.1,360.1,231.9,360.3,231.6,360.3z"/>
<path class="st9" d="M123.3,248c0,0.5-0.3,0.9-0.5,1.4c-1.1,2.1-1.5,4.3-1.5,6.7c0,30,0,60.1,0,90.1c0,2.5,0.7,4.8,1.6,7.1
	c-0.1,0.3-0.2,0.5-0.5,0.5c-1-1.5-1.4-3.3-2-5c0-0.5,0-1,0-1.5c0-31,0-61.9,0-92.9c0-0.9,0.7-1.6,0.5-2.5c0.3-1.7,1-3.2,2-4.5
	C123.1,247.5,123.3,247.7,123.3,248z"/>
<path class="st9" d="M118.8,350.3c0.9-5.4,0.5-10.9,0.5-16.4c0-25.5,0-50.9,0.1-76.4c0-4.4-1.2-8.2-4-11.6l0,0
	c0.3,0,0.4-0.2,0.5-0.5l0,0c2.4,1.9,3.5,4.5,4,7.5c0,0.5,0,1,0,1.5c0,31,0,61.9,0,92.9c0,0.5,0,1,0,1.5c0,0.9,0,1.7-0.6,2.4
	C118.7,351.2,118.8,350.7,118.8,350.3z"/>
<path class="st12" d="M122.3,353.8c0.3,0,0.5-0.3,0.5-0.5c1.2,1.3,2.3,2.7,3.5,4c-0.3,0-0.5,0.2-0.5,0.5
	C124.3,356.8,123,355.6,122.3,353.8z"/>
<path class="st13" d="M118.8,350.3c0,0.4-0.1,0.9,0.5,1c-0.3,1.4-0.8,2.7-1.9,3.6c-0.1-0.3-0.2-0.5-0.5-0.6
	C117.4,353,118.1,351.6,118.8,350.3z"/>
<path class="st23" d="M119.8,348.9c0-0.5,0-1,0-1.5l0.2,0l0.2,0c0,0.5,0,1,0,1.5C120.1,348.8,120,348.9,119.8,348.9z"/>
<path class="st11" d="M0.5,351.3c0.3,0,0.4,0.2,0.4,0.5C0.7,351.8,0.5,351.7,0.5,351.3z"/>
<path class="st11" d="M1,352.3c0.3,0.1,0.4,0.2,0.4,0.5C1.2,352.8,1,352.6,1,352.3z"/>
<path class="st11" d="M1.5,353.3c0.3,0.1,0.4,0.2,0.5,0.5C1.7,353.8,1.5,353.6,1.5,353.3z"/>
<path class="st11" d="M2,354.3c0.3,0,0.4,0.2,0.4,0.5C2.2,354.8,2,354.6,2,354.3z"/>
<path class="st11" d="M2.4,354.8c0.3,0.1,0.5,0.2,0.5,0.5C2.7,355.3,2.5,355.1,2.4,354.8z"/>
<path class="st22" d="M7.4,359.3c0.3,0,0.5,0.2,0.5,0.4C7.6,359.8,7.5,359.6,7.4,359.3z"/>
<path class="st22" d="M8.4,359.8c0.3,0,0.5,0.1,0.5,0.4C8.6,360.3,8.5,360.1,8.4,359.8z"/>
<path class="st20" d="M122.8,7.9c0.9-0.4,1-1.3,1.5-2c1.3-1.2,2.7-2.3,4-3.5c3.3-1.4,6.7-1.6,10.1-1.6c28.5,0.1,57,0.1,85.5,0
	c3.7,0,7,0.7,10.1,2.6c0.4,0.8,1.1,1.2,1.7,1.8c2.6,2.6,3.9,5.6,3.9,9.3c0,30.4,0,60.8,0,91.2c0,2.1-0.4,4.1-1.5,5.9
	c-0.3,0.5-0.7,1-0.6,1.6c-1.3,1.3-2.7,2.7-4,4c-3.7,2.1-7.7,2.1-11.8,2.1c-28.3-0.1-56.6-0.1-84.9,0c-3.7,0-7-0.6-10.1-2.6
	c-0.9-1.2-1.9-2.2-3-3c-1.9-3.1-2.6-6.4-2.6-10.1c0.1-28.7,0.1-57.4,0-86C121.2,14.2,121.3,10.9,122.8,7.9z M229.1,60.1
	c0-14.7,0-29.4,0-44.2c0-0.6,0-1.2,0-1.7c0-1.3-0.6-1.9-1.7-2.5c-0.7-0.3-1.4-0.3-2.2-0.3c-29.9,0-59.7,0-89.6,0
	c-2.4,0-3.9,1.3-3.9,3.9c0.1,29.8,0.1,59.6,0,89.3c0,2.6,1.1,4.1,4,4.1c29.8-0.1,59.6,0,89.3,0c3.2,0,4-0.8,4-4.2
	C229.1,89.7,229.1,74.9,229.1,60.1z"/>
<path class="st24" d="M240.6,13.8c0.2,0,0.3,0,0.5,0c0,31,0,61.9,0,92.9c-0.2,0-0.3,0-0.5,0C240.6,75.7,240.6,44.8,240.6,13.8z"/>
<path class="st10" d="M238.1,113.7c-1.1,1.6-2.4,2.9-4,4c-0.1-0.3-0.3-0.5-0.5-0.5c1.3-1.3,2.7-2.7,4-4
	C237.6,113.4,237.8,113.6,238.1,113.7z"/>
<path class="st25" d="M240.6,106.7c0.2,0,0.3,0,0.5,0c0,0.3,0,0.7,0,1l-0.2,0l-0.2,0C240.6,107.4,240.6,107,240.6,106.7z"/>
<path class="st20" d="M353.9,2.8c2,1.5,3.5,3.5,5,5.5c1.2,3.3,1.5,6.7,1.5,10.2c0,28.1,0,56.2,0,84.2c0,3.7-0.6,7.2-2.5,10.4
	c-2.2,2.8-4.9,4.7-8.4,5.7c-0.8,0.2-1.6,0.3-2.4,0.3c-30.8,0-61.5,0-92.3,0c-1.6,0-3.1-0.5-4.5-1.1c-0.7-0.3-1.4-0.9-2.3-1
	c-2-1.5-3.6-3.4-5-5.5c-1.1-3.3-1.5-6.7-1.5-10.2c0-27.6,0-55.3,0-82.9c0-3.5,0.4-6.9,1.5-10.2c1.5-2,3-4,5-5.5
	c0.5,0,0.9-0.3,1.4-0.5c2.1-1.1,4.3-1.5,6.6-1.5c29.9,0,59.8,0,89.7,0c2.4,0,4.6,0.4,6.6,1.5C353,2.5,353.4,2.9,353.9,2.8z
	 M252.6,59.8c0,12.1,0,24.3,0,36.4c0,3,0,6,0,9c0,2.5,0.9,3.4,3.5,3.4c0.2,0,0.5,0,0.7,0c29.5,0,59.1,0,88.6,0c0.6,0,1.2,0.1,1.7,0
	c1.2-0.2,2.2-1.3,2.3-2.5c0-0.5,0-1,0-1.5c0-29.8,0-59.6,0-89.3c0-0.4,0-0.8,0-1.2c0.1-1.1-0.5-1.7-1.3-2.2
	c-0.8-0.5-1.7-0.5-2.6-0.5c-29.6,0-59.2,0-88.8,0c-3.3,0-4.1,0.8-4.1,4.1C252.6,30.2,252.6,45,252.6,59.8z"/>
<path class="st22" d="M347.5,120.2c0,0.2,0,0.3,0,0.5c-31,0-61.9,0-92.9,0c0-0.2,0-0.3,0-0.5C285.5,120.2,316.5,120.2,347.5,120.2z"
	/>
<path class="st11" d="M243.1,111.6c1.4,2.1,3,4,5,5.5c-0.3,0-0.5,0.2-0.5,0.5c-2.5-1.1-3.8-3.2-5-5.5
	C242.9,112.1,243.1,111.9,243.1,111.6z"/>
<path class="st15" d="M254.6,120.2c0,0.2,0,0.3,0,0.5c-0.5,0-1,0-1.5,0c0-0.6-0.9-0.4-1-1C253,119.4,253.7,120.2,254.6,120.2z"/>
<path class="st20" d="M7,117.1c-1.2-1.5-2.9-2.4-4-4c0.1-0.9-0.8-1.4-1.1-2.2c-0.6-1.8-1-3.6-1-5.5c0-30.3,0-60.5,0-90.8
	c0-2.3,0.5-4.4,1.6-6.4C2.7,7.8,3,7.4,3,6.9c1.2-1.2,2.3-2.4,3.5-3.5c3.1-1.9,6.4-2.6,10.1-2.6c29.1,0.1,58.1,0.1,87.2,0
	c2.9,0,5.7,0.3,8.3,1.9c0.2,0.1,0.5,0.1,0.7,0.1c1.4,1.3,2.9,2.4,4,4c0.7,1.3,1.3,2.7,2,4c0.9,5.4,0.5,10.9,0.5,16.4
	c0,25.8,0,51.5,0,77.3c0,3.7-1,6.9-3.5,9.7c-0.3,0-0.5,0.2-0.5,0.5l0,0c-0.3,0-0.5,0.2-0.5,0.5l0,0c-0.3,0-0.5,0.2-0.5,0.5
	c-0.6,1.3-2.2,1.4-3.1,2.5c-3.8,1.4-7.8,1-11.8,1.1c-26.8,0-53.7,0-80.5,0C14.8,119.2,10.7,119.3,7,117.1z M11.4,59.8
	c0,14.7,0,29.4,0,44.2c0,0.7,0,1.3,0,2c0,1.1,0.6,1.8,1.6,2.3c0.8,0.4,1.6,0.3,2.4,0.3c29.8,0,59.6,0,89.3,0c2.8,0,4-1.4,4-4.1
	c-0.1-29.7-0.1-59.4,0-89.1c0-3-1.3-4.2-4.1-4.2c-29.7,0.1-59.4,0-89.1,0c-3.3,0-4.1,0.8-4.1,4C11.4,30.2,11.4,45,11.4,59.8z"/>
<path class="st20" d="M351.9,122.2c0.4,0.6,1,0.6,1.6,1c0.1,0.3,0.2,0.4,0.5,0.4c0.1,0,0.3,0.1,0.5,0.1c0.1,0.3,0.3,0.4,0.5,0.5
	c1,1.2,2,2.3,3,3.5c0,0.3,0.2,0.4,0.5,0.5c0,0.2,0,0.3,0.1,0.5c0,0.3,0.2,0.4,0.4,0.5c1.3,3.2,1.5,6.5,1.5,9.9c0,27.6,0,55.2,0,82.8
	c0,4.3-0.4,8.3-2.5,12.1c-1.3,1.1-2.5,2.2-3.5,3.5c-2,1.1-4.1,1.9-6.4,2.3c-0.7,0.1-1.5,0.2-2.2,0.2c-29.8,0-59.7,0-89.5,0
	c-2.8,0-5.6-0.4-7.9-2.3c-0.2-0.1-0.5-0.1-0.7-0.2c-1-1.3-2.2-2.5-3.5-3.5c-2.1-3.8-2.5-7.8-2.5-12.1c0.1-27.6,0-55.2,0-82.8
	c0-3.4,0.2-6.7,1.5-9.9c0.3-0.1,0.4-0.2,0.4-0.5c0-0.2,0.1-0.3,0.1-0.5c0.3-0.1,0.4-0.2,0.5-0.5c1-1.2,2-2.3,3-3.5
	c0.3,0,0.5-0.2,0.5-0.5c0.2,0,0.3,0,0.5-0.1c0.3,0,0.4-0.2,0.5-0.4c0.5-0.3,1.2-0.4,1.6-1c3.9-1.3,8-1,12-1c25.9,0,51.8,0,77.7,0
	C343.9,121.2,348,120.9,351.9,122.2z M300.8,229c14.8,0,29.6,0,44.4,0c0.7,0,1.3,0,2,0c1.5-0.1,2.2-0.8,2.3-2.3c0-0.6,0-1.2,0-1.7
	c0-29.6,0-59.2,0-88.8c0-0.5,0-1,0-1.5c-0.1-1.7-0.7-2.4-2.4-2.5c-0.5,0-1,0-1.5,0c-29.7,0-59.4,0-89.1,0c-0.7,0-1.3,0-2,0
	c-1.1,0.1-1.8,0.9-1.9,2c-0.1,0.6,0,1.2,0,1.7c0,29.8,0,59.6,0,89.3c0,0.5,0,1,0,1.5c0.1,1.5,0.8,2.3,2.3,2.4c0.7,0,1.3,0,2,0
	C271.5,229,286.1,229,300.8,229z"/>
<path class="st19" d="M359,129.1c-0.3-0.1-0.4-0.2-0.4-0.5c0.1,0,0.3,0,0.4,0C359,128.8,359,129,359,129.1z"/>
<path class="st13" d="M119.8,13.8c0.2,0,0.3,0,0.5,0c0,31,0,61.9,0,92.9c-0.2,0-0.3,0-0.5,0C119.8,75.7,119.8,44.8,119.8,13.8z"/>
<path class="st12" d="M126.3,117.2c-1.2-0.8-2.2-1.8-3-3c0.3,0,0.5-0.2,0.5-0.5c1.1,0.9,2.2,1.9,3,3
	C126.5,116.7,126.3,116.9,126.3,117.2z"/>
<path class="st14" d="M119.8,106.7c0.2,0,0.3,0,0.5,0c-0.2,0.7,0.7,1.3,0.5,2c-0.3-0.2-0.6-0.3-0.9-0.5
	C119.8,107.7,119.8,107.2,119.8,106.7z"/>
<path class="st21" d="M347.5,240.5c0,0.2,0,0.3,0,0.5c-31,0-61.9,0-92.9,0c0-0.2,0-0.3,0-0.5C285.5,240.5,316.5,240.5,347.5,240.5z"
	/>
<path class="st10" d="M243.1,248c1.3-2.5,3.4-4.3,6-5.5c0.1,0.3,0.3,0.5,0.6,0.5c-0.6,1.2-2,1.3-3,2.1c-1.2,1-1.9,2.4-3.1,3.4
	C243.6,248.2,243.4,248,243.1,248z"/>
<path class="st17" d="M254.6,240.5c0,0.2,0,0.3,0,0.5c-0.5,0-1,0-1.5,0c0-0.2,0-0.3,0-0.5C253.6,240.5,254.1,240.5,254.6,240.5z"/>
<path class="st11" d="M247.1,238c-1.4-0.9-2.6-2.1-3.5-3.5c0.3,0,0.5-0.3,0.5-0.5c1.3,1.1,2.5,2.2,3.5,3.5
	C247.4,237.5,247.2,237.7,247.1,238z"/>
<path class="st10" d="M115.8,115.7c-0.9,1.5-2.5,2.2-4,3c-0.1-0.3-0.3-0.5-0.6-0.5c0.8-1,2.4-1.2,3.1-2.5c0.3,0,0.5-0.2,0.5-0.5l0,0
	c0.2,0,0.3,0,0.5,0C115.3,115.4,115.5,115.6,115.8,115.7z"/>
<path class="st20" d="M115.3,115.1c-0.2,0-0.3,0-0.5,0c0-0.3,0.2-0.5,0.5-0.5C115.3,114.8,115.3,115,115.3,115.1z"/>
<path class="st20" d="M115.3,114.7c0-0.3,0.2-0.5,0.5-0.5C115.7,114.5,115.6,114.6,115.3,114.7z"/>
<path class="st10" d="M250.2,122.2c-0.4,0.6-1,0.6-1.6,1c-0.3,0-0.5,0.2-0.5,0.4c-0.1,0-0.3,0.1-0.5,0.1c-0.2,0-0.4,0-0.5,0l0,0
	c0-0.2,0-0.3,0-0.5l0,0c0.3,0,0.5-0.2,0.5-0.5c0.7-0.3,1.3-0.7,2-1C249.7,122,249.9,122.1,250.2,122.2z"/>
<path class="st13" d="M358.5,353.3c0-0.3,0.2-0.5,0.5-0.6c0,0.2,0,0.4,0,0.6l-0.2,0L358.5,353.3z"/>
<path class="st13" d="M358,353.8c0-0.3,0.2-0.4,0.4-0.5C358.4,353.6,358.3,353.8,358,353.8z"/>
<path class="st13" d="M357.5,354.8c0-0.3,0.2-0.5,0.5-0.5C357.9,354.6,357.8,354.8,357.5,354.8z"/>
<path class="st19" d="M358.4,128.2c-0.3-0.1-0.4-0.2-0.5-0.5C358.3,127.7,358.4,127.9,358.4,128.2z"/>
<path class="st13" d="M355,124.2c-0.3,0-0.5-0.2-0.5-0.5c0.2,0,0.4,0,0.5,0C355,123.8,355,124,355,124.2z"/>
<path class="st13" d="M354,123.6c-0.3,0-0.4-0.2-0.5-0.4C353.7,123.2,353.9,123.3,354,123.6z"/>
<path class="st26" d="M252.6,300.9c0-14.7,0-29.4,0-44.2c0-0.6,0-1.2,0-1.7c0.1-1.7,0.8-2.4,2.4-2.5c0.5,0,1,0,1.5,0
	c29.7,0,59.4,0,89.1,0c0.6,0,1.2,0,1.7,0c1.4,0.1,2.1,0.9,2.2,2.2c0.1,0.6,0,1.2,0,1.7c0,29.7,0,59.4,0,89.1c0,0.4,0,0.8,0,1.2
	c-0.1,1.7-0.8,2.6-2.4,2.9c-0.6,0.1-1.3,0.1-2,0.1c-29.4,0-58.7,0-88.1,0c-0.5,0-1,0-1.5,0c-2.1-0.2-2.9-1.1-2.9-3.2
	c0-4.7,0-9.3,0-14C252.6,322,252.6,311.5,252.6,300.9z"/>
<path class="st13" d="M243.1,353.3c0-0.2,0-0.4,0-0.6c0.3,0.1,0.4,0.3,0.5,0.6C243.4,353.3,243.3,353.3,243.1,353.3z"/>
<path class="st13" d="M244.1,353.8c-0.3,0-0.4-0.2-0.4-0.5C243.9,353.4,244.1,353.5,244.1,353.8z"/>
<path class="st13" d="M244.6,354.8c-0.3,0-0.5-0.2-0.5-0.5C244.4,354.4,244.6,354.5,244.6,354.8z"/>
<path class="st20" d="M3.5,126.7c1.5-0.9,2.4-2.5,3.9-3.4c0.7-0.4,1.6-0.4,2.1-1.2c2.5-0.6,5-1,7.5-1c28.2,0,56.4,0.1,84.6,0
	c3.5,0,6.9,0.3,10.2,1.5c2.3,1.7,4.4,3.7,6,6c1.3,3.3,1.5,6.7,1.5,10.2c-0.1,27.8-0.1,55.6,0,83.5c0,3.5-0.2,6.9-1.5,10.1
	c-0.3,0.1-0.4,0.3-0.5,0.6l0,0c-0.3,0.1-0.5,0.2-0.4,0.5c0,0.2-0.1,0.3-0.1,0.5c-0.3,0.1-0.4,0.2-0.5,0.5c-0.8,0.8-1.7,1.7-2.5,2.5
	c-0.3,0-0.5,0.2-0.5,0.5c-0.2,0-0.3,0-0.5,0.1c-0.3,0-0.4,0.2-0.5,0.4l0,0c-0.3,0-0.5,0.2-0.6,0.5c-3.3,1.2-6.7,1.5-10.2,1.5
	c-27.9-0.1-55.9-0.1-83.8,0c-4.3,0-8.2-0.8-11.7-3c-0.7-1-1.5-1.8-2.5-2.5c-0.5-0.9-0.9-1.7-1.4-2.6c-0.8-1.6-1.2-3.2-1.2-5
	c0-30.9,0-61.7,0-92.6C0.9,131.4,2.2,129.1,3.5,126.7z M60,132.1c-14.8,0-29.6,0-44.4,0c-3.3,0-4.1,0.3-4.1,4.1
	c0.1,29.6,0.1,59.2,0,88.9c0,3.7,0.8,4.1,4.2,4.1c29.6,0,59.2,0,88.9,0c0.7,0,1.3,0,2,0c1.3-0.1,2.1-0.9,2.3-2.2
	c0.1-0.6,0-1.2,0-1.7c0-29.7,0-59.4,0-89.1c0-3.4-0.5-3.9-3.9-3.9C89.9,132.1,74.9,132.1,60,132.1z"/>
<path class="st11" d="M111.8,242.5c1.3,0.7,2.8,1,3.5,2.5c-0.3,0-0.5,0.2-0.5,0.5c-1.2-0.8-2.4-1.7-3.5-2.5
	C111.5,243,111.7,242.8,111.8,242.5z"/>
<path class="st11" d="M1.4,350.8c-0.2,0-0.3,0-0.5,0c0-0.3,0-0.7,0-1C1.5,350,1.4,350.4,1.4,350.8z"/>
<path class="st13" d="M112.9,238.5c-0.1,0.3-0.3,0.4-0.6,0.5c0-0.2,0-0.3,0-0.5h0C112.5,238.5,112.7,238.5,112.9,238.5z"/>
<path class="st13" d="M111.7,238.5c0.1-0.3,0.3-0.4,0.6-0.5c0,0.2,0,0.3,0,0.5h0C112.1,238.5,111.9,238.5,111.7,238.5z"/>
<path class="st13" d="M2.9,248.5c0,0.3-0.2,0.4-0.4,0.5C2.5,248.7,2.6,248.5,2.9,248.5z"/>
<path class="st13" d="M3.4,247.5c0,0.3-0.2,0.5-0.5,0.5C3,247.7,3.1,247.5,3.4,247.5z"/>
<path class="st27" d="M11.4,300.9c0-14.7,0-29.5,0-44.2c0-0.6,0-1.2,0-1.7c0.1-1.6,0.9-2.4,2.5-2.5c0.6,0,1.2,0,1.7,0
	c29.5,0,59.1,0,88.6,0c0.4,0,0.8,0,1.2,0c2,0,3,1,3.2,3c0,0.5,0,1,0,1.5c0,29.5,0,58.9,0,88.4c0,0.3,0,0.7,0,1
	c-0.1,2.3-0.8,3.2-3,3.5c-0.6,0.1-1.2,0-1.7,0c-29.5,0-58.9,0-88.4,0c-0.4,0-0.8,0-1.2,0c-2-0.2-3-1.2-3-3.2c0-3.8,0-7.7,0-11.5
	C11.4,323.7,11.4,312.3,11.4,300.9z"/>
<path class="st0" d="M114.8,245.5c0-0.3,0.2-0.5,0.5-0.5c0.3,0.1,0.4,0.2,0.5,0.5l0,0c-0.3,0-0.4,0.2-0.5,0.5l0,0
	C115,245.9,114.8,245.8,114.8,245.5z"/>
<path class="st11" d="M1.9,351.8c-0.3-0.1-0.4-0.2-0.4-0.5C1.7,351.4,1.9,351.5,1.9,351.8z"/>
<path class="st11" d="M2.4,352.8c-0.3,0-0.4-0.2-0.4-0.5C2.2,352.4,2.4,352.5,2.4,352.8z"/>
<path class="st11" d="M2.9,353.8c-0.3-0.1-0.4-0.2-0.5-0.5C2.7,353.4,2.9,353.5,2.9,353.8z"/>
<path class="st11" d="M3.9,355.3c-0.3,0-0.5-0.2-0.5-0.5C3.7,354.9,3.9,355,3.9,355.3z"/>
<path class="st11" d="M4.4,355.8c-0.3-0.1-0.4-0.2-0.5-0.5C4.2,355.4,4.4,355.5,4.4,355.8z"/>
<path class="st11" d="M4.9,356.3c-0.3,0-0.4-0.2-0.5-0.5C4.7,355.9,4.9,356.1,4.9,356.3z"/>
<path class="st11" d="M5.4,356.8c-0.3,0-0.4-0.2-0.5-0.5C5.2,356.4,5.4,356.6,5.4,356.8z"/>
<path class="st11" d="M5.9,357.3c-0.3,0-0.5-0.2-0.5-0.5C5.7,356.9,5.9,357,5.9,357.3z"/>
<path class="st22" d="M9,359.3c-0.3,0-0.5-0.1-0.6-0.5C8.7,358.9,8.9,359,9,359.3z"/>
<path class="st22" d="M13.4,120.6c0-0.2,0-0.3,0-0.5c31,0,61.9,0,92.9,0c0,0.2,0,0.3,0,0.5C75.3,120.6,44.4,120.6,13.4,120.6z"/>
<path class="st28" d="M106.3,120.6c0-0.2,0-0.3,0-0.5c0.9,0,1.6-0.8,2.5-0.5c-0.1,0.6-0.9,0.3-1,0.9
	C107.3,120.6,106.8,120.6,106.3,120.6z"/>
<path class="st10" d="M117.8,128.7c-1.7-2.4-3.7-4.3-6-6c0.3-0.1,0.5-0.2,0.5-0.5c2.7,1.3,4.7,3.3,6,6
	C118,128.2,117.8,128.4,117.8,128.7z"/>
<path class="st29" d="M180.4,252.5c14.8,0,29.6,0,44.4,0c0.6,0,1.2,0,1.7,0c1.6,0.1,2.4,0.9,2.5,2.5c0.1,0.6,0,1.2,0,1.7
	c0,29.5,0,59.1,0,88.6c0,3.8-0.7,4.4-4.5,4.4c-29.3,0-58.6,0-87.9,0c-0.1,0-0.2,0-0.2,0c-4.1,0-4.7-0.7-4.7-4.8
	c0-29.4,0-58.7,0-88.1c0-0.7-0.1-1.3,0-2c0.1-1.3,1.2-2.3,2.4-2.4c0.6-0.1,1.2,0,1.7,0C150.8,252.5,165.6,252.5,180.4,252.5z"/>
<path class="st9" d="M126.8,243.5c1.7-1.4,3.9-2,6-2.5c31.5,0,62.9,0,94.4,0c0.5,0,1,0,1.5,0c1.8,0.9,4,1,5.5,2.5
	c0,0.3-0.2,0.5-0.5,0.5c-3.7-2.2-7.8-2.1-12-2.1c-27.5,0-55,0.1-82.5,0c-4.1,0-8.1,0-11.7,2.1C127,244,126.8,243.8,126.8,243.5z"/>
<path class="st12" d="M126.8,243.5c0,0.3,0.3,0.5,0.6,0.5c-1.2,1.4-2.6,2.8-4,4c-0.1-0.3-0.2-0.5-0.5-0.6
	C123.9,245.9,125.2,244.6,126.8,243.5z"/>
<path class="st11" d="M233.6,244c0.3-0.1,0.5-0.2,0.5-0.5c1.8,0.9,3.1,2.2,4,4c-0.3,0-0.5,0.2-0.5,0.5
	C236.4,246.5,235.1,245.2,233.6,244z"/>
<path class="st13" d="M233.6,357.9c0,0.3-0.2,0.4-0.5,0.4C233.2,358.1,233.3,357.9,233.6,357.9z"/>
<path class="st19" d="M233.1,358.3c0,0.2,0,0.3,0,0.5c-0.2,0-0.4,0-0.6,0C232.7,358.5,232.8,358.4,233.1,358.3z"/>
<path class="st19" d="M232.1,358.8c-0.1,0.3-0.2,0.5-0.6,0.5C231.7,359,231.8,358.9,232.1,358.8z"/>
<path class="st24" d="M241.1,347.3l-0.2,0l-0.2,0c0-31,0-61.9,0-92.9l0.2,0l0.2,0C241.1,285.4,241.1,316.4,241.1,347.3z"/>
<path class="st30" d="M241.1,254.5l-0.2,0l-0.2,0c0-0.3,0-0.7,0-1c0.2,0,0.3,0,0.5,0C241.1,253.8,241.1,254.1,241.1,254.5z"/>
<path class="st13" d="M120.3,347.3l-0.2,0l-0.2,0c0-31,0-61.9,0-92.9l0.2,0l0.2,0C120.3,285.4,120.3,316.4,120.3,347.3z"/>
<path class="st18" d="M120.3,254.5l-0.2,0l-0.2,0c0-0.5,0-1,0-1.5c0.6,0,0.4-0.9,1-1C121,252.9,120.2,253.6,120.3,254.5z"/>
<path class="st0" d="M115.3,246c0-0.3,0.2-0.4,0.5-0.5C115.8,245.8,115.6,245.9,115.3,246z"/>
<path class="st29" d="M229.1,60.1c0,14.8,0,29.6,0,44.4c0,3.3-0.8,4.2-4,4.2c-29.8,0-59.6,0-89.3,0c-2.9,0-4-1.5-4-4.1
	c0.1-29.8,0.1-59.6,0-89.3c0-2.7,1.4-4,3.9-3.9c29.9,0.1,59.7,0,89.6,0c0.7,0,1.5,0,2.2,0.3c1.1,0.5,1.8,1.2,1.7,2.5
	c0,0.6,0,1.2,0,1.7C229.1,30.6,229.1,45.3,229.1,60.1z"/>
<path class="st9" d="M126.3,117.2c0-0.3,0.2-0.5,0.5-0.5c3.1,1.9,6.5,2.6,10.1,2.6c28.3-0.1,56.6-0.1,84.9,0c4.1,0,8.1,0,11.8-2.1
	c0.3,0.1,0.5,0.2,0.5,0.5c-1.3,1.1-2.8,1.7-4.5,2c-0.9-0.3-1.6,0.5-2.5,0.5c-31.1,0-62.3,0-93.4,0c-0.7,0.1-1.3-0.7-2-0.5
	C129.6,119.5,127.8,118.6,126.3,117.2z"/>
<path class="st9" d="M240.6,228c-0.5,1.9-0.7,3.9-2,5.5c-0.2,0-0.3,0-0.5,0c0-0.2,0-0.4,0-0.5c1.6-3,1.6-6.3,1.6-9.6
	c0-28.5,0-57,0-85.5c0-3.3,0.1-6.6-1.6-9.6c0-0.3,0.2-0.5,0.5-0.5c1.4,1.6,1.6,3.6,2,5.5c0,0.5,0,1,0,1.5c0,30.6,0,61.3,0,91.9
	C240.6,227,240.6,227.5,240.6,228z"/>
<path class="st9" d="M124.8,124.6c1.9-2.4,4.5-3.5,7.5-4c0.5,0,1,0,1.5,0c31.1,0,62.3,0,93.4,0c0.5,0,1,0,1.5,0
	c2.5,0.3,4.6,1.4,6.5,3c0,0.3-0.2,0.5-0.5,0.5c-3.5-2.3-7.3-3-11.4-3c-28.8,0.1-57.5,0.1-86.3,0c-4.4,0-8.2,1.2-11.6,4l0,0
	C125.2,124.8,125.1,124.7,124.8,124.6L124.8,124.6z"/>
<path class="st9" d="M244.1,233.9c-0.1,0.3-0.2,0.5-0.5,0.5c-1.5-1.9-2.4-4-2.5-6.4c0-0.5,0-1,0-1.5c0-30.6,0-61.3,0-91.9
	c0-0.5,0-1,0-1.5c0-1.8,0.7-3.4,1.6-4.9c0.2,0,0.3,0,0.5,0c0,0.2,0,0.3,0,0.5c0,0.2,0,0.3,0,0.5c-1.3,3.2-1.5,6.5-1.5,9.9
	c0,27.6,0,55.2,0,82.8C241.6,226.1,242,230.2,244.1,233.9z"/>
<path class="st12" d="M243.1,128.6c0-0.2,0-0.3,0-0.5c0-0.2,0-0.4,0-0.5c0-0.2,0-0.3,0.1-0.4c0.3,0,0.4-0.2,0.5-0.5l0,0
	c0.3,0,0.5-0.2,0.5-0.5c0.6-1,1.5-1.8,2.5-2.5c0.2,0,0.4,0,0.6,0l0,0c0,0.2,0,0.3,0,0.5c-1,1.2-2,2.3-3,3.5
	c-0.3,0.1-0.4,0.2-0.5,0.5c0,0.2,0,0.3-0.1,0.5C243.4,128.6,243.3,128.6,243.1,128.6z"/>
<path class="st12" d="M234.6,124.2c0.3,0,0.5-0.2,0.5-0.5c1.5,1.1,2.8,2.3,3.5,4c-0.3,0-0.5,0.2-0.5,0.5
	C236.9,126.8,235.8,125.5,234.6,124.2z"/>
<path class="st17" d="M228.7,120.6c-0.5,0-1,0-1.5,0c0-0.2,0-0.3,0-0.5c0.9,0,1.6-0.8,2.5-0.5C229.6,120.3,228.7,120,228.7,120.6z"
	/>
<path class="st31" d="M241.1,133.1c0,0.5,0,1,0,1.5c-0.2,0-0.3,0-0.5,0c0-0.5,0-1,0-1.5C240.8,133.1,240.9,133.1,241.1,133.1z"/>
<path class="st19" d="M243.1,127.6c0,0.2,0,0.4,0,0.5c-0.2,0-0.3,0-0.5,0C242.6,127.8,242.8,127.7,243.1,127.6z"/>
<path class="st19" d="M243.6,126.6c0,0.3-0.2,0.5-0.5,0.5C243.2,126.8,243.3,126.7,243.6,126.6z"/>
<path class="st19" d="M244.1,126.1c0,0.3-0.2,0.5-0.5,0.5C243.6,126.4,243.8,126.2,244.1,126.1z"/>
<path class="st13" d="M247.1,123.6c-0.2,0-0.4,0-0.6,0c0.1-0.3,0.3-0.4,0.5-0.5C247.1,123.3,247.1,123.5,247.1,123.6z"/>
<path class="st13" d="M247.6,122.7c0,0.3-0.2,0.4-0.5,0.5C247.2,122.9,247.3,122.7,247.6,122.7z"/>
<path class="st32" d="M252.6,59.8c0-14.8,0-29.6,0-44.4c0-3.3,0.8-4.1,4.1-4.1c29.6,0,59.2,0,88.8,0c0.9,0,1.8,0,2.6,0.5
	c0.8,0.5,1.4,1.1,1.3,2.2c0,0.4,0,0.8,0,1.2c0,29.8,0,59.6,0,89.3c0,0.5,0,1,0,1.5c-0.1,1.2-1.1,2.3-2.3,2.5c-0.6,0.1-1.2,0-1.7,0
	c-29.5,0-59.1,0-88.6,0c-0.2,0-0.5,0-0.7,0c-2.5,0-3.5-0.9-3.5-3.4c0-3,0-6,0-9C252.6,84.1,252.6,72,252.6,59.8z"/>
<path class="st26" d="M11.4,59.8c0-14.8,0-29.6,0-44.4c0-3.3,0.8-4,4.1-4c29.7,0,59.4,0,89.1,0c2.8,0,4.1,1.2,4.1,4.2
	c-0.1,29.7-0.1,59.4,0,89.1c0,2.7-1.2,4.1-4,4.1c-29.8-0.1-59.6,0-89.3,0c-0.8,0-1.6,0.1-2.4-0.3c-1-0.5-1.6-1.1-1.6-2.3
	c0-0.7,0-1.3,0-2C11.4,89.3,11.4,74.5,11.4,59.8z"/>
<path class="st20" d="M114.8,115.2c0,0.3-0.2,0.5-0.5,0.5C114.3,115.4,114.5,115.2,114.8,115.2z"/>
<path class="st27" d="M300.8,229c-14.6,0-29.3,0-43.9,0c-0.7,0-1.3,0-2,0c-1.5-0.1-2.2-0.8-2.3-2.4c0-0.5,0-1,0-1.5
	c0-29.8,0-59.6,0-89.3c0-0.6,0-1.2,0-1.7c0.1-1.1,0.8-1.8,1.9-2c0.7-0.1,1.3,0,2,0c29.7,0,59.4,0,89.1,0c0.5,0,1,0,1.5,0
	c1.7,0.1,2.3,0.8,2.4,2.5c0,0.5,0,1,0,1.5c0,29.6,0,59.2,0,88.8c0,0.6,0,1.2,0,1.7c-0.1,1.5-0.8,2.2-2.3,2.3c-0.7,0-1.3,0-2,0
	C330.4,229,315.6,229,300.8,229z"/>
<path class="st19" d="M243.1,128.6c0.1,0,0.3,0,0.4,0c0,0.3-0.2,0.4-0.4,0.5C243.1,129,243.1,128.8,243.1,128.6z"/>
<path class="st19" d="M243.6,128.2c0-0.3,0.2-0.5,0.5-0.5C244.1,127.9,243.9,128.1,243.6,128.2z"/>
<path class="st13" d="M247.1,124.2c0-0.2,0-0.3,0-0.5c0.2,0,0.4,0,0.5,0C247.6,123.9,247.4,124.1,247.1,124.2z"/>
<path class="st13" d="M248.1,123.6c0-0.3,0.2-0.4,0.5-0.4C248.5,123.4,248.4,123.6,248.1,123.6z"/>
<path class="st9" d="M121.8,232.5c-0.9-1.2-0.9-2.7-1.5-4c0-0.5,0-1,0-1.5c0-31,0-61.9,0-92.9c0-0.5,0-1,0-1.5
	c0.6-1.3,0.6-2.8,1.5-4c0.3,0.1,0.5,0.3,0.5,0.6c-1.4,3.9-1,8-1,12c0,26.3,0,52.7,0,79c0,3.9-0.4,7.9,1,11.8
	C122.3,232.2,122.1,232.4,121.8,232.5z"/>
<path class="st9" d="M117.8,128.7c0.1-0.3,0.2-0.5,0.5-0.5c0.9,1.4,1.6,2.8,1.5,4.5c0,0.5,0,1,0,1.5c0,31,0,61.9,0,92.9
	c0,0.5,0,1,0,1.5c-0.1,1.6-0.8,3.1-1.5,4.5c-0.2,0-0.3,0-0.5,0c0-0.2,0-0.4,0-0.6c1.3-3.3,1.6-6.7,1.5-10.1
	c-0.1-27.8-0.1-55.6,0-83.5C119.3,135.3,119,132,117.8,128.7z"/>
<path class="st10" d="M122.3,129.2c-0.1-0.3-0.2-0.5-0.5-0.6c0.8-1.5,1.4-3.1,3-4l0,0c0,0.3,0.2,0.4,0.5,0.5c0,0,0,0,0,0
	C124.3,126.5,123.3,127.9,122.3,129.2z"/>
<path class="st14" d="M133.8,120.6c-0.5,0-1,0-1.5,0c-0.2-0.3-0.3-0.6-0.5-0.9c0.8-0.2,1.3,0.6,2,0.5
	C133.8,120.3,133.8,120.5,133.8,120.6z"/>
<path class="st28" d="M119.8,134.1c0-0.5,0-1,0-1.5c0.2,0,0.3,0,0.5,0c0,0.5,0,1,0,1.5C120.1,134.1,119.9,134.1,119.8,134.1z"/>
<path class="st9" d="M132.7,240.5c-0.9,0-1.7,0-2.5-0.5c0.1-0.6,0.6-0.5,1-0.5c5.1,0.9,10.3,0.5,15.4,0.5c25.8,0,51.6,0,77.4,0.1
	c4.1,0,7.8-1.1,11.1-3.5l0,0c0,0.3,0.2,0.4,0.5,0.5l0,0c-1.9,2-4.3,3.1-7,3.5c-0.5,0-1,0-1.5,0C195.7,240.5,164.2,240.5,132.7,240.5
	z"/>
<path class="st12" d="M238.1,233.5c0.2,0,0.3,0,0.5,0c-0.2,0.3-0.4,0.7-0.5,1c-0.3,0-0.4,0.2-0.5,0.5l0,0c-0.3,0-0.5,0.2-0.5,0.5
	c-0.3,0.7-0.8,1.2-1.5,1.5l0,0c0-0.3-0.2-0.5-0.5-0.5c0,0,0,0,0,0c0.7-0.8,1.4-1.7,2-2.5c0.3,0,0.4-0.2,0.5-0.5l0,0
	C237.8,233.5,238,233.5,238.1,233.5z"/>
<path class="st25" d="M227.1,240.5c0.5,0,1,0,1.5,0c0,0.2,0,0.3,0,0.5c-0.5,0-1,0-1.5,0C227.1,240.8,227.1,240.7,227.1,240.5z"/>
<path class="st33" d="M241.1,226.5c0,0.5,0,1,0,1.5l-0.2,0l-0.2,0c0-0.5,0-1,0-1.5l0.2,0L241.1,226.5z"/>
<path class="st34" d="M237.6,235c0-0.3,0.2-0.4,0.5-0.5C238.1,234.8,237.9,234.9,237.6,235z"/>
<path class="st34" d="M237.1,235.5c0-0.3,0.2-0.5,0.5-0.5C237.6,235.3,237.4,235.5,237.1,235.5z"/>
<path class="st29" d="M60,132.1c15,0,30,0,44.9,0c3.4,0,3.9,0.5,3.9,3.9c0,29.7,0,59.4,0,89.1c0,0.6,0.1,1.2,0,1.7
	c-0.2,1.3-1,2.1-2.3,2.2c-0.7,0.1-1.3,0-2,0c-29.6,0-59.2,0-88.9,0c-3.4,0-4.2-0.4-4.2-4.1c0.1-29.6,0.1-59.2,0-88.9
	c0-3.8,0.8-4.1,4.1-4.1C30.3,132.1,45.1,132.1,60,132.1z"/>
<path class="st11" d="M117.8,233c0.2,0,0.3,0,0.5,0c-0.2,0.3-0.3,0.7-0.5,1c-0.3,0-0.4,0.2-0.5,0.5c-0.9,1.4-2.1,2.5-3.5,3.5
	c-0.3,0-0.5,0.2-0.5,0.5c-0.1,0-0.3,0.1-0.4,0.1c-0.2,0-0.4,0-0.6,0c0-0.2,0-0.3,0-0.5l0,0c0.3,0,0.5-0.2,0.5-0.4
	c0.1,0,0.3-0.1,0.5-0.1c0.3,0,0.5-0.2,0.5-0.5c0.8-0.8,1.7-1.7,2.5-2.5c0.3,0,0.5-0.2,0.5-0.5c0-0.2,0-0.3,0.1-0.5
	c0.3,0,0.4-0.2,0.4-0.5l0,0l0.2,0L117.8,233z"/>
<path class="st13" d="M117.8,233l-0.2,0l-0.2,0c0-0.3,0.2-0.5,0.5-0.6C117.8,232.6,117.8,232.8,117.8,233z"/>
<path class="st13" d="M117.3,233c0,0.3-0.2,0.4-0.4,0.5C116.8,233.2,117,233.1,117.3,233z"/>
<path class="st13" d="M113.8,237c0,0.3-0.2,0.5-0.5,0.5C113.3,237.2,113.5,237,113.8,237z"/>
<path class="st13" d="M112.8,237.5c0,0.3-0.2,0.4-0.5,0.4C112.3,237.7,112.5,237.5,112.8,237.5z"/>
<path class="st13" d="M116.8,234c0,0.3-0.2,0.5-0.5,0.5C116.3,234.2,116.5,234,116.8,234z"/>
<path class="st21" d="M227.1,240.5c0,0.2,0,0.3,0,0.5c-31.5,0-62.9,0-94.4,0c0-0.2,0-0.3,0-0.5C164.2,240.5,195.7,240.5,227.1,240.5
	z"/>
<path class="st12" d="M131.3,239.5c-0.4,0-0.9-0.1-1,0.5c-2.2-0.6-4.1-1.6-5.5-3.5c0.3-0.1,0.5-0.2,0.5-0.5
	C127.1,237.4,129.2,238.4,131.3,239.5z"/>
<path class="st10" d="M125.3,236c0,0.3-0.2,0.5-0.5,0.5c-1.5-1-2.2-2.5-3-4c0.3-0.1,0.5-0.3,0.5-0.6
	C123.3,233.3,124.3,234.6,125.3,236z"/>
<path class="st28" d="M119.8,228.5c0-0.5,0-1,0-1.5l0.2,0l0.2,0c0,0.5,0,1,0,1.5C120.1,228.5,120,228.5,119.8,228.5z"/>
<path class="st13" d="M113.3,238.5c0-0.3,0.2-0.4,0.5-0.5C113.7,238.3,113.6,238.4,113.3,238.5z"/>
<path class="st13" d="M117.3,234.5c0-0.3,0.2-0.5,0.5-0.5C117.7,234.3,117.6,234.5,117.3,234.5z"/>
<path class="st22" d="M133.8,120.6c0-0.2,0-0.3,0-0.5c31.1,0,62.3,0,93.4,0c0,0.2,0,0.3,0,0.5C196,120.6,164.9,120.6,133.8,120.6z"
	/>
<path class="st20" d="M125.3,236c-1-1.3-2-2.7-3-4c-1.4-3.8-1-7.8-1-11.8c0-26.3,0-52.7,0-79c0-4-0.4-8.1,1-12c1-1.3,2-2.7,3-4
	c3.4-2.8,7.2-4,11.6-4c28.8,0.1,57.5,0.1,86.3,0c4.1,0,8,0.7,11.4,3c1.2,1.3,2.3,2.7,3.5,4c1.6,3,1.6,6.3,1.6,9.6
	c0,28.5,0,57,0,85.5c0,3.3,0.1,6.6-1.6,9.6c-0.3,0.1-0.4,0.3-0.5,0.5l0,0c-0.3,0.1-0.5,0.2-0.5,0.5c-0.7,0.8-1.4,1.7-2,2.5
	c-3.3,2.4-6.9,3.5-11.1,3.5c-25.8-0.1-51.6,0-77.4-0.1c-5.1,0-10.3,0.4-15.4-0.5C129.2,238.4,127.1,237.4,125.3,236z M180.7,132.1
	c-14.8,0-29.6,0-44.4,0c-0.7,0-1.3,0-2,0c-1.5,0.1-2.2,0.7-2.5,2.2c-0.1,0.6,0,1.2,0,1.7c0,29.7,0,59.4,0,89.1c0,0.4,0,0.8,0,1.2
	c0.1,1.7,0.9,2.5,2.7,2.6c0.6,0,1.2,0,1.7,0c29.5,0,59.1,0,88.6,0c0.6,0,1.2,0,1.7,0c1.7-0.1,2.4-0.7,2.6-2.4c0.1-0.6,0-1.2,0-1.7
	c0-29.5,0-59.1,0-88.6c0-0.4,0-0.8,0-1.2c-0.1-2.3-0.7-2.9-3-3c-0.6,0-1.2,0-1.7,0C209.8,132.1,195.3,132.1,180.7,132.1z"/>
<path class="st24" d="M241.1,226.5l-0.2,0l-0.2,0c0-30.6,0-61.3,0-91.9c0.2,0,0.3,0,0.5,0C241.1,165.3,241.1,195.9,241.1,226.5z"/>
<path class="st34" d="M237.6,233.5c0-0.3,0.2-0.5,0.5-0.5c0,0.2,0,0.4,0,0.5C238,233.5,237.8,233.5,237.6,233.5z"/>
<path class="st0" d="M125.3,125.1c-0.3,0-0.5-0.2-0.5-0.5C125.1,124.7,125.2,124.8,125.3,125.1z"/>
<path class="st13" d="M120.3,227l-0.2,0l-0.2,0c0-31,0-61.9,0-92.9c0.2,0,0.3,0,0.5,0C120.3,165.1,120.3,196.1,120.3,227z"/>
<path class="st0" d="M235.1,236.5c0.3,0,0.5,0.2,0.5,0.5C235.3,237,235.2,236.8,235.1,236.5z"/>
<path class="st34" d="M237.2,234c0-0.3,0.2-0.4,0.5-0.5C237.6,233.8,237.4,234,237.2,234z"/>
<path class="st32" d="M180.7,132.1c14.6,0,29.1,0,43.7,0c0.6,0,1.2,0,1.7,0c2.2,0,2.9,0.7,3,3c0,0.4,0,0.8,0,1.2
	c0,29.5,0,59.1,0,88.6c0,0.6,0.1,1.2,0,1.7c-0.2,1.7-0.9,2.3-2.6,2.4c-0.6,0-1.2,0-1.7,0c-29.5,0-59.1,0-88.6,0c-0.6,0-1.2,0-1.7,0
	c-1.7-0.1-2.5-0.9-2.7-2.6c0-0.4,0-0.8,0-1.2c0-29.7,0-59.4,0-89.1c0-0.6-0.1-1.2,0-1.7c0.2-1.5,0.9-2.1,2.5-2.2c0.7,0,1.3,0,2,0
	C151.1,132.1,165.9,132.1,180.7,132.1z"/>
</svg>
