<?xml version="1.0" encoding="utf-8"?>
<!-- Generator: Adobe Illustrator 24.0.1, SVG Export Plug-In . SVG Version: 6.00 Build 0)  -->
<svg version="1.1" id="Layer_1" xmlns="http://www.w3.org/2000/svg" xmlns:xlink="http://www.w3.org/1999/xlink" x="0px" y="0px"
	 viewBox="0 0 155.5 497.5" style="enable-background:new 0 0 155.5 497.5;" xml:space="preserve">
<style type="text/css">
	.st0{fill:#9DA1A4;}
	.st1{fill:#4B8AAA;}
	.st2{fill:#F1F6F8;}
	.st3{fill:#A4B8BF;}
	.st4{fill:#A3B8BF;}
	.st5{fill:#C2C1C1;}
	.st6{fill:#BEBFC0;}
	.st7{fill:#18719E;}
	.st8{fill:#18719F;}
	.st9{fill:#9DA0A1;}
	.st10{fill:#80E0FD;}
	.st11{fill:#81E0FD;}
	.st12{fill:#DFE0E1;}
	.st13{fill:#E0E1E1;}
	.st14{fill:#DEDFE0;}
	.st15{fill:#19719F;}
</style>
<g id="GEpbLi.tif">
	<g>
		<g>
			<path class="st0" d="M0.9,376.6c-0.1-0.9-0.2-1.8-0.2-2.7c0-59.7,0-119.5,0-179.2c0-30.8,0.1-61.6,0.1-92.4
				c0-18.9,7.6-34,23.6-44.4c7.6-5,16.1-7.4,25.2-7.6c0.9,0,1.8,0,2.9,0c0-3.8,0-7.3,0-10.9c0.9,0,1.8,0,2.6,0c0,3.5,0,7.1,0,10.6
				c16.6,0,32.9,0,49.2,0c0-3.7,0-7.2,0-10.7c0.9,0,1.8,0,2.6,0.1c0,3.5,0,7,0,10.3c4.5,0.9,8.9,1.3,13,2.6
				c19.4,6.2,31.2,19.3,35.2,39.4c0.3,1.3,0.6,2.7,0.9,4c0,0.3,0,0.7,0,1c-0.2,0.7-0.5,1.4-0.5,2.1c0,6.5,0,12.9,0,19.4
				c0,23.8,0,47.6,0,71.3c0,0.7,0.3,1.4,0.5,2.1c0,0.2,0,0.3,0,0.5c-0.2,0-0.3,0-0.5,0c-0.8-0.1-1.6-0.1-2.4-0.2
				c0-24.6,0-49.2,0-73.7c0.1-4.6,0.5-9.3,0.3-13.9c-0.3-5.5-0.4-11.2-1.8-16.5c-5.7-21.3-24.2-35.1-46.2-35.1c-18,0-36-0.1-54,0
				c-3.5,0-7,0.4-10.4,1c-18.4,3.3-34.7,20-36.9,38.5c-1,8.5-0.5,17.3-0.6,25.9c0,24.6,0,49.2,0,73.8c-0.8,0.1-1.6,0.2-2.5,0.4
				c0,1.2,0,2.3,0,3.4c0,59.1,0,118.2,0,177.3C1.2,374.3,1,375.4,0.9,376.6z"/>
			<path class="st1" d="M155.7,192.2c0.2,0,0.3,0,0.5,0c0,61.8,0,123.5,0,185.3c-0.2,0-0.4-0.1-0.5-0.1c0-0.3,0-0.7,0-1
				C155.7,315,155.7,253.6,155.7,192.2z"/>
			<path class="st2" d="M5.7,497.9c0-0.1,0-0.3,0-0.4c1,0,2-0.1,3-0.1c46.6,0,93.3,0,139.9,0c0.8,0,1.7,0,2.5,0
				c2.5-0.2,4.2-1.3,4.7-3.9c0.1,0,0.3,0,0.4-0.1c0,1.5,0,3,0,4.5C106,497.9,55.9,497.9,5.7,497.9z"/>
			<path class="st3" d="M155.7,377.4c0.2,0,0.4,0.1,0.5,0.1c0,33.5,0,66.9,0,100.4c-0.2,0-0.3,0-0.5,0
				C155.7,444.4,155.7,411,155.7,377.4L155.7,377.4z"/>
			<path class="st4" d="M156.2,191.7c-0.2-0.7-0.5-1.4-0.5-2.1c0-23.8,0-47.6,0-71.3c0.2,0,0.3,0,0.5,0
				C156.2,142.7,156.2,167.2,156.2,191.7z"/>
			<path class="st5" d="M156.2,118.2c-0.2,0-0.3,0-0.5,0c0-6.5,0-12.9,0-19.4c0-0.7,0.3-1.4,0.5-2.1
				C156.2,103.9,156.2,111.1,156.2,118.2z"/>
			<path class="st6" d="M155.7,477.9c0.2,0,0.3,0,0.5,0c0,5.2,0,10.3,0,15.5c-0.1,0.1-0.3,0.1-0.4,0.1
				C155.8,488.3,155.7,483.1,155.7,477.9z"/>
			<path class="st7" d="M155.7,192.2c0,61.4,0,122.8,0,184.2c0,0.3,0,0.7,0,1c0,0,0,0.1,0,0.1c-0.7,0-1.4,0-2.1,0.1
				c-0.8,0-1.7-0.1-2.5-0.1c-48.4,0-96.9,0-145.3,0c-0.7,0-1.5,0-2.2,0.1c-0.8,0-1.6,0-2.5,0c-0.1-0.3-0.1-0.6-0.2-0.9
				c0.1-1.2,0.2-2.3,0.2-3.5c0-59.1,0-118.2,0-177.3c0-1.1,0-2.1,0-3.4c0.9-0.1,1.7-0.3,2.5-0.4c0.8,0,1.7,0.1,2.5,0.1
				c48.2,0,96.4,0,144.7,0c0.8,0,1.7-0.1,2.5-0.1C154.1,192.1,154.9,192.1,155.7,192.2z M31.8,268.5c0-10,0-19.9,0-29.7
				c-3.7,0-7,0-10.4,0c0,23.3,0,46.5,0,69.6c3.6,0,6.9,0,10.6,0c0-10.2,0-20.2,0-30.2c9,0,17.7,0,26.7,0c0,10.1,0,20.2,0,30.2
				c3.7,0,7,0,10.6,0c0-23.3,0-46.4,0-69.6c-3.6,0-7,0-10.6,0c0,10,0,19.8,0,29.7C49.7,268.5,41,268.5,31.8,268.5z M146.4,292.8
				c-0.1,0-0.2,0-0.3,0c0-3.2,0.1-6.3,0-9.5c-0.2-4.4-0.2-8.8-2.4-12.9c-5.3-9.7-14-14.3-25-13.2c-10.6,1-19.3,9.2-20.8,19.7
				c-0.5,3.4-0.6,6.8-0.6,10.2c0.1,7-0.2,14,0.7,20.9c1.6,13,14.5,22.1,27.6,19.8c10.6-1.8,18.7-9.4,20-19.1
				C146.2,303.4,146.1,298.1,146.4,292.8z M91.5,343c0-1.7,0-3,0-4.6c-3.9,0-7.5,0-11.5,0c1.8-2.3,3.3-4.2,4.8-6.2
				c2-2.6,4.1-5,5.8-7.8c2-3.2,1.2-7.4-1.4-10.2c-2.6-2.7-6.9-3.6-10.3-2c-3.1,1.4-5,4.6-4.8,8.2c1.4,0,2.8,0,4.1,0
				c0.3-0.7,0.4-1.4,0.7-2c1-1.9,2.6-2.8,4.8-2.3c2.1,0.5,3.3,2,3.1,4.2c-0.1,1.3-0.7,2.7-1.5,3.8c-3.2,4.3-6.6,8.6-10,12.7
				c-1.6,1.9-1.8,3.8-1.4,6.1c0.3,0.1,0.7,0.1,1,0.1C80.4,343,85.9,343,91.5,343z"/>
			<path class="st8" d="M55.1,39.5c-0.9,0-1.8,0-2.6,0c-2.6,0-5.1,0-7.8,0c-0.1-0.8-0.2-1.3-0.2-1.9c0-7,0-14,0-21
				c0.1-8.8,6.2-15.2,14.9-15.3c13.6-0.1,27.2-0.1,40.8,0c8.1,0.1,14.4,5.7,14.8,13.8c0.4,7.1,0.1,14.3,0.1,21.5c0,0.8,0,1.6,0,2.9
				c-2.9,0-5.6,0-8.3,0c-0.9,0-1.8,0-2.6-0.1C87.9,39.4,71.5,39.4,55.1,39.5z"/>
			<path class="st9" d="M153.6,377.5c0.7,0,1.4,0,2.1-0.1c0,33.5,0,66.9,0,100.4c0,5.2,0,10.4,0,15.5c-0.5,2.6-2.2,3.8-4.7,3.9
				c-0.8,0.1-1.7,0-2.5,0c-46.6,0-93.3,0-139.9,0c-1,0-2,0-3,0.1c-3.2-0.7-4.6-2.2-4.6-5.2c0-38.2,0-76.5,0-114.7c0.8,0,1.6,0,2.5,0
				c0,37.8,0,75.6,0,113.3c0,3.6,0.4,4,4,4c47.3,0,94.7,0,142,0c3.1,0,4-0.8,4-4C153.6,453.1,153.6,415.3,153.6,377.5z"/>
			<path class="st10" d="M153.3,192c-0.8,0-1.7,0.1-2.5,0.1c-48.2,0-96.4,0-144.7,0c-0.8,0-1.7-0.1-2.5-0.1c0-24.6,0-49.2,0-73.8
				c49.9,0,99.8,0,149.6,0C153.3,142.9,153.3,167.4,153.3,192z"/>
			<path class="st11" d="M153.6,377.5c0,37.8,0,75.6,0,113.3c0,3.1-0.9,4-4,4c-47.3,0-94.7,0-142,0c-3.6,0-4-0.4-4-4
				c0-37.8,0-75.6,0-113.3c0.7,0,1.5-0.1,2.2-0.1c48.4,0,96.9,0,145.3,0C152,377.5,152.8,377.5,153.6,377.5z"/>
			<path class="st12" d="M31.8,268.5c9.2,0,17.9,0,26.8,0c0-9.9,0-19.7,0-29.7c3.6,0,7.1,0,10.6,0c0,23.2,0,46.4,0,69.6
				c-3.5,0-6.9,0-10.6,0c0-10.1,0-20.1,0-30.2c-9,0-17.7,0-26.7,0c0,10,0,20,0,30.2c-3.7,0-7,0-10.6,0c0-23.1,0-46.3,0-69.6
				c3.4,0,6.7,0,10.4,0C31.8,248.6,31.8,258.4,31.8,268.5z"/>
			<path class="st13" d="M146.4,292.8c-0.3,5.3-0.2,10.7-0.9,15.9c-1.3,9.7-9.5,17.3-20,19.1c-13,2.3-25.9-6.8-27.6-19.8
				c-0.8-6.9-0.6-13.9-0.7-20.9c0-3.4,0.1-6.8,0.6-10.2c1.5-10.5,10.2-18.7,20.8-19.7c11-1.1,19.7,3.5,25,13.2
				c2.2,4,2.2,8.5,2.4,12.9c0.2,3.2,0,6.3,0,9.5C146.2,292.8,146.3,292.8,146.4,292.8z M135.7,292.5c-0.3-4.6-0.3-9.3-0.9-13.9
				c-0.9-6.7-6.9-11.3-13.6-11c-6.7,0.3-12.5,5.3-12.8,12c-0.4,8.6-0.4,17.3,0,25.9c0.3,6.8,6.1,11.8,12.7,12
				c6.8,0.2,12.7-4.4,13.6-11.3C135.4,301.7,135.4,297.2,135.7,292.5z"/>
			<path class="st14" d="M91.5,343c-5.7,0-11.1,0-16.6,0c-0.3,0-0.6-0.1-1-0.1c-0.4-2.3-0.2-4.2,1.4-6.1c3.5-4.1,6.8-8.4,10-12.7
				c0.8-1.1,1.4-2.5,1.5-3.8c0.2-2.1-1-3.7-3.1-4.2c-2.1-0.5-3.7,0.4-4.8,2.3c-0.3,0.6-0.5,1.2-0.7,2c-1.4,0-2.7,0-4.1,0
				c-0.3-3.5,1.6-6.7,4.8-8.2c3.4-1.6,7.8-0.7,10.3,2c2.6,2.7,3.3,7,1.4,10.2c-1.7,2.8-3.8,5.2-5.8,7.8c-1.5,2-3.1,3.9-4.8,6.2
				c4,0,7.7,0,11.5,0C91.5,340,91.5,341.3,91.5,343z"/>
			<path class="st15" d="M135.7,292.5c-0.3,4.6-0.3,9.2-0.9,13.7c-0.9,6.9-6.8,11.5-13.6,11.3c-6.6-0.2-12.4-5.3-12.7-12
				c-0.4-8.6-0.4-17.3,0-25.9c0.3-6.7,6-11.7,12.8-12c6.7-0.3,12.6,4.3,13.6,11C135.4,283.2,135.4,287.9,135.7,292.5z"/>
		</g>
	</g>
</g>
</svg>
